<svg xmlns="http://www.w3.org/2000/svg" viewBox="0 0 100 100">
	<path stroke="none" fill="currentColor" d="M7.12,81.23H0L21.36,18.69h7.13Z"/>
	<path stroke="none" fill="currentColor" d="M58.56,76.48a16,16,0,0,1-1.12-4.19,15.19,15.19,0,0,1-11.46,5,15.31,15.31,0,0,1-10.73-3.81A12.24,12.24,0,0,1,31.12,64a12.65,12.65,0,0,1,5.16-10.87q5.19-3.68,14.83-3.67h6V46.52A7.85,7.85,0,0,0,55.19,41c-1.26-1.4-3.19-2.1-5.77-2.1a8.59,8.59,0,0,0-5.49,1.7,5.26,5.26,0,0,0-2.14,4.32H32a11.08,11.08,0,0,1,2.34-6.78,15.92,15.92,0,0,1,6.48-5A22.58,22.58,0,0,1,50,31.37q7.68,0,12.23,3.91c3,2.6,4.61,6.29,4.72,11V66.23a23,23,0,0,0,1.65,9.54v.7Zm-9.64-7.11A10.26,10.26,0,0,0,54,68.06a8.76,8.76,0,0,0,3.56-3.55V56.77H52.65c-3.36,0-5.88.6-7.57,1.77a5.79,5.79,0,0,0-2.54,5.07,5.4,5.4,0,0,0,1.74,4.22A6.66,6.66,0,0,0,48.92,69.37Z"/>
	<path stroke="none" fill="currentColor" d="M78.64,81.23H71.51L92.88,18.69H100Z"/>
</svg>