<svg xmlns="http://www.w3.org/2000/svg" viewBox="0 0 100 100">
	<path stroke="none" fill="currentColor" d="M2.73,81.25H0l24-62.5h2.73Z"/>
	<path stroke="none" fill="currentColor" d="M63.27,76.3a30,30,0,0,1-.78-7.82c-1.69,2.74-3.1,4.86-6,6.36a23.57,23.57,0,0,1-10.42,2.25c-3.95,0-7.74-1.07-10.15-3.22a10.7,10.7,0,0,1-3.61-8.4,11.93,11.93,0,0,1,5.41-10c3.55-2.36,8.66-3.57,14.53-3.62H62.49V46.19c0-3.59-.73-5.57-3-7.54S54,35.58,49.84,35.58c-3.9,0-6.45.64-9.16,2.51A9.17,9.17,0,0,0,37,45.32l-3.64-.08A11.64,11.64,0,0,1,37.92,36a19.63,19.63,0,0,1,11.92-3.75,18.29,18.29,0,0,1,11.59,3.86c2.71,2.3,3.91,5.65,4,9.84V66.38q0,7,1.11,9.57v.35ZM46.05,74c4,0,7.45-.6,10.33-2.39s4.66-4.81,6.11-8V54.86H53c-6.11,0-10.49,1-13.73,3.44a8.38,8.38,0,0,0-3.55,7.29,8,8,0,0,0,2.62,5.91A11.62,11.62,0,0,0,46.05,74Z"/>
	<path stroke="none" fill="currentColor" d="M76,81.25H73.24l24-62.5H100Z"/>
</svg>