<?xml version="1.0" encoding="utf-8"?>
<svg version="1.1" xmlns="http://www.w3.org/2000/svg" viewBox="0 0 1355 1526">
<style type="text/css">
	.st0{fill:none;stroke:#000000;stroke-width:20;}
</style>
<g>
	<path class="st0" d="M936.5,25.1C863.4,33.8,834.2,130.3,797.1,183c-7.8,10.7-23.4,44.8-35.1,48.7c-15.6,5.8-40.9-2.9-57.5-1.9
		c-47.8,2.9-97.5,4.9-143.3,17.5l-53.6,14.6c-6.8,1.9-15.6,6.8-23.4,3.9c-24.4-9.7-49.7-40.9-71.2-57.5
		c-47.8-37-97.5-72.1-148.2-104.3c-35.1-23.4-85.8-43.9-118.9-3.9c-31.2,36.1-18.5,101.4-18.5,145.2l-1.9,258.3
		c0,33.1,3.9,67.3,1.9,100.4c-2.9,46.8-30.2,99.4-45.8,143.3C53.4,824.4,29,911.2,34.8,994c3.9,59.5,17.5,118,42.9,171.6
		c68.5,122.7,177.9,217.6,309,268.1c47.8,21.4,95.5,44.8,146.2,58.5c81.9,21.4,170.6,24.4,254.4,16.6
		c106.3-10.7,229.1-39,315.8-103.3c52.6-38,85.8-96.5,121.9-149.1c31.2-45.8,62.4-88.7,83.8-140.4
		c102.9-260.6,29.8-557.8-182.3-740.9c-32.2-28.3-73.1-46.8-105.3-75.1c-11.7-9.7-4.9-49.7-4.9-64.3v-98.5c0-19.5,1.9-39-2.9-57.5
		C1002.8,45.5,972.6,21.2,936.5,25.1z"/>
	<path class="st0" d="M656.8,614.8c-28.3,3.9-52.6,16.6-74.1,35.1c-9.7,7.8-20.5,17.5-19.5,31.2c1,13.6,13.6,25.3,23.4,33.1
		c27.3,24.4,64.3,34.1,100.4,30.2c21.4-2.9,64.3-11.7,71.2-36.1c3.9-11.7-9.7-27.3-15.6-36.1C722.1,644.1,695.8,610.9,656.8,614.8z"
		/>
	<path class="st0" d="M623.6,648.9c-15.6,5.8-3.9,32.2,12.7,25.3C652.9,666.5,640.2,642.1,623.6,648.9z"/>
	<path class="st0" d="M1100.7,748.8c-26.4,17.3-96.9,37.5-106.7,72.6c-10.7,41.9,34.1,89.7,66.3,108.2c10.7,5.8,28.3,6.8,37,14.6
		c10.7,8.8,13.6,50.7,3.9,61.4c-16.6,16.6-47.8,25.3-69.2,33.1c-25.3,8.8-60,31.1-87.3,34c-40.9,3.9-86.8-10-123.9-24.6
		c-16.6-6.8-68.1-39.1-70.9-25.5c-3.3,10.8,22,15.9,34.7,18.8c30.2,6.8,52.5,20.7,81.7,28.5c19.5,3.9,40,10.7,60.4,11.7
		c17.5,1,35.1-2.9,51.7-1.9c22.4,2.9,44.8,10.7,67.3,12.7c62.4,3.9,116-19.5,153-70.2c-21.4-9.7-51.7,5.8-70.2-17.5
		c-6.8-7.8,1-29.2,1-38c0-7.8-3.9-20.5,0-28.3c4.9-10.7,23.4-17.5,32.2-27.3c25.3-28.3,47.8-87.7,18.5-120.9
		c-13.6-14.6-39-21.9-55.6-32.6c-43-24.2-81.2-38-123.1-58.4l-45.9-25c-2.2-2.3-2.4-5.3-5.4-2.7c-1.8,4,35.1,20.4,43.8,26.2
		L1100.7,748.8z M1032.1,540.7c-80.5,16.5-36.7,136.4,31.2,122.8C1142.2,647,1103.2,526.1,1032.1,540.7z"/>
	<path class="st0" d="M226.7,185.7c-26.7,5.3-16,48.9-16,69.4c0,73.8,6.2,147.6,6.2,221.4c0,18.7-6.2,76.5,26.7,72
		c19.6-3.6,29.3-39.1,40-54.2c28.5-40,64.9-75.6,105.8-102.3c14.2-8.9,49.8-17.8,48.9-37.4c-0.9-18.7-25.8-32-38.2-42.7l-120.9-95.2
		C265.8,206.2,245.4,181.3,226.7,185.7 M346.7,185.7l0.9,0.9L346.7,185.7 M788.7,185.7l0.9,0.9L788.7,185.7z"/>
	<path class="st0" d="M1023.2,571.9c-9.7,3.9-2.9,18.5,6.8,14.6C1039.8,582.6,1032.9,568,1023.2,571.9z"/>
</g>
</svg>
