<?xml version="1.0" encoding="utf-8"?>
<svg version="1.1" xmlns="http://www.w3.org/2000/svg" viewBox="0 0 1355 1526">
<g>
	<path data-background-fill="true" fill="currentColor" d="M926,0c-75,9-105,108-143,162c-8,11-24,46-36,50c-16,6-42-3-59-2c-49,3-100,5-147,18l-55,15c-7,2-16,7-24,4
		c-25-10-51-42-73-59c-49-38-100-74-152-107c-36-24-88-45-122-4c-32,37-19,104-19,149l-2,265c0,34,4,69,2,103c-3,48-31,102-47,147
		C20,820-5,909,1,994c4,61,18,121,44,176c70.3,125.9,182.4,223.2,317,275c49,22,98,46,150,60c84,22,175,25,261,17
		c109-11,235-40,324-106c54-39,88-99,125-153c32-47,64-91,86-144c105.6-267.3,30.6-572.2-187-760c-33-29-75-48-108-77
		c-12-10-5-51-5-66V115c0-20,2-40-3-59C994,21,963-4,926,0z"/>
	<g>
		<path data-foreground-fill="true" fill="white" d="M916,239c0,15,0,40,22,34c19-4,14-33,14-47c0-45,0-91,2-136c0-15-6-34-25-28c-18,5-13,33-13,47V239z"/>
		<path data-foreground-fill="true" fill="white" d="M944,545c35-5,72-66,72-101c0-32-29-55-60-49c-33,5-68,72-66,104C891,526,916,550,944,545z"/>
		<path data-foreground-fill="true" fill="white" d="M651,561c30,13,79,44,113,36c35-8,49-54,26-81c-23-26-76-38-107-49c-13-5-27-11-41-8c-38,7-51,53-27,81
			C624,551,638,556,651,561z"/>
	</g>
	<path data-foreground-fill="true" fill="white" d="M1062,759c-26,17-67,22-77,58c-11,43,35,92,68,111c11,6,29,7,38,15c11,9,14,52,4,63c-17,17-49,26-71,34
		c-26,9-54,25-82,28c-42,4-86-22-124-37c-17-7-78-38-83-3c-2,17,14,22,27,25c31,7,62,11,92,19c20,4,41,11,62,12c18,1,36-3,53-2
		c23,3,46,11,69,13c64,4,119-20,157-72c-22-10-53,6-72-18c-7-8,1-30,1-39c0-8-4-21,0-29c5-11,24-18,33-28c26-29,49-90,19-124
		c-14-15-35-23-52-34c-41-25-85-47-128-68l-44-22c-4-1-12-5-16-1c-13,12,8,28,17,34L1062,759z"/>
	<path  data-foreground-fill="true" fill="white" d="M195,167.8c-21.2,4.2-12.7,38.8-12.7,55.1c0,58.6,4.9,117.2,4.9,175.8c0,14.8-4.9,60.7,21.2,57.2
		c15.5-2.8,23.3-31.1,31.8-43.1c22.6-31.8,51.5-60,84-81.2c11.3-7.1,39.5-14.1,38.8-29.7c-0.7-14.8-20.5-25.4-30.4-33.9l-96-75.6
		C226.1,184.1,209.8,164.3,195,167.8 M290.3,167.8l0.7,0.7L290.3,167.8 M641.3,167.8l0.7,0.7L641.3,167.8z"/>
</g>
<g>
	<path data-foreground-fill="true" fill="white" d="M47.9,776l74.1-17.1l8.1,35.1L56,811.1L47.9,776z"/>
	<path data-foreground-fill="true" fill="white" d="M113,719l9,40l222-51l9,34l38-9l8,35l36-8l9,40l40-10l8,35l265-61l-8-35l40-9l-8-35l35-9l-9-39l75-18l8,36
		l36-9l9,40l265-61l-10-40l40-9l-8-35l35-9l-17-74L113,719z"/>
	<g data-background-fill="true" fill="currentColor">
		<path d="M418,685.2L458,676l9.2,39.9l-39.9,9.2L418,685.2z"/>
		<path d="M466.4,715.7l35.1-8.1l8.1,35.1l-35.1,8.1L466.4,715.7z"/>
		<path d="M493,668l39.9-9.2l9,39L502,707L493,668z"/>
		<path d="M542.5,698l39.9-9.2l8.1,35.1l-39.9,9.2L542.5,698z"/>
		<path d="M510,743.2L550,734l9,39l-39.9,9.2L510,743.2z"/>
		<path d="M590.8,724l39-9L639,755l-39,9L590.8,724z"/>
		<path d="M908.8,571l39-9L957,602l-39,9L908.8,571z"/>
		<path d="M957.4,602.5l35.1-8.1l8.1,35.1l-35.1,8.1L957.4,602.5z"/>
		<path d="M984,554l39.9-9.2l9.2,39.9l-39.9,9.2L984,554z"/>
		<path d="M1033.4,584.5l35.1-8.1l8.3,36.1l-35.1,8.1L1033.4,584.5z"/>
	</g>
</g>
</svg>
