<?xml version="1.0" encoding="utf-8"?>
<svg version="1.1" xmlns="http://www.w3.org/2000/svg" viewBox="0 10 1355 1526">
<g fill="none" stroke="currentColor" stroke-width="44">
	<path d="M918.1,29.1c-72,8.6-100.8,103.6-137.3,155.6c-7.7,10.5-23.1,44.1-34.6,48c-15.4,5.7-40.3-2.9-56.6-1.9
		c-47.1,2.9-96.1,4.8-141.2,17.2l-52.8,14.4c-6.7,1.9-15.4,6.7-23.1,3.8c-24-9.6-49-40.3-70.1-56.6c-47.1-36.5-96.1-71-146-102.8
		c-34.6-23.1-84.5-43.2-117.1-3.8c-30.7,35.6-18.2,99.9-18.2,143l-1.9,254.5c0,32.6,3.8,66.3,1.9,98.9
		c-2.9,46.1-29.8,97.9-45.1,141.2c-27.8,76-51.8,161.5-46.1,243c3.8,58.6,17.2,116.2,42.3,169.1c67.5,120.9,175.3,214.4,304.4,264.1
		c47.1,21.1,94.1,44.1,144,57.6c80.7,21.1,168.1,24,250.6,16.4c104.7-10.5,225.7-38.4,311.1-101.8c51.8-37.4,84.5-95.1,120.1-146.9
		c30.7-45.1,61.5-87.4,82.6-138.3c101.4-256.7,29.4-549.5-179.6-729.9c-31.7-27.9-72-46.1-103.7-74c-11.5-9.6-4.8-49-4.8-63.3v-97
		c0-19.2,1.9-38.4-2.9-56.6C983.4,49.2,953.7,25.3,918.1,29.1z"/>
	<path d="M642.6,610c-27.9,3.8-51.8,16.4-73,34.6c-9.6,7.7-20.2,17.2-19.2,30.7c1,13.4,13.4,24.9,23.1,32.6
		c26.9,24,63.3,33.6,98.9,29.8c21.1-2.9,63.3-11.5,70.1-35.6c3.8-11.5-9.6-26.9-15.4-35.6C706.9,638.9,681,606.2,642.6,610z"/>
	<path d="M609.9,643.6c-15.4,5.7-3.8,31.7,12.5,24.9C638.7,661,626.2,636.9,609.9,643.6z"/>
	<path d="M1079.9,742.1c-26,17-95.5,36.9-105.1,71.5c-10.5,41.3,33.6,88.4,65.3,106.6c10.5,5.7,27.9,6.7,36.5,14.4
		c10.5,8.7,13.4,49.9,3.8,60.5c-16.4,16.4-47.1,24.9-68.2,32.6c-24.9,8.7-59.1,30.6-86,33.5c-40.3,3.8-85.5-9.9-122.1-24.2
		c-16.4-6.7-67.1-38.5-69.8-25.1c-3.3,10.6,21.7,15.7,34.2,18.5c29.8,6.7,51.7,20.4,80.5,28.1c19.2,3.8,39.4,10.5,59.5,11.5
		c17.2,1,34.6-2.9,50.9-1.9c22.1,2.9,44.1,10.5,66.3,12.5c61.5,3.8,114.3-19.2,150.7-69.2c-21.1-9.6-50.9,5.7-69.2-17.2
		c-6.7-7.7,1-28.8,1-37.4c0-7.7-3.8-20.2,0-27.9c4.8-10.5,23.1-17.2,31.7-26.9c24.9-27.9,47.1-86.4,18.2-119.1
		c-13.4-14.4-38.4-21.6-54.8-32.1c-42.4-23.8-80-37.4-121.3-57.5l-45.2-24.6c-2.2-2.3-2.4-5.2-5.3-2.7c-1.8,3.9,34.6,20.1,43.2,25.8
		L1079.9,742.1z M1012.3,537c-79.3,16.3-36.2,134.4,30.7,121C1120.8,641.8,1082.3,522.7,1012.3,537z"/>
	<path d="M218.8,187.3c-26.3,5.2-15.8,48.2-15.8,68.4c0,72.7,6.1,145.4,6.1,218.1c0,18.4-6.1,75.4,26.3,70.9
		c19.3-3.5,28.9-38.5,39.4-53.4c28.1-39.4,63.9-74.5,104.2-100.8c14-8.8,49.1-17.5,48.2-36.8c-0.9-18.4-25.4-31.5-37.6-42.1
		l-119.1-93.8C257.4,207.5,237.3,183,218.8,187.3 M337.1,187.3l0.9,0.9L337.1,187.3 M772.5,187.3l0.9,0.9L772.5,187.3z"/>
	<path d="M1003.5,567.8c-9.6,3.8-2.9,18.2,6.7,14.4C1019.9,578.3,1013.1,563.9,1003.5,567.8z"/>
</g>
</svg>