<?xml version="1.0" encoding="utf-8"?>
<svg version="1.1" xmlns="http://www.w3.org/2000/svg" viewBox="0 0 141.7 141.7">
<g>
	<path fill="none" stroke="currentColor" stroke-width="5" d="M16.8,136.8c-5.3,0-8.2-3.6-8.2-7c0-13.9,9-29.8,28.6-33.3c4.6-0.8,23.4-0.5,33.4-0.5c8.3,0,26.5-0.4,33.2,0.5
		c18.4,2.5,29.3,18.6,29.3,32.8c0,2.8-1.6,7.5-8.5,7.5C116.7,136.8,24.9,136.8,16.8,136.8z"/>
</g>
<g fill="none" stroke="currentColor" stroke-width="4">
	<path d="M34.9,83.4V5.5h72.2v77.9l-9.6-7.7l-8,7.7L80.9,76l-8.5,7.3l-9-7.4L54,83.4l-8.9-7.3
		C45.1,76.1,34.9,83.4,34.9,83.4z"/>
	<path d="M59,27.3h2.1c3,0,5.4,2.4,5.4,5.5v9.1c0,3-2.4,5.5-5.4,5.5H59c-3,0-5.5-2.4-5.5-5.5v-9.1C53.6,29.8,56,27.3,59,27.3z"/>
	<path d="M83,27.3h2.1c3,0,5.4,2.4,5.4,5.5v9.1c0,3-2.4,5.5-5.4,5.5H83c-3,0-5.4-2.4-5.4-5.5v-9.1C77.5,29.8,80,27.3,83,27.3z"/>
</g>
</svg>
