<?xml version="1.0" encoding="utf-8"?>
<svg version="1.1" xmlns="http://www.w3.org/2000/svg" viewBox="0 0 512 512">
<path fill="#FFCC09" stroke="currentColor" stroke-width="4" d="M363.9,5.2c-81.7-2.3-149.7,62.1-152,143.8c-0.4,13.5,1.1,27.1,4.4,40.2c0,0,10.5-8,24.3-30.7
	c15.6-26,15.1-50.6,47.7-73.8c-24.2,26.6-21,49.5-9.9,69.8c0-43.4,35.1-78.6,78.5-78.6c30.8,0,58.7,17.9,71.5,45.9
	c17.7,38.9,1.8,86.3-37.2,103.2c-13.4,5.8-48.8,6.2-87.5,3.2c-37.3-2.9-111.7-11-148.9-13.3c-21.7-1.3-44,3.7-65.2,13.4
	C15.1,262.2-17.6,349.9,16.3,424.1c33.9,74.3,96.4,105.2,157.8,70.4c60.3-34.2,35-132.6,53-205.1l-18.9-1.6
	c-2.3,3.1-4.3,6.1-5.7,9.1c-8.7,18.1-9.7,28.5-16.6,57.7c-6.8,29.1-14.2,71.9-43.8,77.2c-27.5,2.1-47.3-9.7-60.1-37.7
	c-17.7-38.9-1.8-86.3,37.2-103.2c13.4-5.8,48.8-6.2,87.5-3.2c37.3,2.9,111.7,11,148.9,13.3c21.7,1.3,44-3.7,65.2-13.4
	c74.3-34,107-121.8,73-196.1C470.5,40.4,420.1,6.9,363.9,5.2z"/>
<g fill="currentColor">
	<path d="M276.3,474.1l-8.8,8.8v27.9h-24.4V381h24.4v71.9l4.7-6.1l23.4-27.5h29.3l-33,38.1l35.9,53.3h-28L276.3,474.1z"
		/>
	<path d="M390.2,501.4c-6,7.3-14.4,11-25,11c-9.8,0-17.3-2.8-22.4-8.4c-5.2-5.6-7.8-13.9-7.9-24.8v-59.9h24.4v59.1
		c0,9.5,4.3,14.3,13,14.3c8.3,0,14-2.9,17.1-8.6v-64.8h24.5v91.4h-23L390.2,501.4z"/>
	<path d="M454.8,419.3l0.8,10.6c6.5-8.2,15.3-12.2,26.3-12.2c9.7,0,16.9,2.8,21.6,8.5c4.7,5.7,7.2,14.2,7.3,25.5v59
		h-24.4v-58.5c0-5.2-1.1-8.9-3.4-11.3c-2.3-2.3-6-3.5-11.2-3.5c-6.9,0-12,2.9-15.5,8.8v64.5h-24.4v-91.4H454.8z"/>
</g>
</svg>
