<svg version="1.1" id="Layer_1" xmlns="http://www.w3.org/2000/svg" xmlns:xlink="http://www.w3.org/1999/xlink" x="0" y="0" viewBox="0 0 1280 1280" xml:space="preserve" fill="#000"><style>.st0,.st1{fill:none;stroke:#000}.st0{stroke-width:3;stroke-miterlimit:10}.st1{stroke-linecap:round}.st1,.st2{stroke-width:3;stroke-linejoin:round}.st2,.st3{fill:none;stroke:#000;stroke-miterlimit:10}.st3,.st4,.st5{stroke-width:2}.st4{fill:none;stroke:#000;stroke-linejoin:round;stroke-miterlimit:10}.st5{stroke-linecap:round}.st5,.st6,.st9{fill:none;stroke:#000;stroke-linejoin:round;stroke-miterlimit:10}.st9{stroke-width:3}.st10,.st11,.st9{stroke-linecap:round}.st10,.st11,.st27{fill:none;stroke:#000;stroke-width:3;stroke-miterlimit:10}.st11,.st27{stroke-width:2}.st27{stroke-linecap:round;stroke-width:.75;stroke-linejoin:round}</style><symbol id="_x34_chan" viewBox="-23.5 -24.1 47.1 48.3"><path class="st0" d="m-15-17-1 3-1 1h-4l-1 3v2l1 2c0 2 1 2 2 3l5 2 6 1 2-1v-6c0-3-1-7-3-9l-3-2h-2l-1 1zm16-4c-1 0-2 1-2 3l-1 5 1 7v1h2l3-1c5-1 10-4 11-7v-3l-1-1-3-1h-1v-2l-2-2c-2-1-5-1-7 1zM5 1l2 10 3 5 5 1 2-2v-3h3l2-6-2-4-4-2H8L5 1zm-17 7c-2 2-4 3-4 5l-1 2 2 2 3 1h1-1l1 3c2 2 5 2 7 1l2-1c2-2 3-5 3-9L0 7V6h-1l-11 2z"/></symbol><symbol id="Arrow_Head" viewBox="-13.3 -12.6 26.7 25.2"><path d="M-11 13V8L7-2l-20-6v-5l26 9v4z"/></symbol><symbol id="At" viewBox="-18 -17.6 38.7 37.3"><path d="m17-4 4 1-4-8-10-5c-4-1-8-2-11-1s-6 1-8 4l-5 8-1 10 5 9a22 22 0 0 0 18 5c3 0 5-1 7-3l4-7c1-3 1-6-1-9-1-4-4-7-7-8H5L4-6l-5-4c-2-1-3 0-5 1s-3 3-3 5v8c1 4 2 6 5 7l6-1v2l3 1L6-1v-2l1-1h2l2 3 2 4v6c-1 3-3 5-6 6-3 2-6 2-10 0l-8-4c-2-2-3-4-3-7v-8l4-7c2-2 4-3 7-3l9 1 7 4 4 5zM-5-3l2-3h3l1 1 1 1 1 4v4L1 7l-3 1-3-3-1-4 1-4z"/></symbol><symbol id="Circle_Larger" viewBox="-12.4 -12.4 24.8 24.8"><circle class="st1" r="10.9"/></symbol><symbol id="Circle_Smaller" viewBox="-9 -9 17.9 17.9"><circle class="st1" r="7.5"/></symbol><symbol id="Dot" viewBox="-2.9 -2.9 5.8 5.8"><circle r="2.9"/></symbol><symbol id="Dot_Larger" viewBox="-5 -5 10 10"><circle r="5"/></symbol><symbol id="Hash" viewBox="-17.2 -20.9 39.9 36.8"><path d="M21 5h-9l1 9c1 1 0 2-1 2l-2-1L9 5H0l1 9-1 2-2-1-2-10h-9l-2-1 2-2h9l-2-9h-10l-1-1 1-2h10l-2-9 1-2h1l1 1 2 10h9l-2-9 1-2h1l1 1L9-9h10l1 1-1 2h-9l1 9h10l2 2-2 1zM7-7H-3l2 9h9L7-7z"/></symbol><symbol id="Jewish_Star" viewBox="-25.7 -25.8 51.4 51.5"><path d="m-6 14-4-1 5 13L12 7l-1-4-15 16z"/><path d="m2 10-2 3-26-5 10-10 1 3-4 5z"/><path d="m-8 7-4-1-8-24 14 3-3 3-6-1z"/><path d="m-10-4-1-3L6-26l4 13-4-1-2-5z"/><path d="m-2-10 3-3 25 5L16 2l-1-3 4-5z"/><path d="m6 15 3-3 6 1L8-7l4 1 8 24z"/></symbol><symbol id="Lightning" viewBox="-12.9 -24.1 25.9 48.2"><path class="st2" d="m-5 21-6-22 8 1-7-23L10 5H2l9 18z"/></symbol><symbol id="Moon" viewBox="-17.1 -19.6 34.2 39.1"><path class="st0" d="M-15 13a18 18 0 1 0 8-30l-1 1 1 1a14 14 0 0 1-1 25l-7 1-1 1 1 1z"/></symbol><symbol id="Smartphone" viewBox="-36.2 -50.2 72.5 100.5"><path class="st3" d="m1-49-31 11c-4 1-6 5-5 9l26 74c1 3 5 5 9 4l31-11c3-1 5-5 4-9L10-44c-2-4-6-6-9-5z"/><circle class="st3" cx="-13" cy="-37.8" r="2.6"/><path class="st3" d="m8-38-38 13 23 65 37-13zm2 78 7-2M7 41l1-1"/><path class="st4" d="M1 14-4 3l4-1-6-11L7 3 3 4l7 9z"/></symbol><symbol id="Smiles" viewBox="-19.7 -19.1 36.7 39.7"><path d="m-20-19 3 5 1 5a46 46 0 0 1 1 10l-1 9-4 10h3c2-2 3-6 4-9l2-10-2-9-3-11h-4zm14 0 3 5 1 5A58 58 0 0 1-1 1l-1 9c0 3-2 6-4 10h4l3-9L3 1 2-8l-4-11h-4zm15 0 2 5 1 5a46 46 0 0 1 1 10l-1 9c0 3-2 6-4 10h4l3-9a33 33 0 0 0 1-20l-4-10H9z"/></symbol><symbol id="Star" viewBox="-20.9 -21.8 41.7 43.6"><path id="path2006_00000134210893180707524810000011518993814293868471_" class="st1" d="M4 20 6 6l13-6L6-5 5-20-5-9l-14-4 8 13-8 12 14-3 9 11z"/></symbol><symbol id="Triforce" viewBox="-23.6 -20.7 47.2 41.4"><path class="st2" d="M0 19-9 3h19zM13-3 3-19h19zm-26 0-9-16h19z"/></symbol><use xlink:href="#Dot_Larger" width="10" height="10" x="-5" y="-5" transform="matrix(1 0 0 -1 689 594)" overflow="visible"/><use xlink:href="#Dot" width="5.8" height="5.8" x="-2.9" y="-2.9" transform="matrix(1 0 0 -1 700 536)" overflow="visible"/><use xlink:href="#Star" width="41.7" height="43.6" x="-20.9" y="-21.8" transform="matrix(1 0 0 -1 625 602)" overflow="visible"/><use xlink:href="#Moon" width="34.2" height="39.1" x="-17.1" y="-19.6" transform="matrix(1 0 0 -1 745 493)" overflow="visible"/><use xlink:href="#Circle_Larger" width="24.8" height="24.8" x="-12.4" y="-12.4" transform="matrix(1 0 0 -1 685 354)" overflow="visible"/><use xlink:href="#Circle_Smaller" width="17.9" height="17.9" x="-9" y="-9" transform="matrix(1 0 0 -1 601 339)" overflow="visible"/><use xlink:href="#Smartphone" width="72.5" height="100.5" x="-36.2" y="-50.2" transform="matrix(1 0 0 -1 1043 645)" overflow="visible"/><use xlink:href="#Lightning" width="25.9" height="48.2" x="-12.9" y="-24.1" transform="matrix(1 0 0 -1 607 430)" overflow="visible"/><use xlink:href="#_x34_chan" width="47.1" height="48.3" x="-23.5" y="-24.1" transform="scale(.99998 -.99998) rotate(3 12341 11220)" overflow="visible"/><use xlink:href="#Jewish_Star" width="51.4" height="51.5" x="-25.7" y="-25.8" transform="matrix(1 0 0 -1 625 932)" overflow="visible"/><use xlink:href="#Arrow_Head" width="26.7" height="25.2" x="-13.3" y="-12.6" transform="matrix(1 0 0 -1 826 497)" overflow="visible"/><use xlink:href="#Hash" width="39.9" height="36.8" x="-17.2" y="-20.9" transform="scale(1 -1) rotate(-10 -1150 -5513)" overflow="visible"/><use xlink:href="#Smiles" width="36.7" height="39.7" x="-19.7" y="-19.1" transform="scale(1 -1) rotate(16 2001 2906)" overflow="visible"/><use xlink:href="#At" width="38.7" height="37.3" x="-18" y="-17.6" transform="matrix(1 0 0 -1 512 382)" overflow="visible"/><use xlink:href="#Triforce" width="47.2" height="41.4" x="-23.6" y="-20.7" transform="scale(1 -1) rotate(12 5301 4230)" overflow="visible"/><use xlink:href="#Star" width="41.7" height="43.6" x="-20.9" y="-21.8" transform="scale(1 -1) rotate(39 716 1056)" overflow="visible"/><use xlink:href="#Dot_Larger" width="10" height="10" x="-5" y="-5" transform="matrix(1 0 0 -1 882 318)" overflow="visible"/><use xlink:href="#Dot_Larger" width="10" height="10" x="-5" y="-5" transform="matrix(1 0 0 -1 995 165)" overflow="visible"/><use xlink:href="#Dot_Larger" width="10" height="10" x="-5" y="-5" transform="matrix(1 0 0 -1 756 214)" overflow="visible"/><use xlink:href="#Dot" width="5.8" height="5.8" x="-2.9" y="-2.9" transform="matrix(1 0 0 -1 803 264)" overflow="visible"/><use xlink:href="#Dot" width="5.8" height="5.8" x="-2.9" y="-2.9" transform="matrix(1 0 0 -1 771 252)" overflow="visible"/><use xlink:href="#Dot" width="5.8" height="5.8" x="-2.9" y="-2.9" transform="matrix(1 0 0 -1 900 249)" overflow="visible"/><use xlink:href="#Dot" width="5.8" height="5.8" x="-2.9" y="-2.9" transform="matrix(1 0 0 -1 857 283)" overflow="visible"/><use xlink:href="#Dot" width="5.8" height="5.8" x="-2.9" y="-2.9" transform="matrix(1 0 0 -1 855 348)" overflow="visible"/><use xlink:href="#Dot" width="5.8" height="5.8" x="-2.9" y="-2.9" transform="matrix(1 0 0 -1 935 333)" overflow="visible"/><use xlink:href="#Dot" width="5.8" height="5.8" x="-2.9" y="-2.9" transform="matrix(1 0 0 -1 915 353)" overflow="visible"/><use xlink:href="#Dot" width="5.8" height="5.8" x="-2.9" y="-2.9" transform="matrix(1 0 0 -1 954 223)" overflow="visible"/><use xlink:href="#Dot" width="5.8" height="5.8" x="-2.9" y="-2.9" transform="matrix(1 0 0 -1 953 180)" overflow="visible"/><use xlink:href="#Dot" width="5.8" height="5.8" x="-2.9" y="-2.9" transform="matrix(1 0 0 -1 813 164)" overflow="visible"/><use xlink:href="#Dot" width="5.8" height="5.8" x="-2.9" y="-2.9" transform="matrix(1 0 0 -1 778 179)" overflow="visible"/><use xlink:href="#Dot" width="5.8" height="5.8" x="-2.9" y="-2.9" transform="matrix(1 0 0 -1 730 289)" overflow="visible"/><use xlink:href="#Dot" width="5.8" height="5.8" x="-2.9" y="-2.9" transform="matrix(1 0 0 -1 691 313)" overflow="visible"/><use xlink:href="#Dot_Larger" width="10" height="10" x="-5" y="-5" transform="matrix(1 0 0 -1 733 339)" overflow="visible"/><use xlink:href="#Dot" width="5.8" height="5.8" x="-2.9" y="-2.9" transform="matrix(1 0 0 -1 1023 145)" overflow="visible"/><use xlink:href="#Dot" width="5.8" height="5.8" x="-2.9" y="-2.9" transform="matrix(1 0 0 -1 1029 181)" overflow="visible"/><use xlink:href="#Dot" width="5.8" height="5.8" x="-2.9" y="-2.9" transform="matrix(1 0 0 -1 990 219)" overflow="visible"/><use xlink:href="#Dot" width="5.8" height="5.8" x="-2.9" y="-2.9" transform="matrix(1 0 0 -1 1085 118)" overflow="visible"/><use xlink:href="#Dot" width="5.8" height="5.8" x="-2.9" y="-2.9" transform="matrix(1 0 0 -1 1045 96)" overflow="visible"/><use xlink:href="#Dot_Larger" width="10" height="10" x="-5" y="-5" transform="matrix(1 0 0 -1 1097 91)" overflow="visible"/><use xlink:href="#Dot" width="5.8" height="5.8" x="-2.9" y="-2.9" transform="matrix(1 0 0 -1 1131 61)" overflow="visible"/><use xlink:href="#Dot" width="5.8" height="5.8" x="-2.9" y="-2.9" transform="matrix(1 0 0 -1 1176 75)" overflow="visible"/><use xlink:href="#Dot" width="5.8" height="5.8" x="-2.9" y="-2.9" transform="matrix(1 0 0 -1 1006 55)" overflow="visible"/><use xlink:href="#Dot" width="5.8" height="5.8" x="-2.9" y="-2.9" transform="matrix(1 0 0 -1 1186 173)" overflow="visible"/><use xlink:href="#Dot" width="5.8" height="5.8" x="-2.9" y="-2.9" transform="matrix(1 0 0 -1 917 120)" overflow="visible"/><use xlink:href="#Dot" width="5.8" height="5.8" x="-2.9" y="-2.9" transform="matrix(1 0 0 -1 968 45)" overflow="visible"/><use xlink:href="#Dot" width="5.8" height="5.8" x="-2.9" y="-2.9" transform="matrix(1 0 0 -1 898 82)" overflow="visible"/><use xlink:href="#Dot" width="5.8" height="5.8" x="-2.9" y="-2.9" transform="matrix(1 0 0 -1 860 67)" overflow="visible"/><use xlink:href="#Dot" width="5.8" height="5.8" x="-2.9" y="-2.9" transform="matrix(1 0 0 -1 851 155)" overflow="visible"/><use xlink:href="#Dot" width="5.8" height="5.8" x="-2.9" y="-2.9" transform="matrix(1 0 0 -1 831 97)" overflow="visible"/><use xlink:href="#Dot" width="5.8" height="5.8" x="-2.9" y="-2.9" transform="matrix(1 0 0 -1 768 69)" overflow="visible"/><use xlink:href="#Dot_Larger" width="10" height="10" x="-5" y="-5" transform="matrix(1 0 0 -1 867 105)" overflow="visible"/><use xlink:href="#At" width="38.7" height="37.3" x="-18" y="-17.6" transform="scale(1 -1) rotate(-64 297 -682)" overflow="visible"/><use xlink:href="#Jewish_Star" width="51.4" height="51.5" x="-25.7" y="-25.8" transform="scale(1 -1) rotate(-9 -214 -6507)" overflow="visible"/><use xlink:href="#Lightning" width="25.9" height="48.2" x="-12.9" y="-24.1" transform="scale(1 -1) rotate(18 1023 2737)" overflow="visible"/><use xlink:href="#At" width="38.7" height="37.3" x="-18" y="-17.6" transform="scale(1 -1) rotate(-51 473 -1365)" overflow="visible"/><use xlink:href="#Dot" width="5.8" height="5.8" x="-2.9" y="-2.9" transform="matrix(1 0 0 -1 1271 162)" overflow="visible"/><use xlink:href="#Dot" width="5.8" height="5.8" x="-2.9" y="-2.9" transform="matrix(1 0 0 -1 1271 94)" overflow="visible"/><use xlink:href="#Dot" width="5.8" height="5.8" x="-2.9" y="-2.9" transform="matrix(1 0 0 -1 1264 61)" overflow="visible"/><use xlink:href="#Dot" width="5.8" height="5.8" x="-2.9" y="-2.9" transform="matrix(1 0 0 -1 1233 57)" overflow="visible"/><use xlink:href="#Dot" width="5.8" height="5.8" x="-2.9" y="-2.9" transform="matrix(1 0 0 -1 1185 104)" overflow="visible"/><use xlink:href="#Dot_Larger" width="10" height="10" x="-5" y="-5" transform="matrix(1 0 0 -1 1221 186)" overflow="visible"/><use xlink:href="#Dot" width="5.8" height="5.8" x="-2.9" y="-2.9" transform="matrix(1 0 0 -1 1203 213)" overflow="visible"/><use xlink:href="#Dot" width="5.8" height="5.8" x="-2.9" y="-2.9" transform="matrix(1 0 0 -1 1231 232)" overflow="visible"/><use xlink:href="#Circle_Larger" width="24.8" height="24.8" x="-12.4" y="-12.4" transform="matrix(1 0 0 -1 1149 126)" overflow="visible"/><use xlink:href="#Dot" width="5.8" height="5.8" x="-2.9" y="-2.9" transform="matrix(1 0 0 -1 1235 17)" overflow="visible"/><use xlink:href="#Dot" width="5.8" height="5.8" x="-2.9" y="-2.9" transform="matrix(1 0 0 -1 1126 17)" overflow="visible"/><use xlink:href="#Dot" width="5.8" height="5.8" x="-2.9" y="-2.9" transform="matrix(1 0 0 -1 1108 41)" overflow="visible"/><use xlink:href="#Dot" width="5.8" height="5.8" x="-2.9" y="-2.9" transform="matrix(1 0 0 -1 1006 9)" overflow="visible"/><use xlink:href="#Hash" width="39.9" height="36.8" x="-17.2" y="-20.9" transform="scale(1 -1) rotate(40 576 1424)" overflow="visible"/><use xlink:href="#Star" width="41.7" height="43.6" x="-20.9" y="-21.8" transform="scale(.99999 -.99999) rotate(-3 37 -19894)" overflow="visible"/><use xlink:href="#Arrow_Head" width="26.7" height="25.2" x="-13.3" y="-12.6" transform="scale(1 -1) rotate(-16 613 -4694)" overflow="visible"/><use xlink:href="#Lightning" width="25.9" height="48.2" x="-12.9" y="-24.1" transform="scale(1 -1) rotate(-25 -29 -2931)" overflow="visible"/><use xlink:href="#Dot" width="5.8" height="5.8" x="-2.9" y="-2.9" transform="matrix(1 0 0 -1 879 374)" overflow="visible"/><use xlink:href="#Dot_Larger" width="10" height="10" x="-5" y="-5" transform="matrix(1 0 0 -1 923 388)" overflow="visible"/><use xlink:href="#Dot" width="5.8" height="5.8" x="-2.9" y="-2.9" transform="matrix(1 0 0 -1 953 390)" overflow="visible"/><use xlink:href="#Dot" width="5.8" height="5.8" x="-2.9" y="-2.9" transform="matrix(1 0 0 -1 1013 418)" overflow="visible"/><use xlink:href="#Dot" width="5.8" height="5.8" x="-2.9" y="-2.9" transform="matrix(1 0 0 -1 976 424)" overflow="visible"/><use xlink:href="#Dot" width="5.8" height="5.8" x="-2.9" y="-2.9" transform="matrix(1 0 0 -1 965 457)" overflow="visible"/><use xlink:href="#Dot" width="5.8" height="5.8" x="-2.9" y="-2.9" transform="matrix(1 0 0 -1 938 456)" overflow="visible"/><use xlink:href="#Dot" width="5.8" height="5.8" x="-2.9" y="-2.9" transform="matrix(1 0 0 -1 812 429)" overflow="visible"/><use xlink:href="#Dot" width="5.8" height="5.8" x="-2.9" y="-2.9" transform="matrix(1 0 0 -1 787 453)" overflow="visible"/><use xlink:href="#Dot" width="5.8" height="5.8" x="-2.9" y="-2.9" transform="matrix(1 0 0 -1 882 503)" overflow="visible"/><use xlink:href="#Dot" width="5.8" height="5.8" x="-2.9" y="-2.9" transform="matrix(1 0 0 -1 1013 476)" overflow="visible"/><use xlink:href="#Dot_Larger" width="10" height="10" x="-5" y="-5" transform="matrix(1 0 0 -1 1050 447)" overflow="visible"/><use xlink:href="#Dot" width="5.8" height="5.8" x="-2.9" y="-2.9" transform="matrix(1 0 0 -1 1071 478)" overflow="visible"/><use xlink:href="#Dot" width="5.8" height="5.8" x="-2.9" y="-2.9" transform="matrix(1 0 0 -1 1059 516)" overflow="visible"/><use xlink:href="#Dot" width="5.8" height="5.8" x="-2.9" y="-2.9" transform="matrix(1 0 0 -1 1075 564)" overflow="visible"/><use xlink:href="#Dot" width="5.8" height="5.8" x="-2.9" y="-2.9" transform="matrix(1 0 0 -1 991 577)" overflow="visible"/><use xlink:href="#Dot" width="5.8" height="5.8" x="-2.9" y="-2.9" transform="matrix(1 0 0 -1 907 528)" overflow="visible"/><use xlink:href="#Dot_Larger" width="10" height="10" x="-5" y="-5" transform="matrix(1 0 0 -1 885 547)" overflow="visible"/><use xlink:href="#Dot" width="5.8" height="5.8" x="-2.9" y="-2.9" transform="matrix(1 0 0 -1 815 550)" overflow="visible"/><use xlink:href="#Dot" width="5.8" height="5.8" x="-2.9" y="-2.9" transform="matrix(1 0 0 -1 991 617)" overflow="visible"/><use xlink:href="#Dot" width="5.8" height="5.8" x="-2.9" y="-2.9" transform="matrix(1 0 0 -1 939 582)" overflow="visible"/><use xlink:href="#Dot" width="5.8" height="5.8" x="-2.9" y="-2.9" transform="matrix(1 0 0 -1 920 610)" overflow="visible"/><use xlink:href="#Circle_Smaller" width="17.9" height="17.9" x="-9" y="-9" transform="matrix(1 0 0 -1 948 633)" overflow="visible"/><use xlink:href="#Dot" width="5.8" height="5.8" x="-2.9" y="-2.9" transform="matrix(1 0 0 -1 988 719)" overflow="visible"/><use xlink:href="#Circle_Larger" width="24.8" height="24.8" x="-12.4" y="-12.4" transform="matrix(1 0 0 -1 1123 578)" overflow="visible"/><use xlink:href="#Dot" width="5.8" height="5.8" x="-2.9" y="-2.9" transform="matrix(1 0 0 -1 1166 591)" overflow="visible"/><use xlink:href="#Dot" width="5.8" height="5.8" x="-2.9" y="-2.9" transform="matrix(1 0 0 -1 1203 587)" overflow="visible"/><use xlink:href="#Dot" width="5.8" height="5.8" x="-2.9" y="-2.9" transform="matrix(1 0 0 -1 1227 561)" overflow="visible"/><use xlink:href="#Dot" width="5.8" height="5.8" x="-2.9" y="-2.9" transform="matrix(1 0 0 -1 1236 531)" overflow="visible"/><use xlink:href="#Dot" width="5.8" height="5.8" x="-2.9" y="-2.9" transform="matrix(1 0 0 -1 1260 519)" overflow="visible"/><use xlink:href="#Dot" width="5.8" height="5.8" x="-2.9" y="-2.9" transform="matrix(1 0 0 -1 1148 542)" overflow="visible"/><use xlink:href="#Dot" width="5.8" height="5.8" x="-2.9" y="-2.9" transform="matrix(1 0 0 -1 1210 642)" overflow="visible"/><use xlink:href="#Dot_Larger" width="10" height="10" x="-5" y="-5" transform="matrix(1 0 0 -1 1248 651)" overflow="visible"/><use xlink:href="#Dot" width="5.8" height="5.8" x="-2.9" y="-2.9" transform="matrix(1 0 0 -1 1233 684)" overflow="visible"/><use xlink:href="#Dot" width="5.8" height="5.8" x="-2.9" y="-2.9" transform="matrix(1 0 0 -1 1111 649)" overflow="visible"/><use xlink:href="#Dot" width="5.8" height="5.8" x="-2.9" y="-2.9" transform="matrix(1 0 0 -1 1105 691)" overflow="visible"/><use xlink:href="#Dot" width="5.8" height="5.8" x="-2.9" y="-2.9" transform="matrix(1 0 0 -1 962 728)" overflow="visible"/><use xlink:href="#Dot_Larger" width="10" height="10" x="-5" y="-5" transform="matrix(1 0 0 -1 1195 536)" overflow="visible"/><use xlink:href="#Dot" width="5.8" height="5.8" x="-2.9" y="-2.9" transform="matrix(1 0 0 -1 1171 511)" overflow="visible"/><use xlink:href="#Dot" width="5.8" height="5.8" x="-2.9" y="-2.9" transform="matrix(1 0 0 -1 1239 477)" overflow="visible"/><use xlink:href="#Dot" width="5.8" height="5.8" x="-2.9" y="-2.9" transform="matrix(1 0 0 -1 1267 449)" overflow="visible"/><use xlink:href="#Dot" width="5.8" height="5.8" x="-2.9" y="-2.9" transform="matrix(1 0 0 -1 1200 498)" overflow="visible"/><use xlink:href="#Dot_Larger" width="10" height="10" x="-5" y="-5" transform="matrix(1 0 0 -1 1213 463)" overflow="visible"/><use xlink:href="#Dot" width="5.8" height="5.8" x="-2.9" y="-2.9" transform="matrix(1 0 0 -1 1104 443)" overflow="visible"/><use xlink:href="#Circle_Smaller" width="17.9" height="17.9" x="-9" y="-9" transform="matrix(1 0 0 -1 1155 458)" overflow="visible"/><use xlink:href="#Triforce" width="47.2" height="41.4" x="-23.6" y="-20.7" transform="scale(.8378 -.8378) rotate(-6 -4963 -13001)" overflow="visible"/><use xlink:href="#_x34_chan" width="47.1" height="48.3" x="-23.5" y="-24.1" transform="scale(1 -1) rotate(-33 -365 -2475)" overflow="visible"/><use xlink:href="#Arrow_Head" width="26.7" height="25.2" x="-13.3" y="-12.6" transform="scale(1 -1) rotate(15 3044 4117)" overflow="visible"/><use xlink:href="#Star" width="41.7" height="43.6" x="-20.9" y="-21.8" transform="matrix(.9983 .05792 .05792 -.9983 1171 719)" overflow="visible"/><use xlink:href="#At" width="38.7" height="37.3" x="-18" y="-17.6" transform="scale(1 -1) rotate(7 7029 10447)" overflow="visible"/><use xlink:href="#Dot" width="5.8" height="5.8" x="-2.9" y="-2.9" transform="matrix(1 0 0 -1 1206 755)" overflow="visible"/><use xlink:href="#Smartphone" width="72.5" height="100.5" x="-36.2" y="-50.2" transform="scale(1 -1) rotate(17 421 3058)" overflow="visible"/><use xlink:href="#Dot" width="5.8" height="5.8" x="-2.9" y="-2.9" transform="matrix(1 0 0 -1 870 34)" overflow="visible"/><use xlink:href="#Dot" width="5.8" height="5.8" x="-2.9" y="-2.9" transform="matrix(1 0 0 -1 743 11)" overflow="visible"/><use xlink:href="#Dot" width="5.8" height="5.8" x="-2.9" y="-2.9" transform="matrix(1 0 0 -1 700 16)" overflow="visible"/><use xlink:href="#Dot" width="5.8" height="5.8" x="-2.9" y="-2.9" transform="matrix(1 0 0 -1 729 117)" overflow="visible"/><use xlink:href="#Arrow_Head" width="26.7" height="25.2" x="-13.3" y="-12.6" transform="scale(1 -1) rotate(27 494 1446)" overflow="visible"/><use xlink:href="#Smiles" width="36.7" height="39.7" x="-19.7" y="-19.1" transform="scale(1 -1) rotate(-6 154 -7588)" overflow="visible"/><use xlink:href="#Dot_Larger" width="10" height="10" x="-5" y="-5" transform="matrix(1 0 0 -1 635 66)" overflow="visible"/><use xlink:href="#Dot" width="5.8" height="5.8" x="-2.9" y="-2.9" transform="matrix(1 0 0 -1 654 41)" overflow="visible"/><use xlink:href="#Dot" width="5.8" height="5.8" x="-2.9" y="-2.9" transform="matrix(1 0 0 -1 663 78)" overflow="visible"/><use xlink:href="#Star" width="41.7" height="43.6" x="-20.9" y="-21.8" transform="scale(1 -1) rotate(-13 179 -2669)" overflow="visible"/><use xlink:href="#Dot" width="5.8" height="5.8" x="-2.9" y="-2.9" transform="matrix(1 0 0 -1 547 29)" overflow="visible"/><use xlink:href="#Dot" width="5.8" height="5.8" x="-2.9" y="-2.9" transform="matrix(1 0 0 -1 570 83)" overflow="visible"/><use xlink:href="#Dot" width="5.8" height="5.8" x="-2.9" y="-2.9" transform="matrix(1 0 0 -1 535 71)" overflow="visible"/><use xlink:href="#Dot" width="5.8" height="5.8" x="-2.9" y="-2.9" transform="matrix(1 0 0 -1 498 137)" overflow="visible"/><use xlink:href="#Dot" width="5.8" height="5.8" x="-2.9" y="-2.9" transform="matrix(1 0 0 -1 447 170)" overflow="visible"/><use xlink:href="#Dot" width="5.8" height="5.8" x="-2.9" y="-2.9" transform="matrix(1 0 0 -1 449 130)" overflow="visible"/><use xlink:href="#Dot" width="5.8" height="5.8" x="-2.9" y="-2.9" transform="matrix(1 0 0 -1 415 147)" overflow="visible"/><use xlink:href="#Dot" width="5.8" height="5.8" x="-2.9" y="-2.9" transform="matrix(1 0 0 -1 440 75)" overflow="visible"/><use xlink:href="#Dot" width="5.8" height="5.8" x="-2.9" y="-2.9" transform="matrix(1 0 0 -1 413 54)" overflow="visible"/><use xlink:href="#Dot" width="5.8" height="5.8" x="-2.9" y="-2.9" transform="matrix(1 0 0 -1 432 20)" overflow="visible"/><use xlink:href="#Dot_Larger" width="10" height="10" x="-5" y="-5" transform="matrix(1 0 0 -1 471 20)" overflow="visible"/><use xlink:href="#Dot" width="5.8" height="5.8" x="-2.9" y="-2.9" transform="matrix(1 0 0 -1 400 8)" overflow="visible"/><use xlink:href="#Dot_Larger" width="10" height="10" x="-5" y="-5" transform="matrix(1 0 0 -1 293 8)" overflow="visible"/><use xlink:href="#Dot" width="5.8" height="5.8" x="-2.9" y="-2.9" transform="matrix(1 0 0 -1 385 74)" overflow="visible"/><use xlink:href="#Dot" width="5.8" height="5.8" x="-2.9" y="-2.9" transform="matrix(1 0 0 -1 345 71)" overflow="visible"/><use xlink:href="#Dot" width="5.8" height="5.8" x="-2.9" y="-2.9" transform="matrix(1 0 0 -1 256 30)" overflow="visible"/><use xlink:href="#Dot" width="5.8" height="5.8" x="-2.9" y="-2.9" transform="matrix(1 0 0 -1 229 39)" overflow="visible"/><use xlink:href="#Dot" width="5.8" height="5.8" x="-2.9" y="-2.9" transform="matrix(1 0 0 -1 231 71)" overflow="visible"/><use xlink:href="#Dot" width="5.8" height="5.8" x="-2.9" y="-2.9" transform="matrix(1 0 0 -1 221 129)" overflow="visible"/><use xlink:href="#Dot" width="5.8" height="5.8" x="-2.9" y="-2.9" transform="matrix(1 0 0 -1 313 124)" overflow="visible"/><use xlink:href="#Dot" width="5.8" height="5.8" x="-2.9" y="-2.9" transform="matrix(1 0 0 -1 313 85)" overflow="visible"/><use xlink:href="#Dot_Larger" width="10" height="10" x="-5" y="-5" transform="matrix(1 0 0 -1 281 57)" overflow="visible"/><use xlink:href="#Dot_Larger" width="10" height="10" x="-5" y="-5" transform="matrix(1 0 0 -1 179 108)" overflow="visible"/><use xlink:href="#Triforce" width="47.2" height="41.4" x="-23.6" y="-20.7" transform="scale(1 -1) rotate(2 786 10127)" overflow="visible"/><use xlink:href="#Moon" width="34.2" height="39.1" x="-17.1" y="-19.6" transform="scale(1 -1) rotate(-36 116 -795)" overflow="visible"/><use xlink:href="#Smiles" width="36.7" height="39.7" x="-19.7" y="-19.1" transform="scale(1 -1) rotate(13 770 1530)" overflow="visible"/><use xlink:href="#Circle_Larger" width="24.8" height="24.8" x="-12.4" y="-12.4" transform="matrix(1 0 0 -1 270 100)" overflow="visible"/><use xlink:href="#Circle_Smaller" width="17.9" height="17.9" x="-9" y="-9" transform="matrix(1 0 0 -1 416 227)" overflow="visible"/><use xlink:href="#Dot" width="5.8" height="5.8" x="-2.9" y="-2.9" transform="matrix(1 0 0 -1 424 187)" overflow="visible"/><use xlink:href="#Dot" width="5.8" height="5.8" x="-2.9" y="-2.9" transform="matrix(1 0 0 -1 469 202)" overflow="visible"/><use xlink:href="#Dot_Larger" width="10" height="10" x="-5" y="-5" transform="matrix(1 0 0 -1 485 236)" overflow="visible"/><use xlink:href="#Dot" width="5.8" height="5.8" x="-2.9" y="-2.9" transform="matrix(1 0 0 -1 319 181)" overflow="visible"/><use xlink:href="#Dot" width="5.8" height="5.8" x="-2.9" y="-2.9" transform="matrix(1 0 0 -1 371 191)" overflow="visible"/><use xlink:href="#Dot" width="5.8" height="5.8" x="-2.9" y="-2.9" transform="matrix(1 0 0 -1 449 242)" overflow="visible"/><use xlink:href="#Dot" width="5.8" height="5.8" x="-2.9" y="-2.9" transform="matrix(1 0 0 -1 548 281)" overflow="visible"/><use xlink:href="#Dot" width="5.8" height="5.8" x="-2.9" y="-2.9" transform="matrix(1 0 0 -1 607 287)" overflow="visible"/><use xlink:href="#Dot" width="5.8" height="5.8" x="-2.9" y="-2.9" transform="matrix(1 0 0 -1 555 312)" overflow="visible"/><use xlink:href="#Dot" width="5.8" height="5.8" x="-2.9" y="-2.9" transform="matrix(1 0 0 -1 523 337)" overflow="visible"/><use xlink:href="#Dot" width="5.8" height="5.8" x="-2.9" y="-2.9" transform="matrix(1 0 0 -1 456 340)" overflow="visible"/><use xlink:href="#Dot" width="5.8" height="5.8" x="-2.9" y="-2.9" transform="matrix(1 0 0 -1 432 366)" overflow="visible"/><use xlink:href="#Dot" width="5.8" height="5.8" x="-2.9" y="-2.9" transform="matrix(1 0 0 -1 426 301)" overflow="visible"/><use xlink:href="#Dot_Larger" width="10" height="10" x="-5" y="-5" transform="matrix(1 0 0 -1 403 280)" overflow="visible"/><use xlink:href="#Dot" width="5.8" height="5.8" x="-2.9" y="-2.9" transform="matrix(1 0 0 -1 352 260)" overflow="visible"/><use xlink:href="#Dot" width="5.8" height="5.8" x="-2.9" y="-2.9" transform="matrix(1 0 0 -1 361 299)" overflow="visible"/><use xlink:href="#Dot" width="5.8" height="5.8" x="-2.9" y="-2.9" transform="matrix(1 0 0 -1 322 314)" overflow="visible"/><use xlink:href="#Arrow_Head" width="26.7" height="25.2" x="-13.3" y="-12.6" transform="scale(1 -1) rotate(-9 -2019 -2795)" overflow="visible"/><use xlink:href="#Jewish_Star" width="51.4" height="51.5" x="-25.7" y="-25.8" transform="scale(1 -1) rotate(7 2480 3562)" overflow="visible"/><use xlink:href="#Dot" width="5.8" height="5.8" x="-2.9" y="-2.9" transform="matrix(1 0 0 -1 659 293)" overflow="visible"/><use xlink:href="#Dot" width="5.8" height="5.8" x="-2.9" y="-2.9" transform="matrix(1 0 0 -1 637 378)" overflow="visible"/><use xlink:href="#Dot" width="5.8" height="5.8" x="-2.9" y="-2.9" transform="matrix(1 0 0 -1 562 374)" overflow="visible"/><use xlink:href="#Dot" width="5.8" height="5.8" x="-2.9" y="-2.9" transform="matrix(1 0 0 -1 462 392)" overflow="visible"/><use xlink:href="#Dot" width="5.8" height="5.8" x="-2.9" y="-2.9" transform="matrix(1 0 0 -1 433 430)" overflow="visible"/><use xlink:href="#Dot" width="5.8" height="5.8" x="-2.9" y="-2.9" transform="matrix(1 0 0 -1 513 434)" overflow="visible"/><use xlink:href="#Dot_Larger" width="10" height="10" x="-5" y="-5" transform="matrix(1 0 0 -1 552 419)" overflow="visible"/><use xlink:href="#Dot" width="5.8" height="5.8" x="-2.9" y="-2.9" transform="matrix(1 0 0 -1 570 462)" overflow="visible"/><use xlink:href="#Dot" width="5.8" height="5.8" x="-2.9" y="-2.9" transform="matrix(1 0 0 -1 649 450)" overflow="visible"/><use xlink:href="#Dot" width="5.8" height="5.8" x="-2.9" y="-2.9" transform="matrix(1 0 0 -1 682 466)" overflow="visible"/><use xlink:href="#Dot" width="5.8" height="5.8" x="-2.9" y="-2.9" transform="matrix(1 0 0 -1 704 429)" overflow="visible"/><use xlink:href="#Dot" width="5.8" height="5.8" x="-2.9" y="-2.9" transform="matrix(1 0 0 -1 723 393)" overflow="visible"/><use xlink:href="#Dot_Larger" width="10" height="10" x="-5" y="-5" transform="matrix(1 0 0 -1 761 420)" overflow="visible"/><use xlink:href="#Smartphone" width="72.5" height="100.5" x="-36.2" y="-50.2" transform="scale(1 -1) rotate(31 1043 1292)" overflow="visible"/><use xlink:href="#Jewish_Star" width="51.4" height="51.5" x="-25.7" y="-25.8" transform="scale(1 -1) rotate(-10 -2425 -5730)" overflow="visible"/><use xlink:href="#Dot" width="5.8" height="5.8" x="-2.9" y="-2.9" transform="matrix(1 0 0 -1 785 526)" overflow="visible"/><use xlink:href="#Dot" width="5.8" height="5.8" x="-2.9" y="-2.9" transform="matrix(1 0 0 -1 750 578)" overflow="visible"/><use xlink:href="#Dot" width="5.8" height="5.8" x="-2.9" y="-2.9" transform="matrix(1 0 0 -1 719 591)" overflow="visible"/><use xlink:href="#Dot" width="5.8" height="5.8" x="-2.9" y="-2.9" transform="matrix(1 0 0 -1 691 636)" overflow="visible"/><use xlink:href="#Hash" width="39.9" height="36.8" x="-17.2" y="-20.9" transform="scale(1 -1) rotate(13 2566 2620)" overflow="visible"/><use xlink:href="#Dot" width="5.8" height="5.8" x="-2.9" y="-2.9" transform="matrix(1 0 0 -1 589 510)" overflow="visible"/><use xlink:href="#Dot" width="5.8" height="5.8" x="-2.9" y="-2.9" transform="matrix(1 0 0 -1 555 497)" overflow="visible"/><use xlink:href="#Dot" width="5.8" height="5.8" x="-2.9" y="-2.9" transform="matrix(1 0 0 -1 569 556)" overflow="visible"/><use xlink:href="#Dot" width="5.8" height="5.8" x="-2.9" y="-2.9" transform="matrix(1 0 0 -1 550 584)" overflow="visible"/><use xlink:href="#Dot" width="5.8" height="5.8" x="-2.9" y="-2.9" transform="matrix(1 0 0 -1 608 663)" overflow="visible"/><use xlink:href="#Dot" width="5.8" height="5.8" x="-2.9" y="-2.9" transform="matrix(1 0 0 -1 547 662)" overflow="visible"/><use xlink:href="#Dot_Larger" width="10" height="10" x="-5" y="-5" transform="matrix(1 0 0 -1 377 606)" overflow="visible"/><use xlink:href="#Dot_Larger" width="10" height="10" x="-5" y="-5" transform="matrix(1 0 0 -1 399 673)" overflow="visible"/><use xlink:href="#Dot" width="5.8" height="5.8" x="-2.9" y="-2.9" transform="matrix(1 0 0 -1 429 644)" overflow="visible"/><use xlink:href="#Dot" width="5.8" height="5.8" x="-2.9" y="-2.9" transform="matrix(1 0 0 -1 566 755)" overflow="visible"/><use xlink:href="#Dot" width="5.8" height="5.8" x="-2.9" y="-2.9" transform="matrix(1 0 0 -1 662 776)" overflow="visible"/><use xlink:href="#Dot_Larger" width="10" height="10" x="-5" y="-5" transform="matrix(1 0 0 -1 646 806)" overflow="visible"/><use xlink:href="#Dot" width="5.8" height="5.8" x="-2.9" y="-2.9" transform="matrix(1 0 0 -1 525 767)" overflow="visible"/><use xlink:href="#Dot" width="5.8" height="5.8" x="-2.9" y="-2.9" transform="matrix(1 0 0 -1 455 730)" overflow="visible"/><use xlink:href="#Dot_Larger" width="10" height="10" x="-5" y="-5" transform="matrix(1 0 0 -1 395 744)" overflow="visible"/><use xlink:href="#Dot" width="5.8" height="5.8" x="-2.9" y="-2.9" transform="matrix(1 0 0 -1 413 773)" overflow="visible"/><use xlink:href="#Dot" width="5.8" height="5.8" x="-2.9" y="-2.9" transform="matrix(1 0 0 -1 357 749)" overflow="visible"/><use xlink:href="#Dot" width="5.8" height="5.8" x="-2.9" y="-2.9" transform="matrix(1 0 0 -1 335 718)" overflow="visible"/><use xlink:href="#Moon" width="34.2" height="39.1" x="-17.1" y="-19.6" transform="scale(1 -1) rotate(-27 -1230 -1055)" overflow="visible"/><use xlink:href="#Hash" width="39.9" height="36.8" x="-17.2" y="-20.9" transform="scale(1 -1) rotate(-20 -2160 -1460)" overflow="visible"/><use xlink:href="#Moon" width="34.2" height="39.1" x="-17.1" y="-19.6" transform="scale(1 -1) rotate(-66 -313 -853)" overflow="visible"/><use xlink:href="#Smiles" width="36.7" height="39.7" x="-19.7" y="-19.1" transform="scale(1 -1) rotate(-4 -10543 -8755)" overflow="visible"/><use xlink:href="#Circle_Larger" width="24.8" height="24.8" x="-12.4" y="-12.4" transform="matrix(1 0 0 -1 422 707)" overflow="visible"/><use xlink:href="#Dot" width="5.8" height="5.8" x="-2.9" y="-2.9" transform="matrix(1 0 0 -1 349 579)" overflow="visible"/><use xlink:href="#Dot" width="5.8" height="5.8" x="-2.9" y="-2.9" transform="matrix(1 0 0 -1 393 638)" overflow="visible"/><use xlink:href="#Dot" width="5.8" height="5.8" x="-2.9" y="-2.9" transform="matrix(1 0 0 -1 328 606)" overflow="visible"/><use xlink:href="#Dot" width="5.8" height="5.8" x="-2.9" y="-2.9" transform="matrix(1 0 0 -1 350 513)" overflow="visible"/><use xlink:href="#Dot" width="5.8" height="5.8" x="-2.9" y="-2.9" transform="matrix(1 0 0 -1 276 591)" overflow="visible"/><use xlink:href="#Dot" width="5.8" height="5.8" x="-2.9" y="-2.9" transform="matrix(1 0 0 -1 244 614)" overflow="visible"/><use xlink:href="#Dot" width="5.8" height="5.8" x="-2.9" y="-2.9" transform="matrix(1 0 0 -1 289 634)" overflow="visible"/><use xlink:href="#Dot" width="5.8" height="5.8" x="-2.9" y="-2.9" transform="matrix(1 0 0 -1 253 645)" overflow="visible"/><use xlink:href="#Dot" width="5.8" height="5.8" x="-2.9" y="-2.9" transform="matrix(1 0 0 -1 284 697)" overflow="visible"/><use xlink:href="#Dot" width="5.8" height="5.8" x="-2.9" y="-2.9" transform="matrix(1 0 0 -1 254 722)" overflow="visible"/><use xlink:href="#Dot" width="5.8" height="5.8" x="-2.9" y="-2.9" transform="matrix(1 0 0 -1 225 696)" overflow="visible"/><use xlink:href="#Dot_Larger" width="10" height="10" x="-5" y="-5" transform="matrix(1 0 0 -1 208 636)" overflow="visible"/><use xlink:href="#Dot" width="5.8" height="5.8" x="-2.9" y="-2.9" transform="matrix(1 0 0 -1 187 605)" overflow="visible"/><use xlink:href="#Dot" width="5.8" height="5.8" x="-2.9" y="-2.9" transform="matrix(1 0 0 -1 165 548)" overflow="visible"/><use xlink:href="#Dot" width="5.8" height="5.8" x="-2.9" y="-2.9" transform="matrix(1 0 0 -1 314 483)" overflow="visible"/><use xlink:href="#Dot" width="5.8" height="5.8" x="-2.9" y="-2.9" transform="matrix(1 0 0 -1 265 495)" overflow="visible"/><use xlink:href="#Dot" width="5.8" height="5.8" x="-2.9" y="-2.9" transform="matrix(1 0 0 -1 255 530)" overflow="visible"/><use xlink:href="#Dot" width="5.8" height="5.8" x="-2.9" y="-2.9" transform="matrix(1 0 0 -1 226 511)" overflow="visible"/><use xlink:href="#Dot" width="5.8" height="5.8" x="-2.9" y="-2.9" transform="matrix(1 0 0 -1 135 537)" overflow="visible"/><use xlink:href="#Dot" width="5.8" height="5.8" x="-2.9" y="-2.9" transform="matrix(1 0 0 -1 144 480)" overflow="visible"/><use xlink:href="#Dot" width="5.8" height="5.8" x="-2.9" y="-2.9" transform="matrix(1 0 0 -1 128 462)" overflow="visible"/><use xlink:href="#Dot_Larger" width="10" height="10" x="-5" y="-5" transform="matrix(1 0 0 -1 114 557)" overflow="visible"/><use xlink:href="#Dot" width="5.8" height="5.8" x="-2.9" y="-2.9" transform="matrix(1 0 0 -1 292 437)" overflow="visible"/><use xlink:href="#Dot" width="5.8" height="5.8" x="-2.9" y="-2.9" transform="matrix(1 0 0 -1 369 384)" overflow="visible"/><use xlink:href="#Dot" width="5.8" height="5.8" x="-2.9" y="-2.9" transform="matrix(1 0 0 -1 384 420)" overflow="visible"/><use xlink:href="#Dot" width="5.8" height="5.8" x="-2.9" y="-2.9" transform="matrix(1 0 0 -1 267 370)" overflow="visible"/><use xlink:href="#Dot" width="5.8" height="5.8" x="-2.9" y="-2.9" transform="matrix(1 0 0 -1 212 383)" overflow="visible"/><use xlink:href="#Dot_Larger" width="10" height="10" x="-5" y="-5" transform="matrix(1 0 0 -1 257 405)" overflow="visible"/><use xlink:href="#Circle_Larger" width="24.8" height="24.8" x="-12.4" y="-12.4" transform="matrix(1 0 0 -1 238 453)" overflow="visible"/><use xlink:href="#Dot_Larger" width="10" height="10" x="-5" y="-5" transform="matrix(1 0 0 -1 413 403)" overflow="visible"/><use xlink:href="#Dot" width="5.8" height="5.8" x="-2.9" y="-2.9" transform="matrix(1 0 0 -1 353 454)" overflow="visible"/><use xlink:href="#Lightning" width="25.9" height="48.2" x="-12.9" y="-24.1" transform="scale(1 -1) rotate(7 3725 2653)" overflow="visible"/><use xlink:href="#_x34_chan" width="47.1" height="48.3" x="-23.5" y="-24.1" transform="scale(1 -1) rotate(22 1524 510)" overflow="visible"/><use xlink:href="#Hash" width="39.9" height="36.8" x="-17.2" y="-20.9" transform="scale(1 -1) rotate(63 569 -112)" overflow="visible"/><use xlink:href="#Arrow_Head" width="26.7" height="25.2" x="-13.3" y="-12.6" transform="scale(1 -1) rotate(22 1374 234)" overflow="visible"/><use xlink:href="#Smiles" width="36.7" height="39.7" x="-19.7" y="-19.1" transform="scale(1 -1) rotate(22 1344 -10)" overflow="visible"/><use xlink:href="#Dot" width="5.8" height="5.8" x="-2.9" y="-2.9" transform="matrix(1 0 0 -1 203 425)" overflow="visible"/><use xlink:href="#Dot" width="5.8" height="5.8" x="-2.9" y="-2.9" transform="matrix(1 0 0 -1 174 450)" overflow="visible"/><use xlink:href="#Dot" width="5.8" height="5.8" x="-2.9" y="-2.9" transform="matrix(1 0 0 -1 108 435)" overflow="visible"/><use xlink:href="#Dot_Larger" width="10" height="10" x="-5" y="-5" transform="matrix(1 0 0 -1 83 446)" overflow="visible"/><use xlink:href="#Dot" width="5.8" height="5.8" x="-2.9" y="-2.9" transform="matrix(1 0 0 -1 42 461)" overflow="visible"/><use xlink:href="#Dot" width="5.8" height="5.8" x="-2.9" y="-2.9" transform="matrix(1 0 0 -1 40 489)" overflow="visible"/><use xlink:href="#Dot_Larger" width="10" height="10" x="-5" y="-5" transform="matrix(1 0 0 -1 12 468)" overflow="visible"/><use xlink:href="#Circle_Smaller" width="17.9" height="17.9" x="-9" y="-9" transform="matrix(1 0 0 -1 19 511)" overflow="visible"/><use xlink:href="#Dot" width="5.8" height="5.8" x="-2.9" y="-2.9" transform="matrix(1 0 0 -1 57 540)" overflow="visible"/><use xlink:href="#Dot" width="5.8" height="5.8" x="-2.9" y="-2.9" transform="matrix(1 0 0 -1 53 578)" overflow="visible"/><use xlink:href="#_x34_chan" width="47.1" height="48.3" x="-23.5" y="-24.1" transform="scale(1 -1) rotate(-32 -1032 -280)" overflow="visible"/><use xlink:href="#Dot" width="5.8" height="5.8" x="-2.9" y="-2.9" transform="matrix(1 0 0 -1 6 635)" overflow="visible"/><use xlink:href="#Dot" width="5.8" height="5.8" x="-2.9" y="-2.9" transform="matrix(1 0 0 -1 138 322)" overflow="visible"/><use xlink:href="#Dot" width="5.8" height="5.8" x="-2.9" y="-2.9" transform="matrix(1 0 0 -1 107 345)" overflow="visible"/><use xlink:href="#Dot" width="5.8" height="5.8" x="-2.9" y="-2.9" transform="matrix(1 0 0 -1 96 379)" overflow="visible"/><use xlink:href="#Dot" width="5.8" height="5.8" x="-2.9" y="-2.9" transform="matrix(1 0 0 -1 61 349)" overflow="visible"/><use xlink:href="#Dot" width="5.8" height="5.8" x="-2.9" y="-2.9" transform="matrix(1 0 0 -1 28 328)" overflow="visible"/><use xlink:href="#Dot" width="5.8" height="5.8" x="-2.9" y="-2.9" transform="matrix(1 0 0 -1 5 372)" overflow="visible"/><use xlink:href="#At" width="38.7" height="37.3" x="-18" y="-17.6" transform="scale(1 -1) rotate(-57 -346 -247)" overflow="visible"/><use xlink:href="#Dot_Larger" width="10" height="10" x="-5" y="-5" transform="matrix(1 0 0 -1 27 282)" overflow="visible"/><use xlink:href="#Dot" width="5.8" height="5.8" x="-2.9" y="-2.9" transform="matrix(1 0 0 -1 102 247)" overflow="visible"/><use xlink:href="#Dot" width="5.8" height="5.8" x="-2.9" y="-2.9" transform="matrix(1 0 0 -1 122 209)" overflow="visible"/><use xlink:href="#Dot" width="5.8" height="5.8" x="-2.9" y="-2.9" transform="matrix(1 0 0 -1 67 236)" overflow="visible"/><use xlink:href="#Dot" width="5.8" height="5.8" x="-2.9" y="-2.9" transform="matrix(1 0 0 -1 71 159)" overflow="visible"/><use xlink:href="#Dot" width="5.8" height="5.8" x="-2.9" y="-2.9" transform="matrix(1 0 0 -1 136 122)" overflow="visible"/><use xlink:href="#Dot" width="5.8" height="5.8" x="-2.9" y="-2.9" transform="matrix(1 0 0 -1 135 90)" overflow="visible"/><use xlink:href="#Dot_Larger" width="10" height="10" x="-5" y="-5" transform="matrix(1 0 0 -1 17 130)" overflow="visible"/><use xlink:href="#Dot" width="5.8" height="5.8" x="-2.9" y="-2.9" transform="matrix(1 0 0 -1 41 169)" overflow="visible"/><use xlink:href="#Hash" width="39.9" height="36.8" x="-17.2" y="-20.9" transform="scale(1 -1) rotate(-41 -270 -130)" overflow="visible"/><use xlink:href="#Dot" width="5.8" height="5.8" x="-2.9" y="-2.9" transform="matrix(1 0 0 -1 52 13)" overflow="visible"/><use xlink:href="#Dot" width="5.8" height="5.8" x="-2.9" y="-2.9" transform="matrix(1 0 0 -1 73 40)" overflow="visible"/><use xlink:href="#Dot" width="5.8" height="5.8" x="-2.9" y="-2.9" transform="matrix(1 0 0 -1 16 43)" overflow="visible"/><use xlink:href="#Arrow_Head" width="26.7" height="25.2" x="-13.3" y="-12.6" transform="scale(1 -1) rotate(-13 -30 -13)" overflow="visible"/><use xlink:href="#_x34_chan" width="47.1" height="48.3" x="-23.5" y="-24.1" transform="scale(1 -1) rotate(-13 -393 -360)" overflow="visible"/><use xlink:href="#Smartphone" width="72.5" height="100.5" x="-36.2" y="-50.2" transform="scale(1 -1) rotate(-9 16 -1051)" overflow="visible"/><use xlink:href="#Moon" width="34.2" height="39.1" x="-17.1" y="-19.6" transform="scale(-1 1) rotate(48 -376 55)" overflow="visible"/><use xlink:href="#Star" width="41.7" height="43.6" x="-20.9" y="-21.8" transform="scale(1 -1) rotate(-24 -862 -555)" overflow="visible"/><use xlink:href="#Dot" width="5.8" height="5.8" x="-2.9" y="-2.9" transform="matrix(1 0 0 -1 223 777)" overflow="visible"/><use xlink:href="#Dot" width="5.8" height="5.8" x="-2.9" y="-2.9" transform="matrix(1 0 0 -1 146 814)" overflow="visible"/><use xlink:href="#Dot_Larger" width="10" height="10" x="-5" y="-5" transform="matrix(1 0 0 -1 205 815)" overflow="visible"/><use xlink:href="#Dot" width="5.8" height="5.8" x="-2.9" y="-2.9" transform="matrix(1 0 0 -1 183 868)" overflow="visible"/><use xlink:href="#Dot" width="5.8" height="5.8" x="-2.9" y="-2.9" transform="matrix(1 0 0 -1 46 786)" overflow="visible"/><use xlink:href="#Dot" width="5.8" height="5.8" x="-2.9" y="-2.9" transform="matrix(1 0 0 -1 16 800)" overflow="visible"/><use xlink:href="#Dot_Larger" width="10" height="10" x="-5" y="-5" transform="matrix(1 0 0 -1 55 834)" overflow="visible"/><use xlink:href="#Dot" width="5.8" height="5.8" x="-2.9" y="-2.9" transform="matrix(1 0 0 -1 26 853)" overflow="visible"/><use xlink:href="#Dot" width="5.8" height="5.8" x="-2.9" y="-2.9" transform="matrix(1 0 0 -1 73 874)" overflow="visible"/><use xlink:href="#Dot" width="5.8" height="5.8" x="-2.9" y="-2.9" transform="matrix(1 0 0 -1 272 927)" overflow="visible"/><use xlink:href="#Dot" width="5.8" height="5.8" x="-2.9" y="-2.9" transform="matrix(1 0 0 -1 221 916)" overflow="visible"/><use xlink:href="#Dot" width="5.8" height="5.8" x="-2.9" y="-2.9" transform="matrix(1 0 0 -1 197 962)" overflow="visible"/><use xlink:href="#Dot" width="5.8" height="5.8" x="-2.9" y="-2.9" transform="matrix(1 0 0 -1 108 913)" overflow="visible"/><use xlink:href="#Dot" width="5.8" height="5.8" x="-2.9" y="-2.9" transform="matrix(1 0 0 -1 16 973)" overflow="visible"/><use xlink:href="#Dot_Larger" width="10" height="10" x="-5" y="-5" transform="matrix(1 0 0 -1 304 883)" overflow="visible"/><use xlink:href="#Dot_Larger" width="10" height="10" x="-5" y="-5" transform="matrix(1 0 0 -1 166 915)" overflow="visible"/><use xlink:href="#Circle_Smaller" width="17.9" height="17.9" x="-9" y="-9" transform="matrix(1 0 0 -1 102 829)" overflow="visible"/><use xlink:href="#Circle_Larger" width="24.8" height="24.8" x="-12.4" y="-12.4" transform="matrix(1 0 0 -1 129 868)" overflow="visible"/><use xlink:href="#Hash" width="39.9" height="36.8" x="-17.2" y="-20.9" transform="scale(1 -1) rotate(-29 -1770 -592)" overflow="visible"/><use xlink:href="#Arrow_Head" width="26.7" height="25.2" x="-13.3" y="-12.6" transform="scale(1 -1) rotate(19 2917 -59)" overflow="visible"/><use xlink:href="#Smiles" width="36.7" height="39.7" x="-19.7" y="-19.1" transform="scale(1 -1) rotate(17 3017 413)" overflow="visible"/><use xlink:href="#Lightning" width="25.9" height="48.2" x="-12.9" y="-24.1" transform="scale(1 -1) rotate(-18 -2864 -482)" overflow="visible"/><use xlink:href="#Star" width="41.7" height="43.6" x="-20.9" y="-21.8" transform="scale(1 -1) rotate(39 1238 36)" overflow="visible"/><use xlink:href="#Dot" width="5.8" height="5.8" x="-2.9" y="-2.9" transform="matrix(1 0 0 -1 424 861)" overflow="visible"/><use xlink:href="#Dot" width="5.8" height="5.8" x="-2.9" y="-2.9" transform="matrix(1 0 0 -1 454 871)" overflow="visible"/><use xlink:href="#Dot" width="5.8" height="5.8" x="-2.9" y="-2.9" transform="matrix(1 0 0 -1 563 887)" overflow="visible"/><use xlink:href="#Dot" width="5.8" height="5.8" x="-2.9" y="-2.9" transform="matrix(1 0 0 -1 439 901)" overflow="visible"/><use xlink:href="#Dot" width="5.8" height="5.8" x="-2.9" y="-2.9" transform="matrix(1 0 0 -1 335 878)" overflow="visible"/><use xlink:href="#Dot" width="5.8" height="5.8" x="-2.9" y="-2.9" transform="matrix(1 0 0 -1 312 846)" overflow="visible"/><use xlink:href="#Dot" width="5.8" height="5.8" x="-2.9" y="-2.9" transform="matrix(1 0 0 -1 334 917)" overflow="visible"/><use xlink:href="#Dot" width="5.8" height="5.8" x="-2.9" y="-2.9" transform="matrix(1 0 0 -1 592 854)" overflow="visible"/><use xlink:href="#Dot" width="5.8" height="5.8" x="-2.9" y="-2.9" transform="matrix(1 0 0 -1 614 868)" overflow="visible"/><use xlink:href="#Dot" width="5.8" height="5.8" x="-2.9" y="-2.9" transform="matrix(1 0 0 -1 563 980)" overflow="visible"/><use xlink:href="#Dot" width="5.8" height="5.8" x="-2.9" y="-2.9" transform="matrix(1 0 0 -1 594 1005)" overflow="visible"/><use xlink:href="#Dot" width="5.8" height="5.8" x="-2.9" y="-2.9" transform="matrix(1 0 0 -1 570 936)" overflow="visible"/><use xlink:href="#Dot" width="5.8" height="5.8" x="-2.9" y="-2.9" transform="matrix(1 0 0 -1 492 1021)" overflow="visible"/><use xlink:href="#Dot" width="5.8" height="5.8" x="-2.9" y="-2.9" transform="matrix(1 0 0 -1 458 986)" overflow="visible"/><use xlink:href="#Dot" width="5.8" height="5.8" x="-2.9" y="-2.9" transform="matrix(1 0 0 -1 397 997)" overflow="visible"/><use xlink:href="#Dot_Larger" width="10" height="10" x="-5" y="-5" transform="matrix(1 0 0 -1 422 960)" overflow="visible"/><use xlink:href="#Lightning" width="25.9" height="48.2" x="-12.9" y="-24.1" transform="scale(1 -1) rotate(19 2880 657)" overflow="visible"/><use xlink:href="#_x34_chan" width="47.1" height="48.3" x="-23.5" y="-24.1" transform="scale(1 -1) rotate(-25 -1793 -1583)" overflow="visible"/><use xlink:href="#Arrow_Head" width="26.7" height="25.2" x="-13.3" y="-12.6" transform="scale(1 -1) rotate(20 3171 1021)" overflow="visible"/><use xlink:href="#Dot" width="5.8" height="5.8" x="-2.9" y="-2.9" transform="matrix(1 0 0 -1 709 736)" overflow="visible"/><use xlink:href="#Dot" width="5.8" height="5.8" x="-2.9" y="-2.9" transform="matrix(1 0 0 -1 623 738)" overflow="visible"/><use xlink:href="#Circle_Smaller" width="17.9" height="17.9" x="-9" y="-9" transform="matrix(1 0 0 -1 709 777)" overflow="visible"/><use xlink:href="#Dot" width="5.8" height="5.8" x="-2.9" y="-2.9" transform="matrix(1 0 0 -1 738 792)" overflow="visible"/><use xlink:href="#Dot" width="5.8" height="5.8" x="-2.9" y="-2.9" transform="matrix(1 0 0 -1 806 850)" overflow="visible"/><use xlink:href="#Dot" width="5.8" height="5.8" x="-2.9" y="-2.9" transform="matrix(1 0 0 -1 701 828)" overflow="visible"/><use xlink:href="#Hash" width="39.9" height="36.8" x="-17.2" y="-20.9" transform="scale(1 -1) rotate(-36 -984 -1455)" overflow="visible"/><use xlink:href="#At" width="38.7" height="37.3" x="-18" y="-17.6" transform="scale(1 -1) rotate(32 1878 880)" overflow="visible"/><use xlink:href="#Dot" width="5.8" height="5.8" x="-2.9" y="-2.9" transform="matrix(1 0 0 -1 912 834)" overflow="visible"/><use xlink:href="#Dot" width="5.8" height="5.8" x="-2.9" y="-2.9" transform="matrix(1 0 0 -1 784 907)" overflow="visible"/><use xlink:href="#Dot_Larger" width="10" height="10" x="-5" y="-5" transform="matrix(1 0 0 -1 795 944)" overflow="visible"/><use xlink:href="#Dot" width="5.8" height="5.8" x="-2.9" y="-2.9" transform="matrix(1 0 0 -1 882 955)" overflow="visible"/><use xlink:href="#Dot" width="5.8" height="5.8" x="-2.9" y="-2.9" transform="matrix(1 0 0 -1 900 983)" overflow="visible"/><use xlink:href="#Dot" width="5.8" height="5.8" x="-2.9" y="-2.9" transform="matrix(1 0 0 -1 831 972)" overflow="visible"/><use xlink:href="#Dot" width="5.8" height="5.8" x="-2.9" y="-2.9" transform="matrix(1 0 0 -1 742 929)" overflow="visible"/><use xlink:href="#Dot" width="5.8" height="5.8" x="-2.9" y="-2.9" transform="matrix(1 0 0 -1 711 895)" overflow="visible"/><use xlink:href="#Dot" width="5.8" height="5.8" x="-2.9" y="-2.9" transform="matrix(1 0 0 -1 687 899)" overflow="visible"/><use xlink:href="#Dot" width="5.8" height="5.8" x="-2.9" y="-2.9" transform="matrix(1 0 0 -1 699 939)" overflow="visible"/><use xlink:href="#Dot" width="5.8" height="5.8" x="-2.9" y="-2.9" transform="matrix(1 0 0 -1 669 966)" overflow="visible"/><use xlink:href="#Circle_Larger" width="24.8" height="24.8" x="-12.4" y="-12.4" transform="matrix(1 0 0 -1 762 991)" overflow="visible"/><use xlink:href="#Star" width="41.7" height="43.6" x="-20.9" y="-21.8" transform="scale(1 -1) rotate(-14 -3129 -3831)" overflow="visible"/><use xlink:href="#Moon" width="34.2" height="39.1" x="-17.1" y="-19.6" transform="matrix(1 0 0 -1 921 907)" overflow="visible"/><use xlink:href="#Circle_Smaller" width="17.9" height="17.9" x="-9" y="-9" transform="matrix(1 0 0 -1 939 988)" overflow="visible"/><use xlink:href="#Lightning" width="25.9" height="48.2" x="-12.9" y="-24.1" transform="scale(1 -1) rotate(22 3060 1654)" overflow="visible"/><use xlink:href="#Dot" width="5.8" height="5.8" x="-2.9" y="-2.9" transform="matrix(1 0 0 -1 967 868)" overflow="visible"/><use xlink:href="#Dot" width="5.8" height="5.8" x="-2.9" y="-2.9" transform="matrix(1 0 0 -1 987 963)" overflow="visible"/><use xlink:href="#Dot" width="5.8" height="5.8" x="-2.9" y="-2.9" transform="matrix(1 0 0 -1 1031 980)" overflow="visible"/><use xlink:href="#Dot" width="5.8" height="5.8" x="-2.9" y="-2.9" transform="matrix(1 0 0 -1 957 1039)" overflow="visible"/><use xlink:href="#Dot" width="5.8" height="5.8" x="-2.9" y="-2.9" transform="matrix(1 0 0 -1 919 1040)" overflow="visible"/><use xlink:href="#Dot" width="5.8" height="5.8" x="-2.9" y="-2.9" transform="matrix(1 0 0 -1 890 1079)" overflow="visible"/><use xlink:href="#Dot" width="5.8" height="5.8" x="-2.9" y="-2.9" transform="matrix(1 0 0 -1 1006 1073)" overflow="visible"/><use xlink:href="#Dot" width="5.8" height="5.8" x="-2.9" y="-2.9" transform="matrix(1 0 0 -1 1025 1101)" overflow="visible"/><use xlink:href="#Dot" width="5.8" height="5.8" x="-2.9" y="-2.9" transform="matrix(1 0 0 -1 910 1105)" overflow="visible"/><use xlink:href="#Smiles" width="36.7" height="39.7" x="-19.7" y="-19.1" transform="scale(1 -1) rotate(13 5305 3648)" overflow="visible"/><use xlink:href="#Dot_Larger" width="10" height="10" x="-5" y="-5" transform="matrix(1 0 0 -1 1054 1021)" overflow="visible"/><use xlink:href="#Dot" width="5.8" height="5.8" x="-2.9" y="-2.9" transform="matrix(1 0 0 -1 1198 893)" overflow="visible"/><use xlink:href="#Dot" width="5.8" height="5.8" x="-2.9" y="-2.9" transform="matrix(1 0 0 -1 1237 893)" overflow="visible"/><use xlink:href="#Dot" width="5.8" height="5.8" x="-2.9" y="-2.9" transform="matrix(1 0 0 -1 1223 993)" overflow="visible"/><use xlink:href="#Dot_Larger" width="10" height="10" x="-5" y="-5" transform="matrix(1 0 0 -1 1264 1020)" overflow="visible"/><use xlink:href="#Dot_Larger" width="10" height="10" x="-5" y="-5" transform="matrix(1 0 0 -1 1228 922)" overflow="visible"/><use xlink:href="#Dot" width="5.8" height="5.8" x="-2.9" y="-2.9" transform="matrix(1 0 0 -1 1091 926)" overflow="visible"/><use xlink:href="#Dot" width="5.8" height="5.8" x="-2.9" y="-2.9" transform="matrix(1 0 0 -1 1114 964)" overflow="visible"/><use xlink:href="#Dot" width="5.8" height="5.8" x="-2.9" y="-2.9" transform="matrix(1 0 0 -1 1104 992)" overflow="visible"/><use xlink:href="#Dot" width="5.8" height="5.8" x="-2.9" y="-2.9" transform="matrix(1 0 0 -1 1081 959)" overflow="visible"/><use xlink:href="#Dot" width="5.8" height="5.8" x="-2.9" y="-2.9" transform="matrix(1 0 0 -1 1082 875)" overflow="visible"/><use xlink:href="#Dot" width="5.8" height="5.8" x="-2.9" y="-2.9" transform="matrix(1 0 0 -1 1063 784)" overflow="visible"/><use xlink:href="#Dot" width="5.8" height="5.8" x="-2.9" y="-2.9" transform="matrix(1 0 0 -1 1126 764)" overflow="visible"/><use xlink:href="#Dot_Larger" width="10" height="10" x="-5" y="-5" transform="matrix(1 0 0 -1 1141 799)" overflow="visible"/><use xlink:href="#Dot" width="5.8" height="5.8" x="-2.9" y="-2.9" transform="matrix(1 0 0 -1 997 840)" overflow="visible"/><use xlink:href="#Dot" width="5.8" height="5.8" x="-2.9" y="-2.9" transform="matrix(1 0 0 -1 1031 842)" overflow="visible"/><use xlink:href="#Dot_Larger" width="10" height="10" x="-5" y="-5" transform="matrix(1 0 0 -1 939 832)" overflow="visible"/><use xlink:href="#Dot" width="5.8" height="5.8" x="-2.9" y="-2.9" transform="matrix(1 0 0 -1 930 801)" overflow="visible"/><use xlink:href="#Triforce" width="47.2" height="41.4" x="-23.6" y="-20.7" transform="scale(1 -1) rotate(-8 -5045 -7574)" overflow="visible"/><use xlink:href="#Dot" width="5.8" height="5.8" x="-2.9" y="-2.9" transform="matrix(1 0 0 -1 1043 736)" overflow="visible"/><use xlink:href="#Circle_Smaller" width="17.9" height="17.9" x="-9" y="-9" transform="matrix(1 0 0 -1 1082 752)" overflow="visible"/><use xlink:href="#Dot" width="5.8" height="5.8" x="-2.9" y="-2.9" transform="matrix(1 0 0 -1 1266 854)" overflow="visible"/><use xlink:href="#Dot" width="5.8" height="5.8" x="-2.9" y="-2.9" transform="matrix(1 0 0 -1 1236 796)" overflow="visible"/><use xlink:href="#Dot" width="5.8" height="5.8" x="-2.9" y="-2.9" transform="matrix(1 0 0 -1 1199 816)" overflow="visible"/><use xlink:href="#Dot" width="5.8" height="5.8" x="-2.9" y="-2.9" transform="matrix(1 0 0 -1 1168 793)" overflow="visible"/><use xlink:href="#Dot" width="5.8" height="5.8" x="-2.9" y="-2.9" transform="matrix(1 0 0 -1 1149 832)" overflow="visible"/><use xlink:href="#Hash" width="39.9" height="36.8" x="-17.2" y="-20.9" transform="scale(1 -1) rotate(24 2456 2127)" overflow="visible"/><use xlink:href="#Circle_Smaller" width="17.9" height="17.9" x="-9" y="-9" transform="matrix(1 0 0 -1 1225 844)" overflow="visible"/><use xlink:href="#Arrow_Head" width="26.7" height="25.2" x="-13.3" y="-12.6" transform="matrix(1 0 0 -1 1143 886)" overflow="visible"/><use xlink:href="#Jewish_Star" width="51.4" height="51.5" x="-25.7" y="-25.8" transform="scale(1 -1) rotate(-20 -2058 -3387)" overflow="visible"/><use xlink:href="#Circle_Larger" width="24.8" height="24.8" x="-12.4" y="-12.4" transform="matrix(1 0 0 -1 1169 944)" overflow="visible"/><use xlink:href="#Dot" width="5.8" height="5.8" x="-2.9" y="-2.9" transform="matrix(1 0 0 -1 1245 960)" overflow="visible"/><use xlink:href="#Lightning" width="25.9" height="48.2" x="-12.9" y="-24.1" transform="scale(1 -1) rotate(-17 -2317 -4665)" overflow="visible"/><use xlink:href="#Dot" width="5.8" height="5.8" x="-2.9" y="-2.9" transform="matrix(1 0 0 -1 1272 1235)" overflow="visible"/><use xlink:href="#Dot" width="5.8" height="5.8" x="-2.9" y="-2.9" transform="matrix(1 0 0 -1 1201 1262)" overflow="visible"/><use xlink:href="#Arrow_Head" width="26.7" height="25.2" x="-13.3" y="-12.6" transform="scale(1 -1) rotate(-12 -5363 -6622)" overflow="visible"/><use xlink:href="#Dot" width="5.8" height="5.8" x="-2.9" y="-2.9" transform="matrix(1 0 0 -1 1090 1265)" overflow="visible"/><use xlink:href="#Dot" width="5.8" height="5.8" x="-2.9" y="-2.9" transform="matrix(1 0 0 -1 1049 1243)" overflow="visible"/><use xlink:href="#Dot" width="5.8" height="5.8" x="-2.9" y="-2.9" transform="matrix(1 0 0 -1 1024 1178)" overflow="visible"/><use xlink:href="#Dot" width="5.8" height="5.8" x="-2.9" y="-2.9" transform="matrix(1 0 0 -1 1023 1218)" overflow="visible"/><use xlink:href="#Dot" width="5.8" height="5.8" x="-2.9" y="-2.9" transform="matrix(1 0 0 -1 999 1253)" overflow="visible"/><use xlink:href="#Dot" width="5.8" height="5.8" x="-2.9" y="-2.9" transform="matrix(1 0 0 -1 992 1211)" overflow="visible"/><use xlink:href="#Dot" width="5.8" height="5.8" x="-2.9" y="-2.9" transform="matrix(1 0 0 -1 931 1170)" overflow="visible"/><use xlink:href="#Dot_Larger" width="10" height="10" x="-5" y="-5" transform="matrix(1 0 0 -1 978 1172)" overflow="visible"/><use xlink:href="#Dot" width="5.8" height="5.8" x="-2.9" y="-2.9" transform="matrix(1 0 0 -1 852 1109)" overflow="visible"/><use xlink:href="#Dot" width="5.8" height="5.8" x="-2.9" y="-2.9" transform="matrix(1 0 0 -1 831 1172)" overflow="visible"/><use xlink:href="#Dot_Larger" width="10" height="10" x="-5" y="-5" transform="matrix(1 0 0 -1 816 1207)" overflow="visible"/><use xlink:href="#Dot" width="5.8" height="5.8" x="-2.9" y="-2.9" transform="matrix(1 0 0 -1 859 1211)" overflow="visible"/><use xlink:href="#Dot" width="5.8" height="5.8" x="-2.9" y="-2.9" transform="matrix(1 0 0 -1 840 1250)" overflow="visible"/><use xlink:href="#Circle_Larger" width="24.8" height="24.8" x="-12.4" y="-12.4" transform="matrix(1 0 0 -1 763 1253)" overflow="visible"/><use xlink:href="#Circle_Smaller" width="17.9" height="17.9" x="-9" y="-9" transform="matrix(1 0 0 -1 666 1244)" overflow="visible"/><use xlink:href="#Hash" width="39.9" height="36.8" x="-17.2" y="-20.9" transform="scale(1 -1) rotate(8 8816 5792)" overflow="visible"/><use xlink:href="#Dot" width="5.8" height="5.8" x="-2.9" y="-2.9" transform="matrix(1 0 0 -1 715 1226)" overflow="visible"/><use xlink:href="#Dot" width="5.8" height="5.8" x="-2.9" y="-2.9" transform="matrix(1 0 0 -1 638 1205)" overflow="visible"/><use xlink:href="#Dot" width="5.8" height="5.8" x="-2.9" y="-2.9" transform="matrix(1 0 0 -1 615 1215)" overflow="visible"/><use xlink:href="#Dot" width="5.8" height="5.8" x="-2.9" y="-2.9" transform="matrix(1 0 0 -1 626 1253)" overflow="visible"/><use xlink:href="#Dot_Larger" width="10" height="10" x="-5" y="-5" transform="matrix(1 0 0 -1 586 1221)" overflow="visible"/><use xlink:href="#Dot" width="5.8" height="5.8" x="-2.9" y="-2.9" transform="matrix(1 0 0 -1 559 1262)" overflow="visible"/><use xlink:href="#Dot" width="5.8" height="5.8" x="-2.9" y="-2.9" transform="matrix(1 0 0 -1 565 1188)" overflow="visible"/><use xlink:href="#Dot" width="5.8" height="5.8" x="-2.9" y="-2.9" transform="matrix(1 0 0 -1 535 1169)" overflow="visible"/><use xlink:href="#Dot" width="5.8" height="5.8" x="-2.9" y="-2.9" transform="matrix(1 0 0 -1 552 1107)" overflow="visible"/><use xlink:href="#Dot" width="5.8" height="5.8" x="-2.9" y="-2.9" transform="matrix(1 0 0 -1 513 1069)" overflow="visible"/><use xlink:href="#Smartphone" width="72.5" height="100.5" x="-36.2" y="-50.2" transform="scale(1 -1) rotate(17 4751 2493)" overflow="visible"/><use xlink:href="#Lightning" width="25.9" height="48.2" x="-12.9" y="-24.1" transform="scale(1 -1) rotate(-6 -11707 -5665)" overflow="visible"/><use xlink:href="#Dot" width="5.8" height="5.8" x="-2.9" y="-2.9" transform="matrix(1 0 0 -1 435 1154)" overflow="visible"/><use xlink:href="#Dot" width="5.8" height="5.8" x="-2.9" y="-2.9" transform="matrix(1 0 0 -1 436 1106)" overflow="visible"/><use xlink:href="#Dot" width="5.8" height="5.8" x="-2.9" y="-2.9" transform="matrix(1 0 0 -1 400 1143)" overflow="visible"/><use xlink:href="#Dot_Larger" width="10" height="10" x="-5" y="-5" transform="matrix(1 0 0 -1 384 1172)" overflow="visible"/><use xlink:href="#Dot" width="5.8" height="5.8" x="-2.9" y="-2.9" transform="matrix(1 0 0 -1 410 1192)" overflow="visible"/><use xlink:href="#Dot" width="5.8" height="5.8" x="-2.9" y="-2.9" transform="matrix(1 0 0 -1 473 1221)" overflow="visible"/><use xlink:href="#Dot" width="5.8" height="5.8" x="-2.9" y="-2.9" transform="matrix(1 0 0 -1 441 1242)" overflow="visible"/><use xlink:href="#Circle_Larger" width="24.8" height="24.8" x="-12.4" y="-12.4" transform="matrix(1 0 0 -1 382 1231)" overflow="visible"/><use xlink:href="#Dot" width="5.8" height="5.8" x="-2.9" y="-2.9" transform="matrix(1 0 0 -1 306 1185)" overflow="visible"/><use xlink:href="#Dot" width="5.8" height="5.8" x="-2.9" y="-2.9" transform="matrix(1 0 0 -1 332 1211)" overflow="visible"/><use xlink:href="#Dot" width="5.8" height="5.8" x="-2.9" y="-2.9" transform="matrix(1 0 0 -1 300 1237)" overflow="visible"/><use xlink:href="#Dot" width="5.8" height="5.8" x="-2.9" y="-2.9" transform="matrix(1 0 0 -1 262 1251)" overflow="visible"/><use xlink:href="#Arrow_Head" width="26.7" height="25.2" x="-13.3" y="-12.6" transform="matrix(1 0 0 -1 266 1211)" overflow="visible"/><use xlink:href="#Dot_Larger" width="10" height="10" x="-5" y="-5" transform="matrix(1 0 0 -1 214 1188)" overflow="visible"/><use xlink:href="#Dot" width="5.8" height="5.8" x="-2.9" y="-2.9" transform="matrix(1 0 0 -1 172 1164)" overflow="visible"/><use xlink:href="#Dot" width="5.8" height="5.8" x="-2.9" y="-2.9" transform="matrix(1 0 0 -1 181 1196)" overflow="visible"/><use xlink:href="#Dot" width="5.8" height="5.8" x="-2.9" y="-2.9" transform="matrix(1 0 0 -1 138 1232)" overflow="visible"/><use xlink:href="#Dot" width="5.8" height="5.8" x="-2.9" y="-2.9" transform="matrix(1 0 0 -1 175 1108)" overflow="visible"/><use xlink:href="#Dot" width="5.8" height="5.8" x="-2.9" y="-2.9" transform="matrix(1 0 0 -1 151 1077)" overflow="visible"/><use xlink:href="#Dot" width="5.8" height="5.8" x="-2.9" y="-2.9" transform="matrix(1 0 0 -1 145 1137)" overflow="visible"/><use xlink:href="#Dot" width="5.8" height="5.8" x="-2.9" y="-2.9" transform="matrix(1 0 0 -1 103 1112)" overflow="visible"/><use xlink:href="#Dot" width="5.8" height="5.8" x="-2.9" y="-2.9" transform="matrix(1 0 0 -1 89 1083)" overflow="visible"/><use xlink:href="#Dot" width="5.8" height="5.8" x="-2.9" y="-2.9" transform="matrix(1 0 0 -1 48 1065)" overflow="visible"/><use xlink:href="#Dot" width="5.8" height="5.8" x="-2.9" y="-2.9" transform="matrix(1 0 0 -1 10 1082)" overflow="visible"/><use xlink:href="#Dot" width="5.8" height="5.8" x="-2.9" y="-2.9" transform="matrix(1 0 0 -1 11 1174)" overflow="visible"/><use xlink:href="#Dot" width="5.8" height="5.8" x="-2.9" y="-2.9" transform="matrix(1 0 0 -1 57 1173)" overflow="visible"/><use xlink:href="#Dot_Larger" width="10" height="10" x="-5" y="-5" transform="matrix(1 0 0 -1 29 1198)" overflow="visible"/><use xlink:href="#Dot" width="5.8" height="5.8" x="-2.9" y="-2.9" transform="matrix(1 0 0 -1 57 1232)" overflow="visible"/><use xlink:href="#Dot" width="5.8" height="5.8" x="-2.9" y="-2.9" transform="matrix(1 0 0 -1 19 1260)" overflow="visible"/><use xlink:href="#Circle_Smaller" width="17.9" height="17.9" x="-9" y="-9" transform="matrix(1 0 0 -1 92 1253)" overflow="visible"/><use xlink:href="#Star" width="41.7" height="43.6" x="-20.9" y="-21.8" transform="scale(1 -1) rotate(24 2820 -322)" overflow="visible"/><use xlink:href="#At" width="38.7" height="37.3" x="-18" y="-17.6" transform="scale(1 -1) rotate(39 1608 -492)" overflow="visible"/><use xlink:href="#Dot_Larger" width="10" height="10" x="-5" y="-5" transform="matrix(1 0 0 -1 134 1035)" overflow="visible"/><use xlink:href="#Dot" width="5.8" height="5.8" x="-2.9" y="-2.9" transform="matrix(1 0 0 -1 164 1019)" overflow="visible"/><use xlink:href="#Dot" width="5.8" height="5.8" x="-2.9" y="-2.9" transform="matrix(1 0 0 -1 10 1034)" overflow="visible"/><use xlink:href="#Dot" width="5.8" height="5.8" x="-2.9" y="-2.9" transform="matrix(1 0 0 -1 441 676)" overflow="visible"/><use xlink:href="#Dot" width="5.8" height="5.8" x="-2.9" y="-2.9" transform="matrix(1 0 0 -1 473 689)" overflow="visible"/><use xlink:href="#Dot" width="5.8" height="5.8" x="-2.9" y="-2.9" transform="matrix(1 0 0 -1 603 550)" overflow="visible"/><use xlink:href="#Dot" width="5.8" height="5.8" x="-2.9" y="-2.9" transform="matrix(1 0 0 -1 583 637)" overflow="visible"/><use xlink:href="#Dot" width="5.8" height="5.8" x="-2.9" y="-2.9" transform="matrix(1 0 0 -1 672 563)" overflow="visible"/><use xlink:href="#Dot" width="5.8" height="5.8" x="-2.9" y="-2.9" transform="matrix(1 0 0 -1 670 624)" overflow="visible"/><use xlink:href="#Dot" width="5.8" height="5.8" x="-2.9" y="-2.9" transform="matrix(1 0 0 -1 602 704)" overflow="visible"/><use xlink:href="#Dot_Larger" width="10" height="10" x="-5" y="-5" transform="matrix(1 0 0 -1 1040 544)" overflow="visible"/><use xlink:href="#Dot_Larger" width="10" height="10" x="-5" y="-5" transform="matrix(1 0 0 -1 676 404)" overflow="visible"/><use xlink:href="#Dot_Larger" width="10" height="10" x="-5" y="-5" transform="matrix(1 0 0 -1 962 697)" overflow="visible"/><use xlink:href="#Dot_Larger" width="10" height="10" x="-5" y="-5" transform="matrix(1 0 0 -1 496 723)" overflow="visible"/><use xlink:href="#Dot_Larger" width="10" height="10" x="-5" y="-5" transform="matrix(1 0 0 -1 642 323)" overflow="visible"/><use xlink:href="#_x34_chan" width="47.1" height="48.3" x="-23.5" y="-24.1" transform="scale(1 -1) rotate(35 1628 -388)" overflow="visible"/><use xlink:href="#Triforce" width="47.2" height="41.4" x="-23.6" y="-20.7" transform="scale(1 -1) rotate(11 5751 1836)" overflow="visible"/><use xlink:href="#At" width="38.7" height="37.3" x="-18" y="-17.6" transform="matrix(1 0 0 -1 491 1128)" overflow="visible"/><use xlink:href="#Smartphone" width="72.5" height="100.5" x="-36.2" y="-50.2" transform="scale(1 -1) rotate(72 808 -66)" overflow="visible"/><use xlink:href="#Smartphone" width="72.5" height="100.5" x="-36.2" y="-50.2" transform="scale(1 -1) rotate(-9 -8171 -1739)" overflow="visible"/><use xlink:href="#Arrow_Head" width="26.7" height="25.2" x="-13.3" y="-12.6" transform="scale(1 -1) rotate(-12 -6012 -660)" overflow="visible"/><g id="Groypers"><path d="m1061 187-2 1-2 2-4 2-7 5-2 1-1 2-3 3-7 6-3 3-2 1-1 1h-1l-6 6a180 180 0 0 0-23 26l-5 8-3 8a325 325 0 0 0-15 59l-1 4v5a205 205 0 0 0 4 34l3 8 3 3 1 1 2 1a140 140 0 0 0 40 18l8 2a677 677 0 0 0 60 11l2-1h5l2-1c5-1 10-4 15-7a88 88 0 0 0 20-16l2-2 1-1 1-2 1-2 6-16 4-17 3-9v-2l3 1v2l-1 5-4 17-1 8-1 9 3 7 5 7 3 5v5l1 3v1l2 1 4 1 4 1 9 4 4 3 1 2 1 1 1 1 1 5-1 2-1 2-1 1-1-3 5-2 1-3 1-1 2-1 3-1 4 1 5 2-1 3a16 16 0 0 1-5-10v-1l1-1 1-3 2-2h4l-2 2a18 18 0 0 1-1-10l3-4 4-2 2 1-1 1a45 45 0 0 1-17 7h-4a13 13 0 0 1-10-6l-1-3-2-7-1-14v-35l-1-7v-7l-3-6-2-2-2-1a62 62 0 0 0-17-3h-2v1l-12 8-1 1-1 1h-2l-1 1h-1a82 82 0 0 0-13 5l-3 1-3 2a123 123 0 0 0-22 18l-5 4-2 3-2 1v1h-2l1-1v-1l2-1 2-3 5-5a157 157 0 0 1 24-20l2-1 1-1a92 92 0 0 1 14-5h2l2-2 1-1 12-8h1l1-1 2-1h4l7 2 7 1 3 2 3 3c2 2 2 5 3 7l1 7v43a88 88 0 0 0 3 20l3 5 6 2h6c4-1 9-3 12-6l2 3-4 2-2 2v4l1 4-2 2h-1l-1 1-1 2v1l1 4 3 4v2h-2l-5-2h-5l-2 1-1 3-3 2-3 1-2-1v-2h1v-1l1-1-1-4-1-1-1-2-4-2c-2-2-5-3-7-3l-5-2-4-1-2-1-2-2-1-3v-6l-2-3-5-8-4-8 1-10 1-8 4-18 1-4v-2h3v1l-1 1-2 9a537 537 0 0 1-10 34l-1 2-2 2v1l-1 1-1 2a76 76 0 0 1-21 16 75 75 0 0 1-19 8l-1 1h-15l-17-3-35-7-8-2a120 120 0 0 1-25-10c-5-3-11-5-16-9l-2-1-1-1-4-4-3-8-3-18-1-18v-9l2-8 4-18a367 367 0 0 1 18-49 165 165 0 0 1 30-33l1-1 1-1 2-1 3-3 6-6 3-3 2-1 2-2 7-5 4-2 3-2 3 1z"/><path d="M1155 269h-7l-6 1h-1l-2 1-3 1-6 3-6 2-7-1-7-1-3-1-1-1h-2 1v1l-1 3-1 6-4 13-1 3v2l-1 1-3 6a66 66 0 0 1-8 11l-11 8-13 4-13 2h-7c-2 0-5-1-6-3a410 410 0 0 1-22-33l-5-12h1l6 12 6 11 7 10 2 3 2 3 4 4 6 2h6l12-3 12-4a39 39 0 0 0 18-17l3-6 1-1v-1l1-3 3-12 2-7v-3l1-2v-1h1l2-1 2 1h1l3 1 6 2h6l6-1 6-3 3-1 2-1h1l7-1 7-1-1 4z"/><path class="st4" d="M1117 251c-1 1-4 1-4 3s2 3 6 3 10-3 18-3c7 0 21-2 22 1s-8 5-10 4c-3-1-4-3-9-2-5 0-20-3-21 2s7 4 15 3c7-1 26 0 26 3 0 2-3 1-6 1"/><path d="m1033 290 9 14 2 3 1 2 2 1h2l4-1a72 72 0 0 0 16-6l3-2v-1h1v-2l2-8 4-17 4-7 2-2 1-2 3-3 7-5 9-3h2l1-1 2-3 2-2h4l2 2 1 3h-3v-1l-1-1h-1l-1 1-3 4-2 1h-3c-5 1-10 4-13 8l-3 2-2 2-1 1-3 8-3 7-2 8-2 9v2l-1 1v1h-1l-4 3-7 4-9 2-4 1h-5l-2-2-1-2-2-4-8-15h1z"/><path class="st2" d="m1106 407 59-3m44 1s33 2 37-2c3-5 6-13 5-23 0-11-1-8 2-14 3-7 5-7 5-7s-9 4-11 1 0-6 0-6-2 5-8 5-7-5-7-5 1 7-2 7-10-3-10-3 3 12 7 16l8 8s-18 0-27-3l-26-3"/><path class="st4" d="m1147 249 6 3-16 2s-5-3-11-3h-9l16-4 13 2-14 3"/><path class="st2" d="M1179 315s3-7 2-15l-1-20c0-4 3-15 2-20-2-5-13-8-21-9s-8-7-12-6c-2 0-4 2-4 3"/><path class="st2" d="M1146 267s9 13 12 23 2 16 2 16l3-24v-11s6 2 7 1l1-2M1153 267l10 4m-104-84s0-10 5-14c4-5 9-8 19-8s16 2 17 6l1 3-2-5c1-2 3-3 7-3 5 0 10 1 13 4l4 5s9 5 10 9l2 8c1 2 3 7 3 11l1 8 5 7v6c0 1 3 4 3 9-1 6-2 9-1 12"/><path class="st2" d="M1078 183s7-11 21-9c13 2 16 10 17 12"/><path class="st2" d="M1123 175s-7-3-16 1"/><path class="st4" d="M1146 241s-2 3-6 3-43 0-49-2l-11-7-7-7 20 8c12 3 41 2 46 0l8-3"/><path class="st4" d="M1144 224s0 4-2 5l-15 3-18 1c-9-1-33-6-36-5m14-28s-1-5 2-6c2-2 16-5 20 0 3 4 4 6 4 9s-1 5-8 5-17-3-18-8zm34 5c-1-3-1-6 4-11s9-2 10-2c2 1 3 11 3 11s-2 3-5 4-11 1-12-2z"/><path class="st4" d="M1087 200s14-2 26 0m26 2s-7-7-18-1m-34 5s1 10 15 10 13-6 13-6-7 13-18 17m42-16-5 4m-4 0s-6-1-7-3 3 8 8 12"/><path class="st4" d="M1103 199c2 3 1 9-2 9l-2-1c-2 0-3-8 1-8h-5c-1 0-2 5 0 8m37-8c2 1 2 7 0 8l-3-1c-2-1-2-7 0-7l-4 1c-1 1-1 5 1 7"/></g><g id="Doge"><path class="st0" d="M423 479s7-5 15-7c7-3 18-4 18-4l11-25c1-3 5-3 6-3s5 1 6 4l4 26s34 12 48 46c8 20 3 40 1 47s-6 13-9 19c-4 9-8 15-18 20s-27 13-42 14-68-11-77-46c-4-19 5-48 5-48s-11-45-11-52c1-6 4-9 10-8 7 2 33 17 33 17zm-29 63-8 4m8-8 121-52m-94 47-3-5m9 8-2-5m8 8-2-5m6 5 29-13m1-2-2-5m4-1-2-5m4-1-2-5m8 2-2-4m8 8-2-5m5 6 27-12m2-3-2-5m-18 14-2-5m10 1-2-4m-4 1-2-5m-6 8-2-4m-52 28-2-5m12 0-2-4m7 7-2-4m7 7-2-4m-7 8-2-4m-4 2-2-5"/><path class="st0" d="m489 515 16 6s10 0 11 4 0 14-6 16c-7 2-15-6-15-10 0-3 8-9 9-10"/><path class="st0" d="M516 525s9 4 9 11c1 6-4 15-7 15l-7-2s-10 11-17 11c-6 1-23-3-23-3"/><path class="st0" d="M510 541c1 0 2 7 1 9m-13 9s15 3 20-9m-2-58-2-4"/></g><g id="Umaru-chan"><path class="st4" d="M802 674s10-1 18-7c9-5 15-11 15-11s10 5 9 12-6 14-13 18-18 7-24 3-5-15-5-15z"/><path class="st4" d="M808 673s-5 7-5 11"/><circle class="st4" cx="785.3" cy="662.1" r="9.2"/><circle class="st4" cx="833.1" cy="639" r="9.2"/><path class="st4" d="M782 621s1 7 7 15 16 17 16 17 3-2 0-14l-1-10s2 4 5 6l6 5-10-20-4-8m9-2 7 7 10 8s-1-8-3-11l-4-6m5-1 12 15 17 10m-74-10v25s-9-10-10-17"/><path class="st5" d="m764 672 5-40"/><path d="m759 659 2 4 2 4 2 4 1 2v2l2 9a28 28 0 0 0 4 8l2 3 2 2 1 1v1l1 5 1 4 7 16v2h-1a40 40 0 0 1-9-5l-4-4-3-4 2-1 3 10v1h-2a134 134 0 0 1-12-18l-1-2v-1l-2-4-5-13c-2-5-2-10-2-15l1-1 1 1c0 5 0 10 2 14l5 14 3 6 4 6 8 12h-2l-3-10 1-1h1l3 4 3 4 4 2 5 2-2 2a123 123 0 0 1-9-26l-1-1-1-2-3-3-2-4-2-5-2-8v-3l-1-2-1-4-2-4-1-4v-1 1z"/><path class="st4" d="M776 699s4 4 14 5 36-8 38-7m-49 13s14 8 26 7 24-5 26-9"/><path d="M820 707a21 21 0 0 0 5-3h1v-1l2 1-1 1-1 1h-1l-1 1-4 1-1-1h1zm20-8v1l-1 1-1 1-2 1-2 1h-3l-1-2v-1l1-3c1-1 3-2 5-1h2l2 1 3-2 7-5h1v1l-6 6-5 2-3-1h-1c-1-1-3 0-4 1v2h3l2-1v-2l1-1 1 1zm-89-19c-2-10-1-19 3-28a70 70 0 0 1 16-23l11-9 12-6 28-7h14a41 41 0 0 1 13 3 68 68 0 0 1 16 9l2 3 4 6a146 146 0 0 1 14 32 54 54 0 0 1 0 21l-1 1-1-1-1-9-2-4-1-5h2l-1 6v6l-2 6-3 5h-2a294 294 0 0 0-11-37l-8-16-11-16v-1a123 123 0 0 1 22 32l3 9 3 10 4 18h-2l3-5 1-6 1-5 1-6 1-1 1 1 1 4 2 4 1 10-2-1 1-6v-7l-1-7-2-6a156 156 0 0 0-18-33l-3-2a66 66 0 0 0-18-9l-7-1h-13c-10 1-18 4-27 7s-17 8-23 14a74 74 0 0 0-15 23c-4 8-5 17-4 26v2l-1-1zm98 31-4 13-6 12-6 12-7 11a113 113 0 0 1 6-12l5-12 6-12 6-12z"/><path class="st4" d="m783 719 9 3 8 2 4 28 7 28c2 10 8 2 22-4 13-5 17-7 25-13s15-10 27-15l14-6 9-7-33-40 14-3 12-4v-4l-17-3-21 11c-4 2-10 9-16 12s-14 7-20 0 18-18 24-22 15-16 16-20"/><path class="st6" d="m901 685 4-6v3l4-3c1 1-2 3-2 4s4-2 4-1l-3 3c0 1 4 0 3 1 0 2-4 1-4 1l3 2c-1 1-7-1-8-1"/><path class="st4" d="M763 708h-4v5c-1 1 6 2 10 3"/><path class="st6" d="M759 708s-4-5-5-5l1 3h-7c0 2 4 2 4 2s-5 1-5 3h6l-4 3c0 1 5-2 6-1 0 1-3 2-1 3 1 1 4-4 5-3"/><path d="M782 723a256 256 0 0 0 5 59l4 8c1 3 3 6 6 8h-1c-3-1-5-4-7-7l-4-9-4-19a188 188 0 0 1-1-40h2zm12 0a70 70 0 0 0 2 16l1 4 1 4a99 99 0 0 0 2 8 100 100 0 0 1-7-24l-1-8 1-1 1 1z"/><path class="st4" d="M784 775c2 5 7 10 7 10l-2-13v-10s4 11 9 18 16 13 16 13l-6-11-2-6s4 9 11 12c6 4 12 4 12 4"/><path class="st2" d="M768 656s14-9 22-9m28-15s7-7 20-9"/><path d="M888 692a91 91 0 0 1 13 12l10 14c3 5 6 10 7 16 2 5 2 12 0 17h-1c1-6 1-11-1-17-1-5-4-10-7-15a113 113 0 0 0-22-26v-1h1z"/><path class="st5" d="m918 736-10-7c1 2 5 6 4 15-1 8-5 17-5 17l-2-7-4-13-4 19"/><path class="st4" d="m893 751 8-7m-17 14s-14 6-33 10m-28 12 11 23s-3 4-1 5l5-2v-4l-1-27"/><path class="st4" d="M827 787c-1 0 4-4 10-3m32-28 13-2 16 21c1 2 1 3 4 2 2-2 4-2 3-4s-3 0-4-1-8-21-9-27"/><path class="st4" d="m895 755-8 4m-47 15c2 3 12 12 15 13 2 0-6-10-6-12-1-3 6 3 14 3s11 1 12 2v-13l9 7 1-15"/><path class="st2" d="M899 776c-11 7-36 18-61 28m-6 3s-12 2-19 2c-6-1-28-7-37-24s-34-71-39-101c-3-21 0-36 0-36s-4-1-5-5c-1-5 3-14 8-14 3-1 4 2 4 2s9-17 17-23 34-21 50-23l20-1s1-6 8-6c7-1 12 4 12 11 0 0 7 1 15 9s13 13 16 20 9 19 16 28 19 19 25 28c3 4 22 37 14 67-3 11-19 24-32 32"/><ellipse transform="rotate(-73 739 640)" class="st4" cx="738.8" cy="639.6" rx="3.5" ry="1.9"/><ellipse transform="rotate(-78 843 585)" class="st4" cx="842.5" cy="585.3" rx="2.1" ry="3.5"/><circle cx="829.6" cy="637.2" r="3.3"/><circle cx="781.8" cy="660.1" r="3.3"/><circle cx="814.6" cy="657.8" r="2.2"/></g><path d="M470 653v-1l-7 2 1 3 6-2v1l-5 2v2h-1l1 3 1-1 1 2 8-3-3-8h-2zm2 7-4 2-1-2 4-1 1 1zm66-34v-2l-7 3 1 3 6-2v1l-5 2v1l-1 1 1 2h1l1 1 8-3-3-8-2 1zm1 6-4 1v-1l4-2v2zm-64 15 3 10 3-1-2-6h1v-2l2-1 3 7 3-1-3-8-2 1v-2l-4 2v1l-1 1-1-2zm68-28 4 10 3-1-2-6h1v-1l2-1 3 6 2-1-3-8-1 1v-2l-5 2 1 1-1 1-1-2zm-53 26 1 2h1l1 4 2-1 1 4-4 2 1 3 4-2v-1l1-1v-1l1-1-1-1 2-1-2-4h2l-1-3h1l-1-3-3 1 2 4-2 1 1 2-1 1-1-3-1 1-2-4zm15-9 5-2 1 2-5 2 1 4 5-2 1 3-5 2v-1h-2v-1l-2 1-1-5h1v-1l1-1zm8-9 5 13 3-1-2-5 1-1v-1l2-1 3 6h3l-3-8h-2v-1l-4 1v2h-1l-2-5" id="anychan_00000023250323531710229140000015104395061867625133_"/><g id="cat_on_piano"><path class="st9" d="m574 1140 176 39 1-22-175-37z"/><path class="st2" d="m576 1120 40-39 77 18-22 31-86-19"/><path class="st0" d="m616 1118 22-32m5 38 22-32"/><path class="st2" d="m750 1179 28-46-1-13-26 37"/><path class="st0" d="m733 1108 44 12m-106 10 85 19m-6-37-22 31m-13-27-15 20"/><path class="st10" d="m606 1072 90 22m112 28-69-18m-132-32s-1-30 12-35 23 21 23 21"/><path class="st0" d="m635 1046 23-18c9-6 19-9 20-9 3-3 13-16 15-16s12 17 14 18l34 10c14 6 27 14 33 17 1 1 17-10 18-8s-1 21-2 26l-4 15c1 2 7 8 12 18s8 16 9 22"/><path class="st10" d="M706 1087s-25 16-13 29c9 12 48-12 51-15m-66-37c1 2 3 5 6 5 4 0 6-3 7-3 0 1 2 9 13 6"/><ellipse cx="666.4" cy="1060.2" rx="4.3" ry="5"/><ellipse transform="rotate(-82 727 1080)" cx="727.4" cy="1080" rx="5" ry="4.3"/></g><g id="nyan_cat"><path class="st2" d="M698 166s-1-33-3-36-25-21-72-18c-48 2-74 8-74 17l-1 16c-1 8-4 23-3 36s2 49 5 53c4 3 23 16 104 9m-109-57s-42-20-47-4 42 23 48 24"/><path class="st2" d="M548 224c-2 1-19 14-13 21s20 0 22-6m8 3s-2 16 10 16c11 0 12-14 12-14m50 1s2 13 13 13c10-1 11-14 11-14m13 2s0 13 11 13 12-12 12-15"/><path class="st2" d="M667 176s-24-28-28-25-6 6-7 14l-3 20c-1 4-6 12-4 24 1 12 7 37 56 37 48 0 50-35 50-42 0-8-5-18-5-21 0-10-4-31-10-31-6-1-27 24-27 24h-22z"/><circle class="st4" cx="655.5" cy="199.9" r="8.5"/><circle class="st4" cx="706.3" cy="199.9" r="8.5"/><circle class="st6" cx="704.5" cy="198.4" r="3.4"/><circle class="st6" cx="654" cy="198.1" r="3.4"/><path class="st4" d="M676 212s3 6 5 6 6-6 6-6l-6-1-5 1zm-17 6s4 8 11 8 10-7 11-7c2 0 5 7 12 7s11-8 11-8m-21-42v-42c-1-4-5-5-10-5l-105 1c-7 0-9 7-9 13v75c0 4 1 13 11 12h62"/><circle class="st4" cx="578.1" cy="146.9" r="3.9"/><circle class="st4" cx="614.2" cy="138.7" r="3.9"/><circle class="st4" cx="607.7" cy="168.6" r="3.9"/><circle class="st4" cx="638.2" cy="139.2" r="3.9"/><circle class="st4" cx="667" cy="154.1" r="3.9"/><circle class="st4" cx="614.8" cy="190.4" r="3.9"/><circle class="st4" cx="585.9" cy="182.6" r="3.9"/><circle class="st4" cx="600.7" cy="212.9" r="3.9"/><circle class="st4" cx="579.4" cy="220.1" r="3.9"/><circle class="st4" cx="570.4" cy="197.1" r="3.9"/></g><g id="pepe_pyramid"><path class="st9" d="m1054 1204 9-14 11-25 32-53 14-27c3-5 9-11 10-15a731 731 0 0 1 15-25v9l-2 9-2 20-4 30-1 37-7 43-3 29-3 12"/><path class="st2" d="m1054 1203 20 11 14 7 16 9 16 9 33-8 15-4 19-6 25-7 16-7 16-5c5-1 19-9 20-10l-3-4-6-8c-2-2-6-6-7-9"/><path class="st4" d="M1214 1116c0 1 1 3-1 6-3 2-9 8-16 11l-18 6-16 4c-10 2-17-1-18 1-2 3 2 7 8 8l13-1h9c2-1 18-4 24-7 7-3 16-8 17-10 2-3 5-5 4-9 0-4-1-1-1-1s2-2 1-5c-1-2-2-3-6-3"/><path class="st2" d="m1146 1046 10 10 10 11 10 12 17 18c3 4 4 6 20 19l1 2m11 20-6-9m10 15 3 4"/><path class="st5" d="M1219 1124s-7 7-14 10l-23 9-12 3-17 1"/><path class="st4" d="m1070 1176 18 9c2 2 14 5 17 8s15 7 16 7m-43-23-1 2m8-31 3 2m15 7 7 3 10 5 12 6M1118 1168l1-3m-15-38 11 4 7 4 8 3m-14-9-1 2m-4-25 4 1 9 3 7 2m-19-4 1-2m6-16 5 1 5 1m8-26 6 1m18-3-4 2-8 2"/><path class="st11" d="M1145 1091s8-6 12-7l9-2 3 1m-27 31c-1 0-2-1-1-5l3-9c2-4 11-12 16-13 6-1 12-1 16 3l10 7c1 2 5 4 4 7"/><path class="st11" d="M1190 1104s-4-3-13-3-14 3-16 4l-8 5-8 6h-3c-1-1 3-10 7-14s9-7 13-8l10-1 9 5c2 1 7 3 8 5m-43 14s8 5 21 4c14-1 20-3 25-15l-2-1"/><path class="st3" d="M1133 1171h9l6-2m-14 32 5-1 10-2 9-2 17-3a122 122 0 0 0 34-11l12-3 19-7m-63-9 14-4 12-5 9-1m-4-2v2m-25 11v-3m-25 32v2m36-5v-2m25-12 1 2"/><path class="st11" d="m1165 1135 5-4 4-6m21 2-5-2-4-2m9-5 1-4-1-2m-46 12 17 2c5-1 25-4 30-17 2-5-3-3-3-3"/><path class="st3" d="m1149 1113 2 6m26-18s10 7 5 17"/><path d="M1170 1111c-1-1 0-4 3-4s3 3 2 4-4 2-5 0zm-9-1c0-1 1-3 3-2 2 2 0 3-1 3l-2-1zm3 6c-1-1 0-2 1-2s2 0 1 1l-2 1z" fill="none" stroke="#000" stroke-miterlimit="10"/><path class="st3" d="M1256 1180c1-1 7-8 7-10s-9-6-9-7c0 0 2-2 1-4s1-3-4-9l-8-7-5-4-5-1c-2-1-5-3-7-1-2 3-9 13-5 14 4 2 7-6 7-6l2-2 4 2-4 6c-1 3 0 6 2 6"/><path class="st11" d="m1236 1144-2 2m6 3s-10 6-7 12c1 2 5 0 6 0"/><path class="st11" d="M1244 1155s-8 7-6 10c2 2 8 0 9-2v-3"/><path class="st11" d="m1248 1158-4 3m7 14 5-4-5-3s-2 4-6 4-10 0-15-7l-6-7c-2-2-4-2-9-1-4 0-7-5-2-8h6m6 2 4 2"/><path d="M1222 1146s1-1 2 1l-2 2c0 1-2 1-2-1m-72-7c-1 0-4 0-5 2s-2 3-1 6m2-11s-5 2-5 6" stroke-linecap="round" fill="none" stroke="#000" stroke-miterlimit="10"/><path class="st11" d="m1012 1129 58 3m-20-62 47 17m-14-65 35 30m16-57 6 35m46-45-16 51m60-5-34 30m76-3-59 27m75 20-53 8M9 1105l-53 8"/></g><g id="pepe_sunglasses"><path class="st2" d="M205 1090c2-2 19 6 29 8 9 1 32 0 47-2 14-1 28-4 29-2s-1 14-1 18v21c0 3 2 3 1 6 0 3-7 14-46 13s-44-11-48-16c-3-4-6-20-8-28s-6-16-3-18zm150-19s30-2 30-1c1 2-4 6-5 10-2 5-5 22-8 23l-11 2"/><path class="st2" d="M310 1137s52-21 51-32-24-12-28-12"/><path class="st4" d="M308 1113s12-1 20-7c7-5 6-9 5-14"/><path class="st2" d="M310 1105s29-9 49-42"/><path class="st9" d="M364 1034c-4-8-13-16-19-16-7 0-12 5-17 6l-13 2"/><path class="st5" d="M278 1050c3-3 20-15 23-22m30 1c-8-4-12-3-14-3"/><path class="st9" d="m214 1042-4-12c0-2-10 4-10 27 0 16 3 23 7 32"/><path class="st2" d="M210 1022c-1-6 3-35 20-45 19-10 43-5 50 10"/><path class="st2" d="M268 975s11-22 30-22c17 0 22 15 22 15"/><path class="st9" d="M229 1005s9-14 22-18c16-4 26-1 33 3m-3-4c8-12 40-26 58-15m17 82c10-5 16-11 12-17-2-5-8 4-15 8-8 5-41 22-63 22-22 1-37-7-38 6s20 14 32 13 45-8 57-14 28-13 26-19c-1-7-6-1-22 7-8 4-26 10-40 14-6 2-32 4-41 1m-64-39c3 3 10-8 13-8 4-1 29 3 31 5 2 5 17 18 39 4 12-6 18-12 19-16 4-9-2-15 4-18 4-2 6 6 15 9s36-1 38-24c3-20-10-12-10-12l-25 13c-9 4-18 4-25 8-8 5-7 6-24 14-9 5-26 15-34 15s-24-6-29-4c-5 1-16 11-12 14z"/><path class="st5" d="M306 1002c-1 4 0 7 2 8 3 2 10 2 12 1"/><path class="st9" d="M340 1019c6-3 9-9 13-16"/><path class="st5" d="M241 1021c5-4 9-13 18-20 7-5 27-16 37-7"/><path class="st5" d="m248 1023 7-8c4-4 6-8 14-13 7-4 20-7 27-7 4 0-3-3 17-14s34-10 37-6"/><path class="st5" d="M257 1019c3-4 7-17 34-19m14-7c5-5 26-18 37-16"/></g><g id="guy_fawkes_mask"><g id="guy_fawkes_mask_00000155869151159824769680000001256753697679782551_"><defs><path id="SVGID_1_" d="M187 761 47 630v-39h149v170z"/></defs><clipPath id="SVGID_00000106828345663201686130000014280679527005060006_"><use xlink:href="#SVGID_1_" overflow="visible"/></clipPath><path d="M48 631s39-43 54-38c14 5 43 30 47 33 12 10 31 34 37 49 4 9 6 22 6 29 1 7 3 27 2 34 0 9-8 18-8 18" clip-path="url(#SVGID_00000106828345663201686130000014280679527005060006_)" fill="none" stroke="#000" stroke-width="3" stroke-miterlimit="10"/><path d="M186 760c3-3-1-11-25-34" clip-path="url(#SVGID_00000106828345663201686130000014280679527005060006_)" fill="none" stroke="#000" stroke-width="2" stroke-miterlimit="10"/><g clip-path="url(#SVGID_00000106828345663201686130000014280679527005060006_)"><path d="m175 693-1 11a59 59 0 0 1-10 20v2l-1 1-2 2-4 4h-2v-2l3-4 2-2 1-1 1-1 1-3 2-2 2-5 4-9 1-2v-1l1-3 1-5h1z"/></g><g clip-path="url(#SVGID_00000106828345663201686130000014280679527005060006_)"><path d="M88 657a43 43 0 0 1 0-28 38 38 0 0 1 10-15l2-2 6-4h1l-3 2-1 2-2 1-2 2-2 3c-3 3-6 7-7 11a43 43 0 0 0-1 27v1h-1z"/></g><path d="M121 613c-20-6-31 16-32 43l6 1s-1-38 26-44z" clip-path="url(#SVGID_00000106828345663201686130000014280679527005060006_)" fill="none" stroke="#000" stroke-width="1.5" stroke-linecap="round" stroke-linejoin="round" stroke-miterlimit="10"/><path d="M132 638c-22 3-23 22-23 24 0 0 0 0 0 0 4-1 19-4 23-24" clip-path="url(#SVGID_00000106828345663201686130000014280679527005060006_)" fill="none" stroke="#000" stroke-width="2.5" stroke-linecap="round" stroke-miterlimit="10"/><g clip-path="url(#SVGID_00000106828345663201686130000014280679527005060006_)"><path d="m133 619 3 4 1 5c0 4-1 8-4 10h-1v-1l2-4 1-5c0-3-1-6-3-8v-1h1z"/></g><path d="M154 631s-8-7-17-1" clip-path="url(#SVGID_00000106828345663201686130000014280679527005060006_)" fill="none" stroke="#000" stroke-width="1.5" stroke-linecap="round" stroke-miterlimit="10"/><g clip-path="url(#SVGID_00000106828345663201686130000014280679527005060006_)"><path d="m166 663 6 8 4 8 5 19 2 15 2 8 1 3 2 3v1l-3-4-1-3-2-8-3-15-2-9-3-9-3-9-6-7v-1z"/></g><g clip-path="url(#SVGID_00000106828345663201686130000014280679527005060006_)"><path d="m127 679 4-2h4l6 4 2 1 1 1 2 4-1 4-2 3h-1v-1c1-2 2-4 1-6l-1-2v-1h-1l-1-1-6-3-3-1-3 1-1-1z"/></g><path d="M163 640s11 15 0 25a53 53 0 0 1-27 14" clip-path="url(#SVGID_00000106828345663201686130000014280679527005060006_)" fill="none" stroke="#000" stroke-width="1.5" stroke-linecap="round" stroke-miterlimit="10"/><g clip-path="url(#SVGID_00000106828345663201686130000014280679527005060006_)"><path d="m138 692-1 4-1 5-1 4-1 3-2 2h-1v-2l2-3 1-5 1-4c0-2 0-4 2-5l1 1z"/></g><path d="M160 668s5 11 5 16c-1 6-11 17-17 17-5 0-8-1-13-3" clip-path="url(#SVGID_00000106828345663201686130000014280679527005060006_)" fill="none" stroke="#000" stroke-width="1.5" stroke-linecap="round" stroke-miterlimit="10"/><path d="M163 666c3 5 11 20 7 25-3 4-16 18-22 22-4 2-14-2-14-2" clip-path="url(#SVGID_00000106828345663201686130000014280679527005060006_)" fill="none" stroke="#000" stroke-width="1.5" stroke-linecap="round" stroke-miterlimit="10"/><g clip-path="url(#SVGID_00000106828345663201686130000014280679527005060006_)"><path d="m166 701-4 6-4 6a66 66 0 0 1-8 9l-2 2h-2v-1l5-6 4-5 5-6 5-6 1 1z"/></g></g><g id="guy_fawkes_mask_00000129176347609617729440000016276961156845019543_"><defs><path id="SVGID_00000079483777062381102620000005174817387513826452_" d="M187 761 47 630l-39 3 10 148 169-11z"/></defs><clipPath id="SVGID_00000093138889648826842230000002667975989470274225_"><use xlink:href="#SVGID_00000079483777062381102620000005174817387513826452_" overflow="visible"/></clipPath><path d="M48 631s-40 42-34 56 32 41 36 45c10 11 36 29 51 34 9 4 23 4 30 4h33c10-1 18-9 18-9" clip-path="url(#SVGID_00000093138889648826842230000002667975989470274225_)" fill="none" stroke="#000" stroke-width="3" stroke-miterlimit="10"/><path d="M186 760c-2 3-11 0-35-22" clip-path="url(#SVGID_00000093138889648826842230000002667975989470274225_)" fill="none" stroke="#000" stroke-width="2" stroke-miterlimit="10"/><g clip-path="url(#SVGID_00000093138889648826842230000002667975989470274225_)"><path d="m118 753 5-2 3-1h2l10-5 5-3 2-2 2-1 1-1 1-1 2-2 4-4h2v2l-4 4-2 2-1 1-1 1a59 59 0 0 1-20 11l-11 1h-1 1z"/></g><g clip-path="url(#SVGID_00000093138889648826842230000002667975989470274225_)"><path d="M76 671a44 44 0 0 0-27 2c-4 2-8 4-11 8l-3 2-2 3-1 1-1 1-2 3 3-6 2-3 3-3 11-8a43 43 0 0 1 28-2l1 1-2 1z"/></g><path d="M35 705c-7-19 13-31 41-35l1 6s-38 2-42 29z" clip-path="url(#SVGID_00000093138889648826842230000002667975989470274225_)" fill="none" stroke="#000" stroke-width="1.5" stroke-linecap="round" stroke-linejoin="round" stroke-miterlimit="10"/><path d="M61 714c1-22 20-24 22-24 0 0 0 0 0 0-1 4-3 19-22 24" clip-path="url(#SVGID_00000093138889648826842230000002667975989470274225_)" fill="none" stroke="#000" stroke-width="2.5" stroke-linecap="round" stroke-miterlimit="10"/><g clip-path="url(#SVGID_00000093138889648826842230000002667975989470274225_)"><path d="M42 716c3 2 6 3 9 2a14 14 0 0 0 8-4h2v2l-10 5-5-1-4-3v-1z"/></g><path d="M55 737s-7-8-2-17" clip-path="url(#SVGID_00000093138889648826842230000002667975989470274225_)" fill="none" stroke="#000" stroke-width="1.5" stroke-linecap="round" stroke-miterlimit="10"/><g clip-path="url(#SVGID_00000093138889648826842230000002667975989470274225_)"><path d="M89 745a36 36 0 0 0 16 9l10 2 9 2 15 1 8 2 3 1 4 2a22 22 0 0 0-8-2l-7-2-15-1-19-4-9-3-8-6v-1h1z"/></g><g clip-path="url(#SVGID_00000093138889648826842230000002667975989470274225_)"><path d="M102 708v6l3 5 2 1v1h1l2 1c2 1 4 0 6-1h1v1a8 8 0 0 1-7 3l-4-2h-1v-1l-1-1-4-6v-4l1-4h1v1z"/></g><path d="M65 745s15 10 25-1c11-14 12-29 12-29" clip-path="url(#SVGID_00000093138889648826842230000002667975989470274225_)" fill="none" stroke="#000" stroke-width="1.5" stroke-linecap="round" stroke-miterlimit="10"/><g clip-path="url(#SVGID_00000093138889648826842230000002667975989470274225_)"><path d="m114 716 4-3 5-1 4-1 4-3h1v2l-2 1-2 2-5 2h-4l-4 2h-1v-1z"/></g><path d="M92 741s11 4 17 3c5-1 16-12 16-18-1-5-2-8-5-12" clip-path="url(#SVGID_00000093138889648826842230000002667975989470274225_)" fill="none" stroke="#000" stroke-width="1.5" stroke-linecap="round" stroke-miterlimit="10"/><path d="M90 743c5 4 21 10 26 6 4-4 17-17 20-24 2-4-2-14-2-14" clip-path="url(#SVGID_00000093138889648826842230000002667975989470274225_)" fill="none" stroke="#000" stroke-width="1.5" stroke-linecap="round" stroke-miterlimit="10"/><g clip-path="url(#SVGID_00000093138889648826842230000002667975989470274225_)"><path d="m125 743 5-5 6-5 5-5 5-5h2v1l-3 3-2 3-6 5-5 5-7 4v-1z"/></g></g></g><g id="big_floppa"><path class="st2" d="M170 284s2 21 1 25c-2 11-6 10-9 15-3 7 3 22 16 12 4-3 4-8 8-12 3-4 3-5 9-5"/><path d="m215 290 3 5a28 28 0 0 0 7 8l4 4 2 2 1 3 1 6-1 6-1 5-2 3-1 1-1 1-4 3-2 2v3l1 4c0 2 1 3 3 3h4l3-1 2-1 1-2 2-2 8-8 1-2 1-1v-8l1-2 2-2 2-5 6-9 2-5 2-5v-6l-1-5a206 206 0 0 0-1-23c3 8 3 15 4 22v12l-1 6-2 5-6 10-3 4-1 3-1 1v8l-1 1v1l-2 2-7 8-2 2-2 3-3 1a17 17 0 0 1-5 2h-1l-3-1c-3-1-4-2-5-4a11 11 0 0 1 1-12l5-4 1-1 1-1 1-2 2-10-1-5-2-4-4-4-4-4-5-11h1z"/><path d="m227 189 5 1 5-1a176 176 0 0 0 16-2l5 1a84 84 0 0 1 20 7l8 7 4 4 1 2 2 2 5 9 3 4 4 4 3 4h3l4-3 1-1v-2l-2-2 1-3a7 7 0 0 1 7-4l2 1 3 1a8 8 0 0 1 2 6v6l-2 5c-1 3-4 6-7 9l-2 1v1l-1 1v-1 1l1 1v3c1 7-1 15-4 21l-1 5-1 5-2 5a13 13 0 0 1-3 4l-1 1-16 13-7 7-4 3-3 2-2 1-6 1-5-2-4-4-1-2v-4l1-3 3-2 4-3 5-2 5-1 4-3 1-1 1-1 2-1 5-9a175 175 0 0 0 8-19 87 87 0 0 1-6 20l-5 10-2 2h-1l-1 1-5 3-5 2a23 23 0 0 0-9 4l-2 4v4l3 3 4 1 5-1 2-1 2-1 4-3 7-7 16-14h1l1-1 1-2 1-5 1-5 1-2 1-3c3-6 4-13 3-19v-6l1-2h1l2-2c3-2 5-5 6-8l1-4 1-5-2-3-1-1h-2l-3 1-1 1 1 1 1 1v4l-2 3-5 3-3 1-1-1h-1l-2-1-3-4-4-3c-1-2-3-3-3-5l-5-9-2-2-1-2-4-4c-4-4-10-8-16-10l-10-3a19 19 0 0 0-7 0h-3l-10 1-5 1-6-1-1-1 2-3z"/><path d="m226 191 1 2 1 3v4l-1 3-2 3v1l1 3-1 3v1l-1-1-1-2-1-3v-3l1-3 1-3v-5l-1-3 2-1 1 1z"/><path class="st9" d="M254 169c-3-2-11-6-19-7-7 0-6 8-6 13l-2 10-2 6"/><path d="m240 149-3 2-1 1-1 1h-1l4-2h10l3 1v1h-1l-6 1-5 2v-2l7 1c3 0 5 1 7 3l1 1h-1l-4-1h-4v-1l3 1 3 2 2 1 3 3v1h-1a126 126 0 0 0-10-4h-3v-2l2 1 2 1a101 101 0 0 1 6 5l3 2c0 1 0 1 0 0l-3-2-3-2-4-2-2-1h-1l-1-1 1-1 4 1 3 1 7 3-1 1-2-2-3-2-3-1-2-2h-1l1-1h8v2a18 18 0 0 0-14-3v-2l6-1 5-1v1l-1-1h-6l-4 1-4 1h-1v-1l1-2 1-1 3-3 1 1v1z"/><path d="M131 152c3-1 7 1 9 3l3 3 1 1 1 1 1 2 5 7 3 3 4 3 6 7a61 61 0 0 0 8 7h2l4 1 2-1h20l3-3 5-7a198 198 0 0 1 11-15l3-3 2-4 7-6c3-2 5-4 9-4l1 1-1 1c-3 0-6 1-8 3l-6 7-2 3-3 4-6 7a192 192 0 0 0-11 17l-2 1-3 1h-18l-2 1-5-1h-2l-1-1-2-1-7-6-6-6-4-4-3-3-5-7-2-2v-1l-1-1a16 16 0 0 0-6-5l-2-1h-2l-1-1 1-1z"/><path d="M119 177c0-2 5-8 9-10 0 0-4 0-10 4 1-3 9-8 15-9 0 0-7 0-12 2 4-3 10-4 10-4h-9c3-2 9-5 15-2l-6-5" fill="none" stroke="#000" stroke-width="1.5" stroke-linecap="round" stroke-linejoin="round" stroke-miterlimit="10"/><path class="st9" d="m231 316-6-1-8 2c-4 0-7-2-11-1l-8 3c-7 1-5 0-11-2-7-3-16-19-17-33-1-10-3-13-5-17l-1-6-6-4c-2-2-2-6-2-10s0-4-2-6-8-12-6-24c0-3 4-6 4-8 0-3 2-2 1-5v-4c0-1 2-3 1-5s-3-3-4-6l-4-10c-3-4-4-4-5-8-1-5-10-4-22 6"/><path class="st4" d="M153 215s9-3 12 0c2 3 2 9-3 10-4 0-9-1-9-10zm54 1s-8-3-13-1c-4 2-4 9 2 10 7 1 10-4 11-9zm-33 26h6c4 0 6 1 5 3-1 3-4 4-5 4-1 1-2 5-4 5s-4 1-5-1l-2-4c-1 0-4-1-4-5 0-2 1-2 3-2h6z"/><path d="M162 259c2 1 4 2 6 1h3l2-1h4l2 1 3 1h7l6-2 2-2 2-3 1-3v-4l2-3 3-2c1 0 0 0 0 0l-4 5v7l-5 7-7 2h-7l-4-1-3-1h-1l-2 1h-1l-2 1-4-1-4-2v-1h1z"/><path class="st4" d="M167 262s10 8 22 0"/><circle class="st6" cx="195.8" cy="218.9" r="3.4"/><circle class="st6" cx="161.9" cy="218.2" r="3.4"/><path class="st5" d="M166 218c1 5 0 21-1 25m30-28c-2 1-6 0-10 28"/><path class="st27" d="M195 250s15-3 23 3m-21-1s16 0 25 10m-28-9c7 0 23 8 28 21"/><path class="st27" d="M193 256s15 1 20 25"/><path class="st27" d="M196 255s12 0 21 21m-24-18s10 1 14 21m-47-30s-11-2-19 4"/><path class="st27" d="M159 251s-18 0-26 9"/><path class="st27" d="M161 252c-2 0-24 4-31 16"/><path class="st27" d="M161 255c-4 0-17 3-24 12"/><path class="st27" d="M163 256c-4 1-18 6-27 21"/><path class="st27" d="M163 258c-2 0-15 6-19 16"/></g><use xlink:href="#Dot_Larger" width="10" height="10" x="-5" y="-5" transform="matrix(1 0 0 -1 375 230)" overflow="visible"/><use xlink:href="#Dot_Larger" width="10" height="10" x="-5" y="-5" transform="matrix(1 0 0 -1 306 351)" overflow="visible"/><use xlink:href="#Dot" width="5.8" height="5.8" x="-2.9" y="-2.9" transform="matrix(1 0 0 -1 352 348)" overflow="visible"/><use xlink:href="#Dot_Larger" width="10" height="10" x="-5" y="-5" transform="matrix(1 0 0 -1 287 158)" overflow="visible"/><use xlink:href="#Dot_Larger" width="10" height="10" x="-5" y="-5" transform="matrix(1 0 0 -1 416 103)" overflow="visible"/><use xlink:href="#Dot" width="5.8" height="5.8" x="-2.9" y="-2.9" transform="matrix(1 0 0 -1 180 150)" overflow="visible"/><use xlink:href="#Dot_Larger" width="10" height="10" x="-5" y="-5" transform="matrix(1 0 0 -1 79 197)" overflow="visible"/><use xlink:href="#Dot_Larger" width="10" height="10" x="-5" y="-5" transform="matrix(1 0 0 -1 807 1012)" overflow="visible"/><use xlink:href="#Dot" width="5.8" height="5.8" x="-2.9" y="-2.9" transform="matrix(1 0 0 -1 718 976)" overflow="visible"/><use xlink:href="#Dot_Larger" width="10" height="10" x="-5" y="-5" transform="matrix(1 0 0 -1 522 990)" overflow="visible"/><use xlink:href="#Dot" width="5.8" height="5.8" x="-2.9" y="-2.9" transform="matrix(1 0 0 -1 610 980)" overflow="visible"/><use xlink:href="#Dot" width="5.8" height="5.8" x="-2.9" y="-2.9" transform="matrix(1 0 0 -1 645 1000)" overflow="visible"/><use xlink:href="#Dot" width="5.8" height="5.8" x="-2.9" y="-2.9" transform="matrix(1 0 0 -1 818 1073)" overflow="visible"/><use xlink:href="#Dot" width="5.8" height="5.8" x="-2.9" y="-2.9" transform="matrix(1 0 0 -1 770 1204)" overflow="visible"/><use xlink:href="#Dot" width="5.8" height="5.8" x="-2.9" y="-2.9" transform="matrix(1 0 0 -1 684 1202)" overflow="visible"/><use xlink:href="#Dot" width="5.8" height="5.8" x="-2.9" y="-2.9" transform="matrix(1 0 0 -1 603 1174)" overflow="visible"/><use xlink:href="#Dot_Larger" width="10" height="10" x="-5" y="-5" transform="matrix(1 0 0 -1 473 1185)" overflow="visible"/><use xlink:href="#Dot" width="5.8" height="5.8" x="-2.9" y="-2.9" transform="matrix(1 0 0 -1 466 1265)" overflow="visible"/><use xlink:href="#Dot" width="5.8" height="5.8" x="-2.9" y="-2.9" transform="matrix(1 0 0 -1 517 6)" overflow="visible"/></svg>