<svg version="1.1" xmlns="http://www.w3.org/2000/svg" x="0" y="0" viewBox="0 0 300 300" xml:space="preserve">
<path d="M212 64s78 28 76 104c0 35-44 77-107 91 0 0 44-28 58-87s-3-77-27-108z" fill="#e50012"/>
<path d="M266 137c6-2 5 20 1 41-5 21-10 39-19 37-9-1 2-73 18-78z" fill="#fff000"/>
<path d="M33 107s-17 41-5 61l4-3s1-27 13-52c0 0-6 1-12-6zm34-51s23-30 86-20c62 11 102 59 87 131-16 71-63 101-100 100l-12 1s51-21 67-68c15-46-4-114-52-132s-62-8-62-8 1-5-14-4z" fill="#fff"/>
<path fill="#009fe8" d="M45 111s-15-4-21-17c-7-16 2-42 48-37l7 2s40-8 70 13c0 0-35 1-48 20-14 19-24 23-29 10s5-13 1-17c-3-3-20 8-28 26z"/>
<path d="M34 186s-5-24 2-49c6-25 15-50 39-53 0 0-11 25 3 25 13 1 31-28 42-32 7-3 29-6 32-5 0 0 51 31 44 90-1 4-15 35-41 39 0 0 1 16 26 22 0 0-29 42-54 45-25 4-49 1-49 1s-25-4-35-9c-10-6-33-23-33-36s3-37 24-38z" fill="#fce8d3"/>
<path d="M131 239c14 2 26-8 28-21 1-13-8-26-22-27-14-2-26 7-28 21-1 13 8 25 22 27zM16 220c7 5 17 2 23-7 6-8 8-18 1-23-6-6-18-1-24 7-6 9-6 17 0 23z" fill="#e84d38"/>
<path fill="#009fe8" d="M196 162s-3 46-14 60c0 0-23-4-28-20 0 0 27 1 42-40zm-164 2-1 19s-10 5-12 10l-9-10s18-5 22-19z"/>
<path d="M121 188c6 1 16-15 21-42 5-29 3-45-2-46-6-1-16 18-20 42-6 24-4 45 1 46zm-74-6c5 1 13-16 17-38 5-21 4-40 0-41-5-1-13 16-17 38-5 22-5 40 0 41zM72 187c-3-3-6-5-8-3-2 1 0 6 1 7 1 2 1 4-2 2s-6-11-1-14 10 2 12 6c2 2 0 4-2 2zM85 64c-1 2-9-3-15-4-13-2-44-2-46 25 0 8 5 23 22 25l-1 3c-10-1-28-11-29-28 0-19 21-39 55-31 11 3 15 9 14 10z"/>
<path d="M156 76s-20-4-36 4c-14 6-24 23-28 27s-9 7-14 6-15-9-5-26c0 0-20 3-28 30-9 26-12 43-10 68h-5c-1-23 2-44 8-64 7-20 16-31 28-35 6-3 13-4 15-3s2 2 1 3l-5 1s-5 10-2 16c2 5 7 5 13 0 7-8 15-19 28-26 12-6 29-5 33-5l7 4zm40 81s-4 36-40 47c0 0 8 11 27 16l-4 5s-19-5-31-24c0 0 44-4 46-51l2 7zm-42 46-1-2"/>
<path d="m161 213-4-2v9c-2 12-13 18-24 17-13-1-25-9-23-25 3-23 25-20 25-20 7 0 15 4 18 9l3-1c-4-7-12-11-20-11-8-1-28 2-29 24-2 18 11 27 25 28s26-6 29-22v-6zM17 197c5-5 13-10 22-6 5 1 6 11-3 22-8 11-18 7-21 4s-3-13 2-20v-2c-5 5-10 19-3 26 7 6 19 2 25-6 7-10 10-21 2-26-7-4-16-2-24 5v3z"/>
<path d="M32 165s-6 12-18 19c0 0 3 5 10 6l-5 4s-5 0-15-12c0 0 20-4 29-27l-1 10z"/>
<path d="M76 270c35 4 77 5 135-18 60-25 77-50 83-78 6-29-9-69-49-97-22-16-41-22-49-25l10 7c5 5 24 10 46 34 25 25 36 56 32 77-3 18-8 48-67 74a244 244 0 0 1-153 18c-27-6-45-22-50-36-5-16 2-33 13-38 7-2 10-2 10-4 1-2-7-1-10 0-4 1-23 8-22 33 0 18 20 38 47 47l24 6"/>
<path d="M75 60c1 2 4 3 7 2s12-3 28-1c17 2 37 9 56 28 16 16 34 42 26 89-5 35-22 79-83 91h12c23-3 62-21 76-70 15-52-1-84-11-97-7-11-23-32-53-41-25-7-46-5-50-5-4 1-9 1-8 4z"/>
<path d="M70 57s7-12 33-18c28-6 65 1 91 16 27 16 56 48 42 111-13 57-46 90-81 100l1 2c39-7 78-46 91-102 15-65-21-106-69-125-44-17-79-6-90-2-12 5-22 12-24 18h6zm196 119c-2 11-11 39-17 38s-1-29 0-39c2-10 9-36 16-36 6 1 2 33 1 37h4c4-20 4-41-4-42s-16 23-19 41c-3 12-7 42 1 43s19-22 22-41l-4-1zM35 108c-5 6-14 40-7 58l-2 4c-10-14-2-52 6-65l3 3z"/>
<path d="m71 211 7 10 7 4 8 3 4-4-1-9-4-7-10 3-11-1" fill="#b7001f"/>
<path d="M62 206c3 1 14 5 21 2 8-2 12-5 12-9s2-2 2 0c0 4-1 10-10 13-8 3-19 2-24 0-7-3-5-8-1-6z"/>
<path d="m83 224 3-5 3-3 6-2 2 6-2 5-4 2-8-3z" fill="#d6003a"/>
<path d="M95 214s-4 0-7 2c-4 3-6 7-6 7l2 1s2-5 5-6c4-3 7-2 7-2"/>
<path d="M92 206s13 19 3 23c-11 4-28-19-28-19l3 1c5 5 16 17 22 14 7-4-1-18-1-18m9 25c-2 3-7 2-9 2-2-1-1 0 1 2 2 1 7 3 11-2 3-3-1-4-3-2z"/>
</svg>