<svg version="1.1" xmlns="http://www.w3.org/2000/svg" x="0" y="0" viewBox="0 0 512 512" xml:space="preserve">
<path fill="#e77cab" d="M152 114s14-82 51-87 44 20 53 18c9-3 21-27 61-13s38 78 43 83c6 5 94-14 108 22s-10 46-8 54 42 20 42 57-79 72-70 82c24 24 34 77 14 102s-51 3-59 8-15 41-49 47-76-58-82-57-42 63-85 56-37-42-45-47-28 16-63-10c-34-26 30-112 22-111-24 5-73-53-73-77s45-29 43-50c-1-23-14-16-9-53s106-24 106-24z"/>
<path fill="#df5b90" d="m244 27 3 2 3 3 3 2 4 1 10-7c6-5 11-8 18-10h2c14-3 26 0 37 7 24 19 37 54 42 83l4-1c27-7 65-3 90 11 9 6 16 14 19 25 2 12-1 24-5 35l-2 5-4 11 2 2 10 6 3 2c12 8 25 17 28 32 1 14 0 26-9 37l-24 27-4 5c-9 9-21 17-32 23l1 2a169 169 0 0 1 20 77c0 12-3 21-11 30-12 11-25 11-41 10h-19l-1 2-5 10-1 1-3 4-4 6c-7 12-15 21-30 25-14 2-27 0-39-9l-10-7-6-5-19-16-2-2-13-16-4-3-1 2c-9 17-26 30-41 40l-7 5c-13 9-24 13-39 11-14-2-23-11-31-22l-6-9-4-5-2-4-2-3-2-5H98c-16 0-27 0-39-11-8-9-11-19-10-31v-3c0-23 7-46 17-66l4-8-2-1c-19-11-35-25-48-42l-7-9a44 44 0 0 1 2-62l16-11 4-3 9-6-1-2-3-9-2-4c-3-8-5-16-5-25v-3c0-12 4-21 13-29 17-14 45-17 66-17h7c20 0 20 0 27 3l1-4c5-28 17-61 41-79 19-12 38-11 56 2zm-53 16-5 7-2 3c-11 17-22 38-22 59l2 1c17 7 32 15 46 27l2 2c15 12 29 32 35 50v10l1 7v16l-4 1v-2c-13-37-33-71-69-90-10-5-20-9-31-11l-4-1c-25-6-57-4-80 9-6 4-10 10-12 16v7c1 10 5 20 9 29l2 5 4 11c-3 4-7 6-11 9l-5 3-7 4c-15 10-15 10-24 25-1 8 0 15 5 22a261 261 0 0 0 14 15c13 16 26 28 44 38l8-9c23-28 55-49 90-59l3-1c7-1 13 0 20 2l9 3 13 4h-2c-47 6-90 22-121 60-21 26-35 57-36 90v2c0 7 2 12 7 17l2 2 3 2c5 5 10 4 17 3 29-2 29-2 38 4 9 7 15 18 19 29 4 7 9 12 16 15 9 2 17 1 25-3l18-13 3-2 17-15 2-2c4-3 7-7 10-12l2-1 4-10-4-9-3-5-1-3c-5-10-8-20-10-31v-2c-3-14-3-28-3-42v-5c0-13 6-21 14-30l3-5 2-2h4l-1 3-2 11-2 6-1 3v2c-5 24-2 47 4 70l1 3a154 154 0 0 0 37 61c10 10 21 18 33 26l2 1c7 6 14 8 24 7 9-3 16-8 20-16l2-4c11-24 11-24 21-28 12-3 25-2 37 0 6 0 10-1 15-4l4-5 2-2c7-10 4-25 3-36a153 153 0 0 0-15-43l-2-2-1-2-3-3-9 2c-28 10-61 8-90-3l-4-1-3-3-1-2-3-4-1-2-2-3-2-2-5-7-3-4-5-7 6 4a122 122 0 0 0 102 22h2a124 124 0 0 0 58-35l11-12 7-7c7-9 13-16 12-28-1-8-5-13-11-19l-20-14-5-3-11-7 11-29c4-10 6-19 2-29-4-9-12-12-20-15-24-9-50-10-74-4v4c-1 34-12 66-33 93l-2 2c-3 4-6 5-11 6l-2 1-24 6 2-1a129 129 0 0 0 51-134v-3c-2-9-6-17-10-25l-1-3-17-25-1-2-9-7-3-1c-6-3-13-3-20-1-9 4-17 11-25 17l-6 5-8-5-3-2-5-4c-15-11-35-19-50-1z"/>
<path fill="#fee8cc" d="m230 277 9 6 5 2-53 74-2 2-3 5c-3 3-2 4-2 8 0 5 0 8-3 12-4 4-8 6-13 6s-7-1-11-4c-3-4-5-6-5-11 0-6 2-9 6-14 2-2 4-2 7-2 6-2 9-5 12-10l53-74zM282 277l3 3 6 10c1 1 50 68 53 70h2c5 1 9 3 12 7s3 8 2 13c-2 5-5 8-9 11l-12 1c-5-3-9-6-11-12l1-5c0-8-55-80-59-86l-2-4 5-3 9-5zM402 203c4 4 6 7 6 12s-1 9-5 12c-4 4-8 5-14 5l-5-2c-4-2-8-1-13 1l-83 24-1-3-1-3v-3l-3-7 84-24 6-2c4-2 4-4 6-7 6-7 15-8 23-3zM130 203c3 3 6 7 6 9l8 3 84 24-4 16-23-6-4-1-61-19c-4-1-6 1-9 2-4 1-8 2-12 1-5-3-9-6-11-12 0-6 0-9 3-14 6-7 15-8 23-3z"/>
<path fill="#fee9cc" d="M266 115c4 4 6 7 6 12s-1 7-3 11l-2 2c-3 3-3 6-3 10v75h-16v-77c0-5-2-8-6-12-2-2-2-4-2-7 0-6 2-10 6-14 6-4 13-4 20 0z"/>
<path fill="#f8c95e" d="M348 360c6 2 9 6 12 11 1 6 0 10-3 15-4 4-8 6-13 6s-7-1-11-4c-3-4-5-6-5-11s1-9 5-12c5-5 8-6 15-5zM402 203c4 4 6 7 6 12s-1 9-5 12c-4 4-8 5-14 5-5 0-7-3-10-7s-4-8-3-13c2-5 4-8 9-11 6-2 12-1 17 2zM266 115c4 4 6 7 6 12s-1 9-5 12c-4 5-8 5-14 5-5 0-7-3-10-7s-3-7-3-12c2-6 4-9 9-12 6-2 12-1 17 2zM178 363c4 4 6 7 7 13-1 5-3 9-7 13-5 3-9 4-15 3-5-3-9-6-11-12 0-5 0-9 3-14 6-7 15-8 23-3zM130 203c4 4 6 7 6 13 0 5-1 8-5 11-4 4-8 5-14 5-5 0-7-3-10-7s-3-7-3-12c2-6 4-9 9-12 6-2 12-1 17 2z"/>
<g fill="#f8ca5d">
  <circle class="st5" cx="256" cy="256.7" r="32.2"/>
  <circle class="st5" cx="392.1" cy="216" r="16.3"/>
  <circle class="st5" cx="256.1" cy="127.9" r="16.2"/>
  <circle class="st5" cx="120.1" cy="216" r="16.2"/>
  <circle class="st5" cx="168.2" cy="376.2" r="16.4"/>
  <circle class="st5" cx="344.2" cy="376.2" r="16.4"/>
</g>
</svg>