<?xml version="1.0" encoding="utf-8"?>
<svg version="1.1" xmlns="http://www.w3.org/2000/svg" viewBox="0 0 580 580">
	<rect x="0" y="0" width="580" height="580" fill="#ffffff" stroke="none"/>
<g transform="translate(-81.081237,503.476477) scale(0.100000,-0.100000)">
	<path d="M4196.8,4333.6c-30-4-116-14-190-23c-159-20-260-43-430-98c-290-95-431-176-749-431c-48-39-150-152-227-253
		c-37-48-139-220-154-260c-6-15-19-40-29-54c-62-87-198-471-281-796c-38-147-52-189-64-187c-24,4-107-59-128-98
		c-31-56-21-127,29-198l39-58l-18-95c-28-146-135-800-153-934c-53-406-66-517-77-677c-11-173-11-180,9-205c38-52,119-44,140,13
		c6,16,16,103,22,194c12,172,43,440,87,740c51,351,130,819,139,829c2,2,57-37,122-86s150-111,188-137c39-27,74-52,78-56
		c5-4-14-29-42-55c-57-54-69-82-51-124c21-52,81-65,127-28c15,13,50,40,76,60l48,37l172-117c368-249,457-258,838-83l137,62l153-51
		c85-28,228-70,319-93c157-40,172-42,320-42c174-1,222,10,310,69c39,27,59,33,93,32c70-3,108,45,87,108c-10,29-7,40,30,106l40,74
		l-1-265c0-146-4-463-9-705c-9-483-8-494,46-512c39-13,73-3,95,27c17,23,19,67,29,485c19,876,11,1863-20,2322c-19,279-31,437-37,470
		c-5,30-3,32,38,43c161,41,247,92,286,168c28,55,39,154,23,212c-6,25-30,83-52,129c-71,148-247,300-469,406c-179,84-427,133-713,139
		C4328.8,4339.6,4226.8,4337.6,4196.8,4333.6z M4666.8,4157.6c185-26,303-61,445-132c194-96,357-261,387-390c28-123-31-165-296-212
		c-176-31-700-82-1136-110c-239-15-629-40-745-47c-85-5-102-9-122-29c-30-30-30-80-1-111c28-30,35-30,519,2c706,46,1111,79,1375,111
		l50,6l12-158c23-295,42-658,48-919l6-260l-54-155c-58-164-122-315-149-351c-16-21-17-20-140,73c-167,126-218,151-328,156
		c-60,3-106-1-150-13c-75-19-262-93-423-166c-136-62-103-66-427,61c-127,49-262,99-301,109c-159,44-273,35-435-34l-85-37l-117,83
		c-113,79-317,232-376,281l-28,23l26,115c137,607,269,989,440,1270c198,327,545,595,940,724
		C3970.8,4168.6,4327.8,4204.6,4666.8,4157.6z M3186.8,1462.6c41-11,157-53,258-92l182-71l-44-23c-75-38-192-73-244-73
		c-27,0-69,6-94,14c-81,24-368,210-351,227c14,14,116,38,168,38C3089.8,1483.6,3145.8,1474.6,3186.8,1462.6z M4577.8,1462.6
		c44-15,147-83,232-154c77-65,77-73-6-102c-117-39-363-7-641,84c-96,31-97,30,82,101C4442.8,1471.6,4509.8,1485.6,4577.8,1462.6z"/>
	<path d="M5010.8,3862.6c-29-14-54-61-54-99c0-44,56-100,100-100c42,0,86,27,101,62C5193.8,3813.6,5097.8,3904.6,5010.8,3862.6z
		 M5087.8,3853.6c27-15,24-56-6-76c-23-15-27-15-50,0C4971.8,3816.6,5023.8,3887.6,5087.8,3853.6z M5091.8,3718.6c0-30-39-27-43,3
		c-3,20,0,23,20,20C5083.8,3739.6,5091.8,3731.6,5091.8,3718.6z"/>
	<path d="M3524.8,3823.6c-27-28-30-36-25-76c5-52,28-81,71-93c62-16,121,18,132,76c12,61-33,124-88,122h-23l23-9c29-12,37-35,24-66
		c-13-27-58-34-80-12c-19,19-14,55,10,72c19,14,20,16,4,16C3563.8,3853.6,3541.8,3839.6,3524.8,3823.6z M3631.8,3704.6
		c0-30-32-37-40-10c-8,24,2,41,23,37C3624.8,3729.6,3631.8,3718.6,3631.8,3704.6z"/>
</g>
</svg>
