<?xml version="1.0" encoding="utf-8"?>
<svg version="1.1" xmlns="http://www.w3.org/2000/svg" viewBox="0 0 580 580">
	<rect x="0" y="0" width="580" height="580" fill="#ffffff" stroke="none"/>
<g transform="translate(-61.000000,456.890915) scale(0.100000,-0.100000)">
	<path d="M2175.7,3696.4c-128-28-223-83-272-156c-40-60-44-148-11-221c49-105,197-232,380-324c74-37,75-40,43-104
		c-7-14-21-61-31-105c-17-71-19-121-18-456l2-376l-142-58c-77-32-214-91-303-130c-314-140-393-201-393-300c0-59,37-114,149-225
		c91-90,423-387,545-487c39-32,39-33,28-71c-16-54-15-98,5-139c18-39,65-73,101-73c27,0,27,16,11-401c-7-168-9-317-6-331
		c9-34,41-44,71-24c27,17,28,30,47,536c10,263,12,287,31,307c11,11,22,39,25,60c4,27,12,42,27,49c11,5,27,22,34,37
		c19,40,2,77-52,111l-43,27l-6,437c-3,240-14,597-23,792c-17,374-14,568,11,685c21,97,46,157,65,151c8-2,83-32,165-66
		c185-75,626-231,964-340c211-68,258-80,278-71c26,12,32,61,10,79c-7,6-196,72-419,146c-909,302-1256,460-1416,642
		c-73,81-79,154-19,212c144,139,557,133,1047-15c403-121,769-306,1055-531c132-104,165-137,165-167c0-15,11-36,25-49
		c18-17,25-34,25-60c0-39,35-86,63-86c8,0,20-13,27-29c14-34,58-56,99-48c27,6,32,0,108-116c45-67,108-176,141-242
		c81-163,157-360,150-387c-2-7-75-83-163-168c-338-326-415-403-415-414c0-23,32-56,54-56s113,83,451,412c128,125,112,133,155-82
		c78-386,112-957,92-1540c-5-146-7-271-4-278c13-37,81-33,97,5c3,10,9,205,12,433c9,677-27,1134-122,1528c-14,57-25,109-25,116
		c0,6,75,88,166,181c357,366,419,469,344,573c-79,109-341,188-770,232c-177,18-175,17-188,53c-16,44-86,114-129,128c-20,6-55,9-80,5
		c-44-6-46-5-122,62c-415,360-1037,638-1628,727C2517.7,3714.4,2259.7,3715.4,2175.7,3696.4z M4920.7,2601.4c363-50,587-131,564-204
		c-19-59-219-292-418-485c-49-48-56-52-62-35c-64,180-127,320-208,457c-75,129-87,147-133,209c-64,85-61,92,40,84
		C4748.7,2623.4,4846.7,2611.4,4920.7,2601.4z M2284.7,1699.4c7-172,11-577,8-743l-2-121l-30-17l-30-18l-207,179
		c-244,210-428,384-467,440c-19,27-26,47-21,61c12,40,177,128,475,254c185,78,253,106,261,106
		C2275.7,1841.4,2281.7,1777.4,2284.7,1699.4z"/>
	<path d="M2501.7,3325.4c-28-35-26-69,4-99c24-24,57-31,90-19c24,10,46,60,39,89C2620.7,3353.4,2537.7,3371.4,2501.7,3325.4z
		 M2565.7,3301.4c0-22-39-19-43,3c-3,15,1,18,20,15C2554.7,3317.4,2565.7,3309.4,2565.7,3301.4z M2591.7,3238.4c-1-12-15-9-19,4
		c-3,6,1,10,8,8C2586.7,3247.4,2591.7,3242.4,2591.7,3238.4z"/>
	<path d="M3335.7,2976.4c-63-62,7-157,87-117c28,15,33,23,36,58s-1,45-24,63C3399.7,3008.4,3365.7,3007.4,3335.7,2976.4z
		 M3394.7,2962.4c10-16-6-42-23-39c-9,2-17,13-19,26c-3,16,2,22,17,22C3380.7,2971.4,3391.7,2967.4,3394.7,2962.4z M3420.7,2886.4
		c0-8-4-15-9-15c-13,0-22,16-14,24C3408.7,2906.4,3420.7,2901.4,3420.7,2886.4z"/>
</g>
</svg>
