<?xml version="1.0" standalone="no"?>
<svg version="1.0" xmlns="http://www.w3.org/2000/svg" viewBox="0 0 553.043798 469.597629" preserveAspectRatio="xMidYMid meet">
	<g transform="translate(-60.914093,560.868784) scale(0.100000,-0.100000)" fill="#000000" stroke="none">
		<path d="M3830 5594 c-402 -39 -627 -87 -940 -199 -325 -117 -821 -434 -1060 -676 -172 -174 -341 -409 -565 -784 -150 -252 -216 -381 -293 -576 -187 -475 -279 -850 -342 -1390 -17 -144 -20 -240 -21 -552 0 -280 3 -382 11 -393 15 -17 64 -19 78 -1 6 6 15 91 21 187 14 213 26 362 51 630 43 445 44 454 131 835 58 258 89 347 122 353 18 4 92 -66 129 -121 12 -19 53 -77 89 -129 80 -113 207 -313 405 -638 82 -134 163 -259 181 -276 39 -40 85 -52 117 -31 49 32 60 82 232 1047 41 229 62 313 86 333 19 16 34 17 135 11 l114 -7 29 28 c37 36 66 105 80 190 21 135 -10 203 -124 269 -37 22 -71 47 -77 57 -5 10 -9 68 -9 129 0 123 -10 154 -60 184 -39 23 -101 21 -128 -4 -33 -31 -32 -56 5 -145 22 -53 25 -70 21 -150 -4 -82 -10 -103 -67 -245 -35 -85 -67 -168 -72 -185 -5 -16 -25 -145 -45 -285 -38 -274 -73 -470 -105 -590 -30 -111 -78 -252 -95 -278 l-15 -23 -18 23 c-55 71 -100 146 -211 353 -181 337 -259 457 -393 605 -108 119 -113 159 -36 313 108 215 304 562 380 672 114 165 414 508 537 612 285 244 665 449 1020 554 510 149 1214 191 1650 98 274 -59 529 -166 616 -259 89 -95 54 -136 -204 -243 -229 -94 -461 -138 -925 -177 -132 -11 -260 -22 -285 -25 -79 -9 -299 -24 -513 -35 -235 -12 -454 -2 -646 31 -122 21 -145 19 -162 -12 -16 -30 -2 -57 44 -83 143 -83 494 -120 912 -97 214 12 378 27 780 71 301 33 464 44 479 31 60 -50 41 -329 -49 -727 -69 -305 -81 -402 -95 -819 -7 -181 -22 -424 -36 -560 -82 -809 -93 -1216 -38 -1443 22 -87 47 -129 84 -137 77 -17 95 58 50 205 -29 97 -40 221 -39 465 0 252 5 343 32 600 9 77 20 210 27 295 23 313 63 608 84 613 4 1 72 -113 150 -254 161 -290 213 -379 268 -461 44 -65 87 -94 117 -79 59 32 107 205 161 581 37 252 128 651 169 746 24 54 44 64 128 65 105 1 182 13 200 32 18 17 52 183 53 255 0 58 -27 82 -134 116 -118 37 -126 49 -126 183 0 108 -7 136 -44 165 -26 22 -94 23 -124 2 -29 -20 -28 -45 4 -156 34 -119 30 -159 -41 -378 -63 -194 -74 -240 -144 -585 -35 -177 -55 -302 -65 -430 -22 -259 -40 -335 -81 -335 -29 0 -200 279 -306 500 -161 336 -175 387 -143 520 21 89 81 404 100 525 8 55 19 199 23 320 5 121 12 228 16 239 5 10 31 29 59 41 28 12 115 50 192 84 204 89 284 165 284 266 0 55 -31 127 -73 173 -38 41 -210 145 -328 198 -195 89 -378 138 -632 169 -150 19 -553 18 -747 -1z"/>
		<path d="M5029 5121 c-32 -32 -39 -82 -15 -113 21 -28 85 -50 122 -43 59 11 83 80 49 144 -17 34 -33 41 -87 41 -30 0 -46 -7 -69 -29z"/>
		<path d="M3273 5040 c-45 -27 -65 -61 -61 -106 4 -48 51 -84 109 -84 39 0 70 26 85 72 15 48 -40 138 -85 138 -9 0 -30 -9 -48 -20z"/>
	</g>
</svg>
