<?xml version="1.0" standalone="no"?>
<!DOCTYPE svg PUBLIC "-//W3C//DTD SVG 20010904//EN"
 "http://www.w3.org/TR/2001/REC-SVG-20010904/DTD/svg10.dtd">
<svg version="1.0" xmlns="http://www.w3.org/2000/svg" viewBox="0 0 390.637376 440.719598" preserveAspectRatio="xMidYMid meet">
<g transform="translate(-81.081237,503.476477) scale(0.100000,-0.100000)" fill="#000000" stroke="none">
<path d="M3250 5030 c-30 -4 -116 -14 -190 -23 -159 -20 -260 -43 -430 -98
-290 -95 -431 -176 -749 -431 -48 -39 -150 -152 -227 -253 -37 -48 -139 -220
-154 -260 -6 -15 -19 -40 -29 -54 -62 -87 -198 -471 -281 -796 -38 -147 -52
-189 -64 -187 -24 4 -107 -59 -128 -98 -31 -56 -21 -127 29 -198 l39 -58 -18
-95 c-28 -146 -135 -800 -153 -934 -53 -406 -66 -517 -77 -677 -11 -173 -11
-180 9 -205 38 -52 119 -44 140 13 6 16 16 103 22 194 12 172 43 440 87 740
51 351 130 819 139 829 2 2 57 -37 122 -86 65 -49 150 -111 188 -137 39 -27
74 -52 78 -56 5 -4 -14 -29 -42 -55 -57 -54 -69 -82 -51 -124 21 -52 81 -65
127 -28 15 13 50 40 76 60 l48 37 172 -117 c368 -249 457 -258 838 -83 l137
62 153 -51 c85 -28 228 -70 319 -93 157 -40 172 -42 320 -42 174 -1 222 10
310 69 39 27 59 33 93 32 70 -3 108 45 87 108 -10 29 -7 40 30 106 l40 74 -1
-265 c0 -146 -4 -463 -9 -705 -9 -483 -8 -494 46 -512 39 -13 73 -3 95 27 17
23 19 67 29 485 19 876 11 1863 -20 2322 -19 279 -31 437 -37 470 -5 30 -3 32
38 43 161 41 247 92 286 168 28 55 39 154 23 212 -6 25 -30 83 -52 129 -71
148 -247 300 -469 406 -179 84 -427 133 -713 139 -94 2 -196 0 -226 -4z m470
-176 c185 -26 303 -61 445 -132 194 -96 357 -261 387 -390 28 -123 -31 -165
-296 -212 -176 -31 -700 -82 -1136 -110 -239 -15 -629 -40 -745 -47 -85 -5
-102 -9 -122 -29 -30 -30 -30 -80 -1 -111 28 -30 35 -30 519 2 706 46 1111 79
1375 111 l50 6 12 -158 c23 -295 42 -658 48 -919 l6 -260 -54 -155 c-58 -164
-122 -315 -149 -351 -16 -21 -17 -20 -140 73 -167 126 -218 151 -328 156 -60
3 -106 -1 -150 -13 -75 -19 -262 -93 -423 -166 -136 -62 -103 -66 -427 61
-127 49 -262 99 -301 109 -159 44 -273 35 -435 -34 l-85 -37 -117 83 c-113 79
-317 232 -376 281 l-28 23 26 115 c137 607 269 989 440 1270 198 327 545 595
940 724 369 121 726 157 1065 110z m-1480 -2695 c41 -11 157 -53 258 -92 l182
-71 -44 -23 c-75 -38 -192 -73 -244 -73 -27 0 -69 6 -94 14 -81 24 -368 210
-351 227 14 14 116 38 168 38 28 1 84 -8 125 -20z m1391 0 c44 -15 147 -83
232 -154 77 -65 77 -73 -6 -102 -117 -39 -363 -7 -641 84 -96 31 -97 30 82
101 198 80 265 94 333 71z"/>
<path d="M4064 4559 c-29 -14 -54 -61 -54 -99 0 -44 56 -100 100 -100 42 0 86
27 101 62 36 88 -60 179 -147 137z m77 -9 c27 -15 24 -56 -6 -76 -23 -15 -27
-15 -50 0 -60 39 -8 110 56 76z m4 -135 c0 -30 -39 -27 -43 3 -3 20 0 23 20
20 15 -2 23 -10 23 -23z"/>
<path d="M2578 4520 c-27 -28 -30 -36 -25 -76 5 -52 28 -81 71 -93 62 -16 121
18 132 76 12 61 -33 124 -88 122 l-23 0 23 -9 c29 -12 37 -35 24 -66 -13 -27
-58 -34 -80 -12 -19 19 -14 55 10 72 19 14 20 16 4 16 -9 0 -31 -14 -48 -30z
m107 -119 c0 -30 -32 -37 -40 -10 -8 24 2 41 23 37 10 -2 17 -13 17 -27z"/>
</g>
</svg>
