<?xml version="1.0" standalone="no"?>
<svg version="1.0" xmlns="http://www.w3.org/2000/svg" viewBox="0 0 415.853478 408.283473" preserveAspectRatio="xMidYMid meet">
	<g transform="translate(-61.000000,456.890915) scale(0.100000,-0.100000)" fill="#000000" stroke="none">
		<path d="M1355 4555 c-128 -28 -223 -83 -272 -156 -40 -60 -44 -148 -11 -221 49 -105 197 -232 380 -324 74 -37 75 -40 43 -104 -7 -14 -21 -61 -31 -105 -17 -71 -19 -121 -18 -456 l2 -376 -142 -58 c-77 -32 -214 -91 -303 -130 -314 -140 -393 -201 -393 -300 0 -59 37 -114 149 -225 91 -90 423 -387 545 -487 39 -32 39 -33 28 -71 -16 -54 -15 -98 5 -139 18 -39 65 -73 101 -73 27 0 27 16 11 -401 -7 -168 -9 -317 -6 -331 9 -34 41 -44 71 -24 27 17 28 30 47 536 10 263 12 287 31 307 11 11 22 39 25 60 4 27 12 42 27 49 11 5 27 22 34 37 19 40 2 77 -52 111 l-43 27 -6 437 c-3 240 -14 597 -23 792 -17 374 -14 568 11 685 21 97 46 157 65 151 8 -2 83 -32 165 -66 185 -75 626 -231 964 -340 211 -68 258 -80 278 -71 26 12 32 61 10 79 -7 6 -196 72 -419 146 -909 302 -1256 460 -1416 642 -73 81 -79 154 -19 212 144 139 557 133 1047 -15 403 -121 769 -306 1055 -531 132 -104 165 -137 165 -167 0 -15 11 -36 25 -49 18 -17 25 -34 25 -60 0 -39 35 -86 63 -86 8 0 20 -13 27 -29 14 -34 58 -56 99 -48 27 6 32 0 108 -116 45 -67 108 -176 141 -242 81 -163 157 -360 150 -387 -2 -7 -75 -83 -163 -168 -338 -326 -415 -403 -415 -414 0 -23 32 -56 54 -56 22 0 113 83 451 412 128 125 112 133 155 -82 78 -386 112 -957 92 -1540 -5 -146 -7 -271 -4 -278 13 -37 81 -33 97 5 3 10 9 205 12 433 9 677 -27 1134 -122 1528 -14 57 -25 109 -25 116 0 6 75 88 166 181 357 366 419 469 344 573 -79 109 -341 188 -770 232 -177 18 -175 17 -188 53 -16 44 -86 114 -129 128 -20 6 -55 9 -80 5 -44 -6 -46 -5 -122 62 -415 360 -1037 638 -1628 727 -126 18 -384 19 -468 0z m2745 -1095 c363 -50 587 -131 564 -204 -19 -59 -219 -292 -418 -485 -49 -48 -56 -52 -62 -35 -64 180 -127 320 -208 457 -75 129 -87 147 -133 209 -64 85 -61 92 40 84 45 -4 143 -16 217 -26z m-2636 -902 c7 -172 11 -577 8 -743 l-2 -121 -30 -17 -30 -18 -207 179 c-244 210 -428 384 -467 440 -19 27 -26 47 -21 61 12 40 177 128 475 254 185 78 253 106 261 106 4 1 10 -63 13 -141z"/>
		<path d="M1681 4184 c-28 -35 -26 -69 4 -99 24 -24 57 -31 90 -19 24 10 46 60 39 89 -14 57 -97 75 -133 29z m64 -24 c0 -22 -39 -19 -43 3 -3 15 1 18 20 15 12 -2 23 -10 23 -18z m26 -63 c-1 -12 -15 -9 -19 4 -3 6 1 10 8 8 6 -3 11 -8 11 -12z"/>
		<path d="M2515 3835 c-63 -62 7 -157 87 -117 28 15 33 23 36 58 3 35 -1 45 -24 63 -35 28 -69 27 -99 -4z m59 -14 c10 -16 -6 -42 -23 -39 -9 2 -17 13 -19 26 -3 16 2 22 17 22 11 0 22 -4 25 -9z m26 -76 c0 -8 -4 -15 -9 -15 -13 0 -22 16 -14 24 11 11 23 6 23 -9z"/>
	</g>
</svg>