<?xml version="1.0" encoding="utf-8"?>
<svg version="1.1" xmlns="http://www.w3.org/2000/svg" viewBox="0 0 680 680">
	<rect x="0" y="0" width="680" height="680" fill="#ffffff" stroke="none"/>
<g transform="translate(-60.914093,560.868784) scale(0.100000,-0.100000)">
	<path d="M4464.8,4542c-402-39-627-87-940-199c-325-117-821-434-1060-676c-172-174-341-409-565-784c-150-252-216-381-293-576
		c-187-475-279-850-342-1390c-17-144-20-240-21-552c0-280,3-382,11-393c15-17,64-19,78-1c6,6,15,91,21,187c14,213,26,362,51,630
		c43,445,44,454,131,835c58,258,89,347,122,353c18,4,92-66,129-121c12-19,53-77,89-129c80-113,207-313,405-638
		c82-134,163-259,181-276c39-40,85-52,117-31c49,32,60,82,232,1047c41,229,62,313,86,333c19,16,34,17,135,11l114-7l29,28
		c37,36,66,105,80,190c21,135-10,203-124,269c-37,22-71,47-77,57c-5,10-9,68-9,129c0,123-10,154-60,184c-39,23-101,21-128-4
		c-33-31-32-56,5-145c22-53,25-70,21-150c-4-82-10-103-67-245c-35-85-67-168-72-185c-5-16-25-145-45-285c-38-274-73-470-105-590
		c-30-111-78-252-95-278l-15-23l-18,23c-55,71-100,146-211,353c-181,337-259,457-393,605c-108,119-113,159-36,313
		c108,215,304,562,380,672c114,165,414,508,537,612c285,244,665,449,1020,554c510,149,1214,191,1650,98c274-59,529-166,616-259
		c89-95,54-136-204-243c-229-94-461-138-925-177c-132-11-260-22-285-25c-79-9-299-24-513-35c-235-12-454-2-646,31
		c-122,21-145,19-162-12c-16-30-2-57,44-83c143-83,494-120,912-97c214,12,378,27,780,71c301,33,464,44,479,31c60-50,41-329-49-727
		c-69-305-81-402-95-819c-7-181-22-424-36-560c-82-809-93-1216-38-1443c22-87,47-129,84-137c77-17,95,58,50,205
		c-29,97-40,221-39,465c0,252,5,343,32,600c9,77,20,210,27,295c23,313,63,608,84,613c4,1,72-113,150-254c161-290,213-379,268-461
		c44-65,87-94,117-79c59,32,107,205,161,581c37,252,128,651,169,746c24,54,44,64,128,65c105,1,182,13,200,32c18,17,52,183,53,255
		c0,58-27,82-134,116c-118,37-126,49-126,183c0,108-7,136-44,165c-26,22-94,23-124,2c-29-20-28-45,4-156c34-119,30-159-41-378
		c-63-194-74-240-144-585c-35-177-55-302-65-430c-22-259-40-335-81-335c-29,0-200,279-306,500c-161,336-175,387-143,520
		c21,89,81,404,100,525c8,55,19,199,23,320c5,121,12,228,16,239c5,10,31,29,59,41s115,50,192,84c204,89,284,165,284,266
		c0,55-31,127-73,173c-38,41-210,145-328,198c-195,89-378,138-632,169C5061.8,4562,4658.8,4561,4464.8,4542z"/>
	<path d="M5663.8,4069c-32-32-39-82-15-113c21-28,85-50,122-43c59,11,83,80,49,144c-17,34-33,41-87,41
		C5702.8,4098,5686.8,4091,5663.8,4069z"/>
	<path d="M3907.8,3988c-45-27-65-61-61-106c4-48,51-84,109-84c39,0,70,26,85,72c15,48-40,138-85,138
		C3946.8,4008,3925.8,3999,3907.8,3988z"/>
</g>
</svg>
