<?xml version="1.0" encoding="utf-8"?>
<svg version="1.1" xmlns="http://www.w3.org/2000/svg" xmlns:xlink="http://www.w3.org/1999/xlink" viewBox="0 0 142 142">
<g fill="none" stroke="currentColor" stroke-width="5">
<path d="M111.6,114.7v9.3c0,1.7-1.3,3-3,3H33.4c-1.7,0-3-1.3-3-3V17.6c0-1.7,1.3-3,3-3h10.3"/>
<path d="M99.1,127.2v9.7c0,1.7-1.3,3-3,3H20.9c-1.7,0-3-1.3-3-3V30.4c0-1.7,1.3-3,3-3h8.9"/>
<path d="M121.1,114.6H45.9c-1.7,0-3-1.3-3-3V5.1c0-1.7,1.3-3,3-3H104l20.1,18.7v90.8
	C124.1,113.3,122.8,114.6,121.1,114.6z"/>
<path d="M102.1,3.6c0,0,0,7.9,0,12.6s1.5,6.6,6,6.6c4.5,0,15.7,0,15.7,0"/>
</g>
<g fill="currentColor" stroke="none">
	<path d="M82.6,60c0,0.7-0.4,1.4-1.1,1.8L61.3,74c-0.3,0.2-0.6,0.3-1,0.3c-0.6,0-1-0.2-1.4-0.6c-0.4-0.4-0.6-0.9-0.6-1.4
		c0-0.7,0.3-1.3,1-1.8L76.7,60L59.3,49.6c-0.7-0.5-1-1-1-1.8c0-0.6,0.2-1,0.6-1.4c0.4-0.4,0.9-0.6,1.4-0.6c0.4,0,0.7,0.1,1,0.3
		l20.2,12.1C82.3,58.6,82.6,59.2,82.6,60z"/>
	<path d="M111.1,60c0,0.7-0.4,1.4-1.1,1.8L89.7,74c-0.3,0.2-0.6,0.3-1,0.3c-0.6,0-1-0.2-1.4-0.6s-0.6-0.9-0.6-1.4
		c0-0.7,0.3-1.3,1-1.8L105.1,60L87.7,49.6c-0.7-0.5-1-1-1-1.8c0-0.6,0.2-1,0.6-1.4s0.9-0.6,1.4-0.6c0.4,0,0.7,0.1,1,0.3L110,58.2
		C110.7,58.6,111.1,59.2,111.1,60z"/>
</g>
</svg>
