<?xml version="1.0" encoding="utf-8"?>
<svg version="1.1" xmlns="http://www.w3.org/2000/svg" viewBox="0 0 75 75">
<path data-fill="true" fill="#DA7100" d="M61.5,36.8c-1.9-8.5-6.6-15.2-8-16.8c-2.6-3.2-4.8-3.8-4.8-3.8s1.2,2.8,1.4,6.1c0.2,3.2-0.3,4.3-1.4,7.1
	c-0.9-3-5.4-12.7-8.6-17.5c-3-4.6-7.2-9.4-11.6-12.2c0.1,1,0.6,3.4,0.7,4.6l0.4,3.4c0.8,6.7-1.5,18.6-4.7,26.9
	c-0.5-2.8-0.9-4.6-1.4-7c-0.9-4-3.6-6.5-3.6-6.5s0.1,2.5-0.6,6.5c-0.7,4.1-1.8,6.5-3.1,9.7c-1.1,2.8-2.3,5.7-2.8,8.9
	c-1.3,7.9,0.4,13.9,5.7,19.4l1,1c0.6,0.6,1.2,1.1,1.8,1.7c1.3,1.1,6.6,6,15.2,6c3.2,0,11.1,0,17.4-7C63.2,57.7,63.1,44.4,61.5,36.8z
	"/>
</svg>
