<svg xmlns="http://www.w3.org/2000/svg" viewBox="0 0 141.25 141.25">
	<polygon data-background-fill="true" data-background-stroke="true" fill="currentColor" stroke="currentColor" stroke-width="6" points="34.9,88.7 34.9,3.3 107.1,3.3 107.1,88.7 97.5,80.2 89.6,88.7 80.9,80.6 72.3,88.5 63.4,80.5 54,88.7 45.1,80.7 "/>
	<rect data-foreground-fill="true" x="53.6" y="31.5" width="13" height="20" rx="5.45" ry="5.45" fill="white" stroke-width="6"/>
	<rect data-foreground-fill="true" x="77.55" y="31.5" width="13" height="20" rx="5.45" ry="5.45" fill="white" stroke-width="6"/>
	<path data-background-fill="true" data-background-stroke="true" fill="currentColor" stroke="currentColor" stroke-width="6" d="M120.1,138.4v-27.6c0-2.4-1.6-4.4-3.9-4.9l-28.7-9.5c-1.7-0.4-2.9-2-2.9-3.7l0-6.8l-3.7-3.6l-8.5,8.2l-9-8.3
	l-4.9,4.4l0,6.9c0,1.3-0.8,2.5-2.1,2.9l-28.5,9.7c-2.9,1-4.9,3.7-4.9,6.8v25.4L120.1,138.4z"/>
	<line data-foreground-stroke="true" x1="41.7" y1="128.7" x2="41.7" y2="141.17" stroke="white" stroke-width="2"/>
	<line data-foreground-stroke="true" x1="102.61" y1="128.45" x2="102.61" y2="140.92" stroke="white" stroke-width="2"/>
	<polyline data-foreground-stroke="true" fill="none" stroke="white" stroke-width="6" points="112.2,93.8 97.5,80.6 89.6,89.3 80.9,80.9 72.3,89.1 63.4,80.8 54,89.3 45.1,81 30,93.2 "/>
</svg>