<svg xmlns="http://www.w3.org/2000/svg" viewBox="0 0 4520 4520" xml:space="preserve"><g fill="currentColor" stroke="none"><path d="M4380 3961c0-107-2-194-5-194-2 0-46 38-97 85-166 152-347 267-474 299-78 20-203 20-278 1-124-32-277-132-461-300l-100-92-70 65c-155 145-365 278-500 318a607 607 0 0 1-440-65c-90-52-213-145-310-235l-95-88-88 83c-179 170-359 281-508 315-219 48-416-33-709-295-49-45-93-81-97-81-5 0-8 86-8 190v190l88 65c155 116 351 204 499 224 232 32 480-43 727-220l98-71 27 21c135 108 317 205 462 248 127 37 302 39 424 4 109-30 302-128 408-206 48-36 89-65 92-65 2 0 47 31 99 69 115 83 196 129 297 169 189 76 370 81 564 17 88-28 267-123 363-192l92-66v-193z"/><path d="M4390 3274c0-107-2-194-5-194-2 0-46 38-97 85-166 152-347 267-474 299-78 20-203 20-278 1-124-32-277-132-461-300l-100-92-70 65c-155 145-365 278-500 318a607 607 0 0 1-440-65c-90-52-213-145-310-235l-95-88-88 83c-179 170-359 281-508 315-219 48-416-33-709-295-49-45-93-81-97-81-5 0-8 86-8 190v190l88 65c155 116 351 204 499 224 232 32 480-43 727-220l98-71 27 21c135 108 317 205 462 248 127 37 302 39 424 4 109-30 302-128 408-206 48-36 89-65 92-65 2 0 47 31 99 69 115 83 196 129 297 169 189 76 370 81 564 17 88-28 267-123 363-192l92-66v-193z"/><path d="M4313 2588c-9-5-231-2-494 6-727 24-1158 35-1876 50-1644 43-1709 52-1721 65-66 66 248 393 953 656 569 213 1856 83 2117-23 908-368 1055-729 1021-754zM2125 162c1-41-2-77-7-82-17-17-105 6-193 50-199 100-393 253-456 360-19 31-54 114-78 184-64 187-105 263-175 330-31 30-58 59-57 64 0 20 40 18 87-2 78-35 175-130 272-264 123-169 272-299 417-360l31-12-37 104a3567 3567 0 0 1-658 1109c-46 54-160 175-254 269l-171 170h395l2 36-1 173c0 75 2 139 5 142 2 2 167 0 365-5 249-6 365-13 376-24s26-195 46-576l35-629c14-228 56-977 56-1037zM3643 2369c23-23 11-45-69-124-311-313-699-933-1182-1894-27-53-35-63-53-65-44-4-48 28-13 154 174 655 152 1322-62 1830-20 50-38 97-39 106 0 8 5 22 11 28 17 17 1389-18 1407-35z"/></g></svg>