<svg xmlns="http://www.w3.org/2000/svg" viewBox="0 0 4520 4520" xml:space="preserve"><g fill="currentColor" stroke="none"><path d="M4125 939c0-259-4-284-46-277-10 2-165 161-345 353-497 531-794 844-1291 1362-249 260-453 477-453 482 0 13 97 68 163 92 81 30 170 21 272-30 105-52 228-143 345-255l147-140 52-50 138 137c204 202 317 287 448 336 32 12 69 20 81 17 32-9 134-124 134-153 0-13-43-108-96-211l-96-188 84-114c188-259 317-520 392-792 62-225 71-487 71-569zM816 493c-28-29-56-53-63-53-24 0-70 79-101 172-70 211-99 457-68 577 9 35 43 119 75 185 87 178 112 260 110 357-1 44 1 83 5 86 14 14 41-15 60-63 30-80 32-216 6-379-33-206-19-404 40-550l13-30 48 100c171 353 282 789 319 1249 5 71 10 237 10 370v241l140-140 139-139 27 24 122 123c53 53 99 97 103 97s119-118 255-261c172-181 249-268 249-284 0-15-120-156-375-440l-420-469c-151-171-651-730-694-773zM3450 980c0-32-24-39-136-39-442-1-1154-165-2176-503-56-18-69-20-83-8-34 28-14 53 100 118 586 340 1042 827 1250 1337 21 50 42 96 47 103 6 6 19 12 28 12 24 0 970-995 970-1020zM4360 3678c0-107-2-194-5-194-2 0-46 38-97 85-166 152-347 267-474 299-78 20-203 20-278 1-124-32-277-132-461-300l-100-92-70 65c-155 145-365 278-500 318a607 607 0 0 1-440-65c-90-52-213-145-310-235l-95-88-88 83c-179 170-359 281-508 315-219 48-416-33-709-295-49-45-93-81-97-81-5 0-8 86-8 190v190l88 65c155 116 351 204 499 224 232 32 480-43 727-220l98-71 27 21c135 108 317 205 462 248 127 37 302 39 424 4 109-30 302-128 408-206 48-36 89-65 92-65 2 0 47 31 99 69 115 83 196 129 297 169 189 76 370 81 564 17 88-28 267-123 363-192l92-66v-193z"/><path d="M4370 2991c0-107-2-194-5-194-2 0-46 38-97 85-166 152-347 267-474 299-78 20-203 20-278 1-124-32-277-132-461-300l-100-92-70 65c-155 145-365 278-500 318a607 607 0 0 1-440-65c-90-52-213-145-310-235l-95-88-88 83c-179 170-359 281-508 315-219 48-416-33-709-295-49-45-93-81-97-81-5 0-8 86-8 190v190l88 65c155 116 351 204 499 224 232 32 480-43 727-220l98-71 27 21c135 108 317 205 462 248 127 37 302 39 424 4 109-30 302-128 408-206 48-36 89-65 92-65 2 0 47 31 99 69 115 83 196 129 297 169 189 76 370 81 564 17 88-28 267-123 363-192l92-66v-193z"/></g></svg>