<?xml version="1.0" encoding="utf-8"?>
<svg version="1.1" xmlns="http://www.w3.org/2000/svg" xmlns:xlink="http://www.w3.org/1999/xlink" x="0px" y="0px" viewBox="360 360 4520 4520">
	<path fill="currentColor" stroke="none" d="M4680,3594c0-107-2-194-5-194c-2,0-46,38-97,85c-166,152-347,267-474,299c-78,20-203,20-278,1
		c-124-32-277-132-461-300l-100-92l-70,65c-155,145-365,278-500,318c-130,38-308,11-440-65c-90-52-213-145-310-235l-95-88l-88,83
		c-179,170-359,281-508,315c-219,48-416-33-709-295c-49-45-93-81-97-81c-5,0-8,86-8,190v190l88,65c155,116,351,204,499,224
		c232,32,480-43,727-220l98-71l27,21c135,108,317,205,462,248c127,37,302,39,424,4c109-30,302-128,408-206c48-36,89-65,92-65
		c2,0,47,31,99,69c115,83,196,129,297,169c189,76,370,81,564,17c88-28,267-123,363-192l92-66V3594z"/>
	<path fill="currentColor" stroke="none" d="M4425,1549c0-259-4-284-46-277c-10,2-165,161-345,353c-497,531-794,844-1291,1362c-249,260-453,477-453,482
		c0,13,97,68,163,92c81,30,170,21,272-30c105-52,228-143,345-255c52-50,118-113,147-140l52-50l138,137c204,202,317,287,448,336
		c32,12,69,20,81,17c32-9,134-124,134-153c0-13-43-108-96-211l-96-188l84-114c188-259,317-520,392-792
		C4416,1893,4424,1822,4425,1549z"/>
	<path fill="currentColor" stroke="none" d="M1116,1103c-28-29-56-53-63-53c-24,0-70,79-101,172c-70,211-99,457-68,577c9,35,43,119,75,185
		c87,178,112,260,110,357c-1,44,1,83,5,86c14,14,41-15,60-63c30-80,32-216,6-379c-33-206-19-404,40-550l13-30l48,100
		c171,353,282,789,319,1249c5,71,10,237,10,370v241l140-140l139-139l27,24c14,14,69,69,122,123c53,53,99,97,103,97s119-118,255-261
		c172-181,249-268,249-284c0-15-120-156-375-440c-206-230-395-441-420-469C1659,1705,1159,1146,1116,1103z"/>
	<path fill="currentColor" stroke="none" d="M3750,1590c0-32-24-39-136-39c-442-1-1154-165-2176-503c-56-18-69-20-83-8c-34,28-14,53,100,118
		c586,340,1042,827,1250,1337c21,50,42,96,47,103c6,6,19,12,28,12C2804,2610,3750,1615,3750,1590z"/>
</svg>
