<?xml version="1.0" encoding="utf-8"?>
<svg version="1.1" xmlns="http://www.w3.org/2000/svg" viewBox="0 0 32 32">
<style type="text/css">
	.st0{fill:#85C441;}
	.st1{fill:#A2CD46;}
	.st2{fill:#76C044;}
	.st3{fill:#B2D460;}
	.st4{fill:#FFFFFF;}
	.st5{fill:#F493A9;stroke:#000000;stroke-width:0.1;stroke-miterlimit:10;}
	.st6{fill:#F493A9;}
</style>
<path class="st0" d="M5.05,28.16c-1.4-1.25-5.14-6.85-4.7-11.8s2.07-7.99,3.07-9S4.16,6.7,4.16,6.7S4.3,5.85,5.05,5.13
	c1.33-1.27,2.36-1.35,3.2-2S8.81,2.4,9.1,2.38C9.4,2.36,9.41,2.49,9.56,2.32s0.37-0.52,0.53-0.44c0.17,0.08-0.11,0.74,0.12,0.7
	s0.59-0.73,1.01-0.71c0.42,0.02,0.57-0.35,0.8-0.6c0.22-0.26,0.32-0.29,0.63-0.29s0.5,0.27,0.82,0.21c0.32-0.06,0.6-0.7,0.91-0.7
	c0.31,0,0.17,0.36,0.52,0.41c0.35,0.05,1.05,0.06,1.23,0.03c0.18-0.03,0.18-0.49,0.39-0.44s0.25,0.57,0.49,0.58s0.46-0.2,0.78-0.15
	c0.32,0.05,0.38,0.24,0.95,0.43c0.57,0.19,3.89,0.87,5.57,2.21s4.06,3.29,4.91,5.67c0.55,1.54,0.39,1.42,0.64,1.58
	c0.25,0.16,0.68-0.13,1.09,0.31c0.41,0.44,0.57,1.08,0.49,2.18s-0.03,4.12-0.2,5.48s-0.68,3.87-1.91,5.69
	c-1.23,1.83-1.6,2.22-2.61,3.06c-1.01,0.84-1.75,1.42-2.76,2.09c-1.01,0.67-4.58,1.99-6.52,1.9c-1.94-0.09-3.27-0.65-4.29-0.8
	S6.76,29.7,5.05,28.16z"/>
<path class="st1" d="M7.77,20.81c0,0-3.8-1.68-4.58-4.81S2.37,9.82,3.37,8.48s1.94-2.93,2.5-3.02c0.56-0.09,0,0.22,0.56-0.09
	C6.99,5.05,7.36,4.1,7.77,4.16s0.26,0.93,1.1,0.63s1.29-1.01,1.73-0.97c0.45,0.04-0.11,0.43,1.29,0.41c1.4-0.02,1.51,0.78,2.07,0.75
	c0.56-0.04-0.15,1.15,0.22,1.4c0.37,0.25,2.24-0.16,2.27,0.53c0.04,0.69-0.22,1.02,0,1.57s1.01,1.6,1.08,2.19
	c0.07,0.59-0.19,0.92-0.15,1.2c0.04,0.28,0.97,1.29,1.12,2.16c0.15,0.88,0.15,1.97,0.15,1.97s-8.46-3.01-9.78-2.23
	s-1.58,2.78-1.55,3.73C7.36,18.45,7.77,20.81,7.77,20.81z"/>
<path class="st2" d="M18.65,16.87V16c0,0,2.01,0.99,3.07,0.44c1.05-0.56,2.82-3.06,3.07-4.93c0.25-1.87-0.14-5.31-1.34-6.75
	c-1.2-1.44-2.46-1.55-2.37-1.98s1.14,0.04,1.73,0.42c0.59,0.38,3.9,2.75,4.33,3.33c0.43,0.57,2.17,2.23,2.6,4.09
	c0.1,0.43,0.66,0.2,0.83,0.27c0.17,0.07,0.84,0.51,0.91,1.52s-0.45,6.73-0.46,7.81c-0.01,1.08-3.98,7.22-5.51,8.31
	c-1.52,1.09-3.1,2.04-5.08,2.18s-8.27-0.43-9.5-0.73s-3.14-0.43-3.15-0.81c-0.01-0.38,1.92,0.25,3.57-0.39s4.36-1.97,6.15-4.98
	s2.26-4.61,2.14-5.67C19.5,17.05,18.65,16.87,18.65,16.87z"/>
<path class="st3" d="M16.53,2.22c0.75,0.13,0.71,0.35,1.42,0.38c0.71,0.03-0.11-0.53,1.21,0s2.24,0.5,2.87,0.94
	c0.63,0.45,2.21,1.47,2.51,3.83c0.3,2.36,0.33,4.83-0.39,6.06c-0.72,1.23-1.52,2.84-2.43,3.01C20.81,16.6,18.65,16,18.65,16
	s0.24-1-0.15-1.97s-1.17-1.82-1.12-2.16c0.05-0.34,0.22-1.21,0.02-1.63c-0.2-0.42-0.65-0.89-0.95-1.76c-0.3-0.88,0.34-1.02,0-1.57
	c-0.34-0.54-2.17-0.09-2.27-0.53c-0.1-0.45,0.24-1.23-0.22-1.4c-0.46-0.17-1.11-0.63-1.41-0.68s-0.5-0.03-0.53-0.32
	s1.26-0.11,1.45-0.29c0.2-0.18-0.8-0.65-0.5-0.82c0.29-0.17,0.5,0.18,0.84-0.08s0.99-0.04,1.2-0.17c0.21-0.14,0.56-0.32,0.88-0.38
	C16.22,2.16,16.53,2.22,16.53,2.22z"/>
<path class="st4" d="M11.89,13.11c0,0,1.17,0.28,1.19-1.08c0.02-1.36,0.07-4.49,0.07-4.49s0.34-1.55-2.24-1.47
	C8.35,6.14,7.06,7.5,7.02,9.79s1.4,3.2,2.01,3.22C9.65,13.04,11.89,13.11,11.89,13.11z"/>
<path class="st4" d="M19.94,13.43c0,0-1.29,0.25-1.29-0.78s0-4.92,0-4.92s0-1.41,2.27-1.34s3.91,1.76,3.86,3.75
	s-0.89,3.24-2.12,3.33C21.43,13.54,19.94,13.43,19.94,13.43z"/>
<path class="st5" d="M13.68,13.89h4.14c0,0,0.26,4.06-2.07,4.06S13.68,13.89,13.68,13.89z"/>
<ellipse class="st6" cx="9.83" cy="14.03" rx="2.06" ry="0.61"/>
<ellipse transform="matrix(0.1096 -0.994 0.994 0.1096 4.5835 34.651)" class="st6" cx="21.63" cy="14.77" rx="0.61" ry="2.06"/>
<path d="M9.67,13c0,0-0.67,0.12-0.82-0.65C8.7,11.57,8.65,9.4,8.65,9.4s-0.06-2.03,2.33-2.03c2.07,0,1.92,1.81,1.92,1.81l-0.07,3.17
	c0,0-0.09,0.78-0.75,0.76C11.42,13.09,9.67,13,9.67,13z"/>
<path d="M19.53,13.5c0,0-0.52-0.02-0.56-0.63c-0.04-0.61,0-3.41,0-3.41s0.11-1.78,1.75-1.73c1.64,0.05,2.5,1.13,2.46,2.96
	s-0.22,2.12-0.22,2.12s-0.09,0.57-0.75,0.61C21.56,13.47,19.53,13.5,19.53,13.5z"/>
<ellipse class="st4" cx="10.09" cy="9.29" rx="1.22" ry="1.38"/>
<ellipse class="st4" cx="20.31" cy="9.61" rx="1.16" ry="1.43"/>
</svg>
