<?xml version="1.0" encoding="utf-8"?>
<svg version="1.1" xmlns="http://www.w3.org/2000/svg" xmlns:xlink="http://www.w3.org/1999/xlink" viewBox="0 0 64 64">
	<path fill="#fd72f5" stroke="#000000" stroke-width="0.75" d="M49.4,26.1c0,0-3.9-1.9-3.9-3.9c0-3.9,3.9-1.9,7.8-7.8c0,0-1.9-13.6-15.5-13.6c-11.7,0-15.5,9.7-15.5,15.5
		c0,9.7,5.8,9.7,5.8,15.5c0,1.9-1.9,3.9-7.8,3.9c-9.7,0-13.6-9.7-13.6-9.7S0.8,30,0.8,39.7C0.8,51.3,8.6,63,26.1,63h9.7
		c5.8,0,17.5-7.8,17.5-17.5s-5.8-9.7-5.8-13.6S49.4,26.1,49.4,26.1z"/>
	<path fill="#f7e045" stroke="#000000" d="M59.1,16.4c-3.9,0-5.8-1.9-5.8-1.9c-3.9,5.8-7.8,3.9-7.8,7.8c0,1.9,3.9,3.9,3.9,3.9c3.9,0,13.6-5.8,13.6-7.8
		S61.1,16.4,59.1,16.4z"/>
	<circle fill="#000000" stroke="none" cx="47.5" cy="12.5" r="1.9"/>
	<line fill="none" stroke="#000000" stroke-width="2" x1="41.7" y1="6.1" x2="51.1" y2="9.4"/>
</svg>
