<?xml version="1.0" encoding="utf-8"?>
<svg xmlns="http://www.w3.org/2000/svg" xmlns:xlink="http://www.w3.org/1999/xlink" viewBox="0 0 186 186">
<polygon fill="#FFEFEF" points="113,177 121,153 129,145 153,137 169,129 177,121 177,113 169,105 161,73 65,73 65,113 73,137 81,145
	89,161 105,177 "/>
<polygon fill="#FF9CAF" points="49,185 81,153 105,177 113,177 121,169 129,169 145,185 "/>
<polygon fill="#FEEE97" points="161,177 161,161 169,129 177,129 177,161 169,177 "/>
<polygon fill="#FEEE97" points="17,49 25,33 49,9 129,9 145,17 161,33 177,65 177,89 177,97 169,97 161,81 145,81 145,73 97,73 97,81
	89,81 89,73 65,73 65,153 57,177 49,177 49,137 33,129 9,105 9,81 "/>
<g transform="translate(0.000000,186.000000) scale(0.100000,-0.100000)">
	<path d="M490,1770h-80v-80h-80v-80h-80v-80h-80v-160H90v-320H10v-80h80v-80H10v-80h80v-80h80v-80h80v-80h80v-80h160V330h-80V90h80
		V10h80v80h80v80h80v80h160v-80h80V90h80V10h80v80h80v80h80V90h80V10h80v80h-80v80h-80v80h-80v80h80v80h240v80h80V250h-80V90h80V10
		h80v80h80v160h80v480h-80v80h-80v320h-80V810h80v-80h80v-80h-80v-80h-160v-80h-240v-80H890v80H730v240h-80v480h-80V730h80V330h-80
		v320h-80v320h-80V650h80v-80H330v80h-80v80h-80v80H90v80h80v80H90v80h80v320h80v160h80v80h80v80h80V1770h400v-80h80v80h320v-80h160
		v-80h80v-80h80v-160h80v160h-80v80h-80v80h-80v80h-160v80H970v-80h-80v80H490V1770z M1770,250h-80V90h-80v160h80v320h80V250z
		 M810,330h-80v-80h-80v80h80v80h80V330z M570,90h-80v240h80V90z M1050,250h80V90h-80v80h-80v80h-80v80h160V250z"/>
	<path d="M1290,1130h80v240h-80V1130z"/>
	<path d="M970,1050h80v240h-80V1050z"/>
	<path d="M1450,1050h80v240h-80V1050z"/>
	<path d="M1690,1210h80V970h80v240h-80v160h-80V1210z"/>
	<path d="M810,1050h80v160h-80V1050z"/>
	<path d="M1130,970h80v240h-80V970z"/>
	<path d="M1370,730h80v240h-80V730z"/>
	<path d="M970,650h80v240h-80V650z"/>
</g>
<rect x="169" y="89" width="8" height="8"/>
<rect x="57" y="184" width="48" height="1"/>
<rect x="113" y="184" width="24" height="1"/>
</svg>
