<svg xmlns="http://www.w3.org/2000/svg" viewBox="0 0 595.1 433.6">
	<path data-fill="true" fill="#239623" d="M509.4,16.7A153.74,153.74,0,0,0,290.5,127s13.4-3,36.2-18.6c26-17.8,36.1-41.3,76.9-49.2-34.4,14.7-41.2,37.8-39.5,61.7A81.62,81.62,0,0,1,520,154.7c0,44.4-35.5,82.4-79.7,81.5-15.2-.3-48.8-15.2-84.1-34.7-34-18.8-100.8-58.6-135.1-76.8-20-10.6-43.2-15.5-67.4-15.5C68.8,109.2,0,178,0,262.8a153.61,153.61,0,0,0,304.7,27.7s-13.4,3-36.2,18.6c-26,17.8-36.1,41.3-76.9,49.2,34.4-14.7,41.2-37.8,39.5-61.7A81.62,81.62,0,0,1,75.2,262.8c0-44.4,35.5-82.4,79.7-81.5,15.2.3,48.8,15.2,84.1,34.7,34,18.8,100.8,58.6,135.1,76.8,20,10.6,43.2,15.5,67.4,15.5A153.74,153.74,0,0,0,509.4,16.7Z" transform="translate(0 -1)"/>
	<path fill="currentColor" d="M350.1,408.3l14.3,5.1a95.61,95.61,0,0,1-7.6,9.6,38.06,38.06,0,0,1-27.9,11.6,39.45,39.45,0,1,1,27.9-67.4,90.89,90.89,0,0,1,7.6,9.5L350.1,382c-1.8-2.3-3.1-3.7-3.7-4.4a24.6,24.6,0,1,0,.1,34.9C347,411.9,348.3,410.5,350.1,408.3Z" transform="translate(0 -1)"/>
	<path fill="currentColor" d="M373.1,322h14.4v47.2c4-7.7,9.8-11.6,17.4-11.6s13.7,2.7,18.2,8.2,6.9,12.3,7,20.6v46.3H415.8V387a16.41,16.41,0,0,0-3.5-10.5c-2.3-2.9-6-4.4-11-4.4-5.9,0-10.6,3.2-13.8,9.5v51.1H373.1V322Z" transform="translate(0 -1)"/>
	<path fill="currentColor" d="M503.7,366.5v-5h14.4v71.2H503.7v-8.9c-6.9,7.1-14.9,10.7-24.1,10.7a39.3,39.3,0,1,1,0-78.6C488.8,355.8,496.8,359.4,503.7,366.5Zm0,33.9V389.9a23.06,23.06,0,0,0-6.6-12.2,24.6,24.6,0,1,0,0,34.8A22.1,22.1,0,0,0,503.7,400.4Z" transform="translate(0 -1)"/>
	<path fill="currentColor" d="M546.5,380.6v52.1H532.1V361.5h14.4v8.3c3-8.1,9-12.2,18.1-12.2,7.7,0,13.8,2.7,18.4,8.2s6.9,12.3,7,20.6v46.3H575.7V387a14.07,14.07,0,0,0-4.5-10.5,15.34,15.34,0,0,0-21.4-.1A13.49,13.49,0,0,0,546.5,380.6Z" transform="translate(0 -1)"/>
</svg>