<?xml version="1.0" encoding="utf-8"?>
<!-- Generator: Adobe Illustrator 25.4.1, SVG Export Plug-In . SVG Version: 6.00 Build 0)  -->
<svg version="1.1" id="图层_1" xmlns="http://www.w3.org/2000/svg" xmlns:xlink="http://www.w3.org/1999/xlink" x="0px" y="0px"
	 viewBox="0 0 32 32" style="enable-background:new 0 0 32 32;" xml:space="preserve">
<style type="text/css">
	.st0{fill:#555555;}
	.st1{opacity:0.2038;fill:#332E0A;enable-background:new    ;}
	.st2{fill:none;stroke:#0A2933;stroke-linejoin:round;}
</style>
<path class="st0" d="M26.3,8.7L11.5,25.2h15.7c1.3,0,2.2,0.3,2.8,0.9c0.6,0.6,0.9,1.4,0.9,2.3S30.6,30,30,30.6
	c-0.6,0.6-1.6,0.8-2.8,0.8H5.4c-1.6,0-2.7-0.3-3.4-0.9c-0.8-0.6-1.1-1.6-1.1-2.7c0-0.6,0.3-1.4,0.8-2c0.5-0.6,1.6-2,3.3-3.8
	c1.7-1.9,3.3-3.8,4.9-5.3c1.4-1.6,2.8-3.1,4.1-4.4c1.3-1.4,2.2-2.5,3.1-3.4c0.9-0.9,1.4-1.7,1.9-2.5H7c-1.7,0-2.8-0.2-3.8-0.5
	S2,4.8,2,3.6c0-0.9,0.3-1.7,0.9-2.2c0.6-0.6,1.6-0.8,2.7-0.8h18.5c1.7,0,3,0.3,3.9,0.8s1.4,1.4,1.4,2.7c0,0.5-0.2,0.9-0.3,1.4
	c-0.2,0.5-0.3,0.8-0.6,1.1S28,7.2,27.5,7.6S26.7,8.1,26.3,8.7z"/>
<path id="Combined-Shape" class="st1" d="M30.8,27c0.2,0.3,0.3,0.8,0.3,1.3c0,0.9-0.3,1.6-0.9,2.2c-0.6,0.6-1.6,0.8-2.8,0.8H5.6
	c-1.6,0-2.7-0.3-3.4-0.9C1.4,29.7,1,28.8,1,27.7c0-0.3,0-0.8,0.2-1.1c0.2,0.5,0.5,0.9,0.9,1.3c0.8,0.6,1.9,0.9,3.4,0.9h21.8
	c1.3,0,2.2-0.3,2.8-0.8C30.5,27.8,30.6,27.5,30.8,27z"/>
<path class="st2" d="M26.3,8.7L11.5,25.2h15.7c1.3,0,2.2,0.3,2.8,0.9c0.6,0.6,0.9,1.4,0.9,2.3S30.6,30,30,30.6
	c-0.6,0.6-1.6,0.8-2.8,0.8H5.4c-1.6,0-2.7-0.3-3.4-0.9c-0.8-0.6-1.1-1.6-1.1-2.7c0-0.6,0.3-1.4,0.8-2c0.5-0.6,1.6-2,3.3-3.8
	c1.7-1.9,3.3-3.8,4.9-5.3c1.4-1.6,2.8-3.1,4.1-4.4c1.3-1.4,2.2-2.5,3.1-3.4c0.9-0.9,1.4-1.7,1.9-2.5H7c-1.7,0-2.8-0.2-3.8-0.5
	S2,4.8,2,3.6c0-0.9,0.3-1.7,0.9-2.2c0.6-0.6,1.6-0.8,2.7-0.8h18.5c1.7,0,3,0.3,3.9,0.8s1.4,1.4,1.4,2.7c0,0.5-0.2,0.9-0.3,1.4
	c-0.2,0.5-0.3,0.8-0.6,1.1S28,7.2,27.5,7.6S26.7,8.1,26.3,8.7z"/>
</svg>
