<svg version="1.1" xmlns="http://www.w3.org/2000/svg" x="0" y="0" viewBox="0 -63.15 575.4 575.4" xml:space="preserve">
<path d="M262 1c-21 2-33 9-41 27-9 17-7 38 4 54l4 7h-5l-14-1c-8 0-9 0-12-3-4-3-12-7-17-8-3 0-6-2-11-7-8-8-15-11-25-12-8 0-15 1-24 5-18 9-37 30-49 55-7 13-11 24-16 40-4 19-6 32-7 60-2 39-4 57-11 76-8 23-17 37-32 46-4 2-6 5-6 5 0 2 3 3 4 2h5c4 0 14-3 26-8l11-5 5 7a70 70 0 0 0 25 25c1 0 1 2-2 6-7 14-8 25-2 36 6 14 14 21 33 30 13 6 16 7 32 9 13 3 15 3 15 0l-7-5-14-10c-8-7-12-14-12-21 0-6 2-15 3-15l10 9a237 237 0 0 0 67 41l1-2c1-1-4-6-11-11-17-15-32-35-44-59-7-13-7-14 0-9s15 8 48 20c35 12 43 14 70 16 17 1 30 0 52-6 10-3 21-7 28-11l4-2 12 6c17 9 36 13 42 11l11-11 8-9 9 3 29 7c6 0 5-3-5-12l-11-12c-1-2-1-2 2-1l33 10c16 5 31 10 41 16 18 11 23 12 23 8l-11-8a96 96 0 0 1-39-44c-8-21-10-32-11-84a1104 1104 0 0 0-3-62l-1-5 5 6c15 16 26 37 41 80l10 30a646 646 0 0 0 37 71c2 5 4 7 6 5 1-1 0-2-1-6-4-8-8-18-12-35-10-42-15-74-22-142-6-66-13-99-26-125-13-25-34-44-59-53-8-3-11-3-18-3-16 0-28 5-41 20l-7 8-15-7-17-7-5 5a125 125 0 0 0-13 29l1 7 1 7-7-1c-8-2-24-1-32 0-7 2-20 7-22 9l-5-8c-1-6-3-10-5-12-3-3-4-3-9-3l-12 3-6 2c-2-2-4-12-4-21 0-10 2-19 7-26 7-11 17-17 38-22l4-3c0-3-8-4-26-2zm-2 8c-8 4-17 13-20 19-5 9-6 17-6 29 1 8 1 13 3 17l2 5-3 3-3 2-4-5a48 48 0 0 1-3-51c7-14 20-22 35-22h5l-6 3zm197 23c11 4 21 11 31 20 16 16 26 35 34 65 5 21 8 42 13 88a875 875 0 0 0 24 149c-1 1-19-37-22-44l-10-28c-12-36-20-53-31-70-10-15-25-28-27-24v2c3 4 6 39 6 73 0 57 7 84 26 108l6 8-10-4-26-7c-16-4-24-7-32-12-3-2-4-3-6-9-3-11-3-22 1-35a204 204 0 0 0 4-119l-4-12h7c8-1 19-4 22-6l4-4-3-15a711 711 0 0 1-12-44l-3-10 3-13c6-20 7-29 7-40 0-15 1-15-16-13-14 2-27 5-38 9l-7 3 4-5c6-6 12-10 19-13 6-2 8-2 17-2s12 1 19 4zm-95 22 11 5 3 1-3 1c-3 2-4 2-13-2l-9-4 2-4 9 3zm77 3-8 26-9 24-3 6-5 12-3 5-3-4c-6-8-13-16-18-20-6-4-6-7-2-16 6-11 15-20 28-27 12-6 24-9 23-6zm-286 7c5 2 17 11 16 13l-2 1c-3 0-15 7-22 12-11 9-20 24-24 39-1 7-1 14 2 21 2 4 2 4 1 6a332 332 0 0 0-31 93c2 1 0 4-10 20l-16 27c-3 7-4 8-4 20s1 13 3 18c3 6 12 16 17 19 2 2 2 2 0 5 0 2-2 3-3 4-3 1-17-11-25-24l-7-9-11 3c-9 5-20 9-22 9l4-5c13-11 24-33 29-58 3-14 5-32 6-60 1-35 4-52 13-77 13-37 39-69 64-77 6-2 17-1 22 0zm114 13a287 287 0 0 1 21 98v42l-4-15c-6-23-6-23-8-23-3 0-3 1 2 22 8 29 16 66 15 66-2 0-27-35-38-53-18-29-31-63-31-83 0-22 7-40 19-49 9-6 22-9 24-5zm-78 8 5 4-5 3c-19 7-40 24-55 46l-7 10-1-4c-4-13 7-37 22-50 15-12 28-15 41-9zm34 8 4 1-3 6c-3 8-5 24-5 35l1 8-5 6c-6 9-13 25-16 36-6 18-6 32-2 49l2 9c0 1-8-10-11-17-5-10-7-15-9-26-2-7-2-8 0-9 9-6 16-18 11-18l-3 4c-3 5-9 10-10 9l-1-11c0-9 0-11-2-13l-3-2c-2 0-7 13-10 24s-4 22-7 44l-1 7-3-10-8-38c-1-6-3-9-5-6-1 1-1 6 2 18l1 8-5 5-10 9-26 18 11-39c8-21 19-46 29-60a103 103 0 0 1 59-45c7-2 19-3 25-2zm227 53c8 25 9 28 5 27-1-1-16-42-16-45l2-6 9 24zm-224 20c7 20 16 39 31 60 18 28 38 54 41 54s3-2 0-17l-3-13h3c3 0 3 0 3 5 1 9 4 13 10 16 9 5 18 3 23-4 4-4 7-20 5-21l-10-1h-9l1-2c8-12 20-38 23-50 4-10 3-10 9-3 9 12 14 23 18 42 3 15 4 40 1 59l-1 16 1 1c2 0 15-19 19-29 4-8 6-9 12-9s13 6 15 13c4 15-6 34-22 42l-11 4c-3 0-4 1-8 10-10 18-18 27-33 35-13 6-21 10-35 13-18 5-31 6-47 5-25-2-33-4-75-19-37-13-44-17-51-31-6-13-6-21 4-42 5-12 9-23 12-39l3-10 2 6c4 8 8 8 5 0-2-7-3-19-3-30 2-20 6-43 10-53 2-3 2-3 2 7 2 25 9 46 21 61 2 2 3 4 2 5l-14 1c-14 0-15 0-15 2s1 2 3 3l3 2c3 13 3 14 7 18s4 4 9 4c9 0 16-7 17-16l2-4c2 0 3-3 2-4l-1-2-1-5c-2-4-6-18-7-28a108 108 0 0 1 22-68l5 16zm73-5 10 19c0 2 0 2-2 1l-5-5c-4-4-6-4-6-1 0 2 7 9 12 10 3 2 3 2 4 11 2 11 2 36 0 43l-1 6h-9l-8-1-1-3v-16c2-21 1-47-2-66 0-5 0-5 2-4l6 6zm-151 73v6l-4 16c-4 18-6 27-13 42l-7 18c-2 11 0 24 6 34l3 9a195 195 0 0 0 49 75l-8-5c-16-9-29-19-40-29-8-9-13-13-13-11-4 1-6 10-6 20 0 12 1 15 12 26l6 7c-8 0-32-10-43-19-10-7-17-20-17-31 0-5 3-14 7-19l4-6 5-9a310 310 0 0 0 37-99c8-38 8-39 12-43l3-3 3 8 4 13zm-24 10c-12 51-19 72-32 100l-4 7-5-4c-7-6-8-8-12-14l-3-15c0-15 2-21 20-47l13-23c2-5 2-6 14-14l13-8-4 18zm76 12c0 5-3 12-6 14l-7 2c-3 0-4-1-6-3-2-3-4-7-4-12l-1-4h8l12-1h4v4z"/>
<path d="M272 323c-1 4-6 7-11 10a66 66 0 0 1-38 0c-2 3 8 7 18 9 17 1 37-9 36-18-1-4-5-4-5-1z"/>
<path fill="#fee2d4" d="m219 150 3 3 1 4 1 3 1 2c7 23 17 43 30 63l1 2 10 14 2 2c8 12 17 25 27 37h4v-2l-2-11-1-4-1-4-1-3v-6h6l1 3v4l1 3 3 9 5 2 2 1c6 2 12 2 17-1 6-5 8-10 9-17l1-8-20-1 3-5 1-3 4-6 11-25 2-3 6-19c17 13 23 37 26 57 3 22 1 44-2 66l3 1 1-2 4-6 1-2 2-3 12-21c1-2 2-3 5-4 5 0 7-1 11 2 6 4 10 9 10 17 1 11-4 19-12 28-6 7-14 13-23 13l-4 3-5 8c-2 6-4 11-9 17l-4 3c-5 5-8 9-16 13l-4 2c-16 8-32 12-49 15h-3c-44 8-103-10-141-32-9-7-16-16-18-27-1-12 3-21 7-31 7-17 14-35 17-52l3 10 1 1 3 3-1-4c-6-29-3-60 8-88h1l1 2c1 19 2 39 12 56l2 3 7 11s4 3 3 4l-11 1h-3l-4 1h-10v3l3 1 2 1 1 6v4c2 6 3 7 8 12 5 1 10 1 14-2 6-5 8-10 9-17h3v-6l-3-7c-3-5-4-11-5-16-5-28 5-55 20-78z"/>
<path fill="#3d5367" d="m349 92 2 1c30 8 48 27 63 53 6 10 11 22 14 34 12 38 15 75 5 114-9 30-9 30-3 60l1 3 18 25c-8-1-14-2-21-5-6-2-6-2-12-1l-8 9-1 1-3 4c-3 4-4 5-9 6-15-2-30-8-43-16l9-6c12-9 20-16 24-31v-5l2-4 10-5c12-5 19-14 24-26 2-9 2-18-2-27-2-5-7-8-12-10l-7-1h-2l1-2c4-12 7-24 9-37v-2l1-15-3 1v2c-4 25-9 45-21 67l-1 3-1 3-2 2-5 6v-2l1-27v-2c0-12-1-23-4-34-4-19-11-37-26-50h-4v2c-5 17-12 33-20 49l-1 2-2 3-1 2-3 3c0-6 11-17 1-22l-2-28 6 2 6-1v-2h-2l-3-1h-3l-5-2-3-8c-4-10-9-21-18-27h-4v-2c-2-15-5-29-9-42l-1-3 1-6 10-5c19-7 40-5 59 0z"/>
<path fill="#42b1a2" d="m457 32 7 2c29 13 43 34 53 62 13 37 15 79 19 117a765 765 0 0 0 23 141c-3-1-27-52-36-80l-16-40-1-2c-8-17-31-46-36-44a1074 1074 0 0 1 8 118c1 32 16 55 29 73 2 2-8-1-8-1l-2-1-3-1-27-9c-26-6-26-6-33-13-9-16-4-36 1-53 5-19 9-37 8-57v-2c0-13-1-25-4-38l-1-3-5-20h3c9-1 17-3 26-6l3-1c1-8-1-14-3-21l-13-46-1-4 3-16c8-25 8-25 6-49l-1-2c-17 1-33 4-49 9l-10 3c14-19 38-26 60-16z"/>
<path fill="#95cad2" d="M156 66c13 7 12 9 12 9s4 2 1 3c-19 5-34 19-42 35-6 12-9 25-4 35 4 9 3 5-2 14-7 11-18 41-24 64l-2 7-2 15 1 2c0 2-13 22-13 22l-8 14-4 5c-4 8-6 12-5 21v8c0 12 3 18 12 26l8 8c2 2-3 8-5 8s-12-7-16-12l-13-17c-2-3-1-3-4-4l-13 6-20 6 2-3 5-5c29-31 31-78 32-117 2-52 16-102 54-139 12-10 37-19 50-11z"/>
<path fill="#ccc199" d="M226 94c4 1 0 2 0 2-4 10-6 18-6 31-1 18 2 15-5 22-12 21-21 42-20 65 1 6 1 18 3 24l1 6c-10-13-18-29-22-45l-1-2v-5l7-6h2l1-2 3-5 1-5h-1l-4 5c-1 4-4 7-8 8l-2-1v-17l-1-3c0-2-1-3-3-5l-1 1c-12 24-14 49-16 74-3-3-5-9-6-13l-1-4c-4-12-5-40-9-38-2 0 0 15 2 23 0 4 0 4-2 6 0 0-15 15-20 17l-19 13v-9l1-3 1-4 1-2c10-36 25-74 51-101l2-2c17-19 51-31 71-25z"/>
<path fill="#5773c3" d="M265 75c2 0 5 6 6 10l1 4c13 42 19 86 17 129l-3-1-2-8-5-20s-2-10-4-10v7l17 70s2 11 1 12-19-23-27-34c-20-29-44-66-43-103v-2c0-16 4-32 15-44 8-6 17-11 27-10z"/>
<path fill="#ccc199" d="m141 213 8 25c1 5-11 49-18 64-6 13-9 23-4 38l6 16 1 6 3 9 3 5c11 21 40 54 42 57s-2 1-2 1l-4-2-2-1-3-2-2-1c-15-9-28-19-40-31 0 0-5-7-7-7s-4 3-5 7c-2 3-3 19 0 25 3 7 12 15 12 15l3 3 1 2c-9-1-40-11-52-25-7-9-10-18-9-30 2-7 4-12 9-17l5-8 5-9c7-13 13-27 18-41l1-3c10-29 18-58 23-88l8-8z"/>
<path fill="#3d5367" d="M453 40c2 2 1 6 1 9 0 24-8 49-18 71l-1 2c-4 9-8 18-14 26l-6-7-1-3v-6l2-4 1-2 2-4c3-5 4-9 4-14h-3l-1 2c-2 8-5 14-9 20l-7-8c-4-6-9-12-15-16-3-2-4-3-5-6 3-14 13-25 25-33 10-6 20-10 31-13v-3c-15 2-29 8-41 19-10 7-16 18-19 29l-3-1c-9-4-17-8-26-10 0-4 1-4 3-7 25-23 66-43 100-41z"/>
<path fill="#ccc199" d="m128 226-1 8s-14 73-39 117c-10-7-18-15-21-27-1-23 8-38 22-57l12-22c2-5 6-7 10-9l2-2 15-8z"/>
<path fill="#ff9880" d="m438 56-12 43-1 2-2 6-3 2-1 6c-2 7-4 10-8 15l-8-8c-4-6-9-12-15-16-3-2-4-3-5-6 3-14 13-25 25-33 9-6 19-11 30-11z"/>
<path fill="#ff9085" d="M360 284c4 4 7 7 7 13 1 7 0 11-4 17-5 5-9 6-16 6h-5c-7 0-13-1-18-5-5-5-6-9-6-15s1-10 5-15c9-8 27-7 37-1z"/>
<path fill="#fee2d4" d="M290 154c9 5 13 14 17 23l1 5c-4-2-7-4-10-8l-3-1c1 5 5 8 9 11l3 1c3 2 3 3 4 6l1 5v3c2 16 2 31-2 46h-17c-2-6-2-9-2-15l1-29v-2l-2-45z"/>
<path fill="#ff9085" d="M146 282c19-1 19-1 25 3 4 4 8 8 8 14 0 10 0 10-3 15-5 5-9 8-15 8-9 0-16 0-23-5-4-4-4-4-4-7l2-4 1-3 1-3 3-5 1-3 4-10z"/>
<path fill="#fff591" d="m188 85 7 4-4 2c-36 18-46 32-63 58-3-5-5-11-4-17 4-19 14-34 30-45 11-5 22-7 34-2z"/>
<path fill="#5773c3" d="m267 6-11 6c-15 10-21 25-22 45l5 22-3 2-3 3c-4-1-5-5-7-8l-1-2c-13-22-6-51 16-65 8-2 18-3 26-3z"/>
<path fill="#3d5367" d="m445 111 4 9v3l1 4 1 3 7 25 1 4 1 3 1 3-1 6-12 4-17-35 2-5 1-2 2-3 1-3 8-16zm-89-69 17 7 3 2 8 3-9 6-19 14-5 1-8-7 4-9 1-3 8-14z"/>
<path fill="#3784b5" d="m305 250 9 1 1-1h18c0 7-1 12-5 18-5 2-10 2-15 0-3-1-5-2-6-5-2-4-2-8-2-13z"/>
<path fill="#38f6d5" d="M200 252c1 8-2 13-7 19-3 2-7 2-11 1-6-5-6-12-7-19l25-1z"/>
<path d="m271 321 5 1c0 4 0 6-2 9-8 8-19 11-30 11-8 0-16-2-22-6v-3l3 1 14 1h3c9 0 18-1 25-7l3-5 1-2z"/>
<path fill="#3d5367" d="m437 128 4 7v3l1 2 1 3 7 20 1 3 1 2v2l1 4-5 1-17-35 3-6 2-3 1-3z"/>
<path fill="#0d2541" d="M428 145c3 3 4 6 6 10l2 4v1l3 6 4 10h-12l-4-10-1-3-1-3-1-3c-1-4 2-8 4-12z"/>
<path fill="#3d5367" d="m349 55 20 8-9 8-3 3-6 1-8-7 6-13z"/>
<path fill="#ff5382" d="m440 122 4 6 1 3 1 3 1 3 7 22 1 3s6 10 1 11l-4-1-2-4-1-2v-3c-3-8-2-19-9-25-2-5-2-9-1-15l1-1zm-89-71c8 3 17 5 25 9l-4 2-15-3-2-1-5-2 1-5z"/>
<path fill="#0d2541" d="m343 75 6 3-2 4-3 1-1-8z"/>
</svg>