<?xml version="1.0" encoding="utf-8"?>
<svg version="1.1" xmlns="http://www.w3.org/2000/svg" viewBox="0 0 1024 1024">
<g fill="none" stroke="#000000" stroke-width="25">
	<path d="M286,141.4l161.2,109.1l230.6-200"/>
	<g fill="#e5e5e5">
		<path d="M38.9,259.6h945.5c11.4,0,20.6,9.2,20.6,20.6v608.3c0,11.4-9.2,20.6-20.6,20.6H38.9
			c-11.4,0-20.6-9.2-20.6-20.6V280.3C18.2,268.8,27.5,259.6,38.9,259.6z"/>
		<path fill="#c5d8d8" d="M118.2,342.2h533.9c11.4,0,20.6,9.2,20.6,20.6v443c0,11.4-9.2,20.6-20.6,20.6H118.2
			c-11.4,0-20.6-9.2-20.6-20.6V362.9C97.6,351.5,106.8,342.2,118.2,342.2z"/>
		<path d="M160.4,915.8v62.8H291v-62.8"/>
		<path d="M753,915v62.8h130.6V915"/>
		<path d="M761.3,353h70.3"/>
		<path d="M761.3,415.8h70.3"/>
		<path d="M761.3,473.7h70.3"/>
		<path d="M761.3,528.2h70.3"/>
		<path d="M761.3,584.4h70.3"/>
		<path d="M870.3,353h70.3"/>
		<path d="M870.3,415.8h70.3"/>
		<path d="M870.3,473.7h70.3"/>
		<path d="M870.3,528.2h70.3"/>
		<path d="M870.3,584.4h70.3"/>
		<path d="M849.2,722v-70.3"/>
		<path d="M826.6,696.8c-25.5,9.1-43.8,33.6-43.8,62.2c0,36.5,29.6,66.2,66.2,66.2s66.2-29.6,66.2-66.2
			c0-28.7-18.3-53.1-43.8-62.2"/>
	</g>
</g>
</svg>