<svg xmlns="http://www.w3.org/2000/svg" viewBox="0 0 256 256" xml:space="preserve">
	<path fill="#dbfd93" stroke="#000" d="M42 100c8-15 58 50 56 83-1 33-30 44-40 39S9 154 42 100z"/>
	<path fill="#d860d4" stroke="#000" d="M98 172s-13 5-18 14-16 41-12 53c2 6 18 3 18 3s-3 12 11 12c12 0 7-12 9-18l5-9s-2 16 13 17c14 2 4-19 4-19l10-2s6 8 9 16 10 15 18 14c7-1 8-5 4-15s1-30-10-45c-10-14-61-21-61-21z"/>
	<path fill="#d860d4" stroke="#000" d="M136 99s-15-97 8-96 12 96 12 96 63 12 46 67c-16 50-92 28-107 8-12-17-9-70 41-75z"/>
	<path d="M119 163c11-7 51-8 64-1 14 9-21 25-30 23s-36-11-35-18l1-4z" fill="#922f00" stroke="#000" stroke-miterlimit="10"/>
	<path d="M120 170s11-6 29-5 32 9 32 9-10 13-31 11c-16-1-25-8-28-12l-2-3z" fill="#ed8599" stroke="#000" stroke-miterlimit="10"/>
	<path fill="#f29600" stroke="#000" d="M184 165c-1 11 3 21 4 22l5-5s15 12 19 10c1-1 0-18-2-21-1-3 19-5 19-11 0-2-16-12-16-12s10-15 9-16-18 6-18 7l-3-8s-16 13-17 34zM122 168c0 11-6 21-7 20l-8-4s-14 11-18 11-1-20-1-20-22-3-22-6c-1-5 14-13 14-13s-8-10-7-20c1-5 17 5 17 5l3-7c8 1 29 11 29 34z"/>
	<path stroke="#000" d="M133 127c7 0 8 21 0 22-9 0-7-22 0-22zM174 129c8 0 7 20 0 20s-10-20 0-20z"/>
	<path fill="none" stroke="#000" d="m160 153 1-1M151 153l-2-1"/>
	<path class="st7" fill="#fff" d="M133 137c6 0 5-9 0-9s-5 9 0 9zM174 138c5 0 5-9 0-9s-6 9 0 9z"/>
	<path d="m120 183-5 5s21 10 37 9 36-10 36-10l-4-6-3-7s-11 14-28 11c-18-3-31-12-31-12l-2 10z" fill="none"/>
	<path fill="#dbfd93" stroke="#000" d="m128 193-17 34s24 2 34-8 16-22 16-22-19 3-33-4z"/>
	<path fill="none" stroke="#000" d="M96 202s-12 22-10 40"/>
	<path fill="none" stroke="#000" d="M78 205s1 18 10 18"/>
</svg>