<?xml version="1.0" encoding="utf-8"?>
<svg version="1.1" xmlns="http://www.w3.org/2000/svg" xmlns:xlink="http://www.w3.org/1999/xlink" viewBox="0 0 128 128">
<circle fill="#FF1A1A" cx="64" cy="64" r="61.7"/>
<ellipse fill="#D60909" cx="64" cy="64" rx="61.7" ry="47.2"/>
<path fill="#FFFFFF" d="M65,127.1c35,0,62.8-27.8,62.8-63.6H1.2C1.2,99.3,29,127.1,65,127.1z"/>
<path fill="#D8E5EA" d="M64.5,111.5c34,0,61-21,61-48H2.5C2.5,90.5,29.5,111.5,64.5,111.5z"/>
<path fill="#33363A" d="M64.5,127.5C29.4,127.5,1,99.1,1,64S29.4,0.5,64.5,0.5S128,28.9,128,64S99.6,127.5,64.5,127.5z M64.5,3.5
	C31.1,3.5,4,30.6,4,64s27.1,60.5,60.5,60.5S125,97.4,125,64S97.9,3.5,64.5,3.5z"/>
<path fill="#33363A" d="M125.5,65.5H2.5C1.7,65.5,1,64.8,1,64s0.7-1.5,1.5-1.5h123c0.8,0,1.5,0.7,1.5,1.5S126.3,65.5,125.5,65.5z"/>
<circle fill="#A7BBC1" cx="64" cy="69.7" r="16.8"/>
<circle fill="#FFFFFF" cx="64" cy="64" r="16.8"/>
<path fill="#D8E5EA" d="M52.5,75.5c-4.4-8.3-1.3-18.6,7-23c5-2.7,11-2.7,16,0"/>
<path fill="#33363A" d="M64.5,82.5c-5,0-10-2-13-6c-6.6-7.4-6-18.8,1.4-25.4s18.8-6,25.4,1.4s6,18.8-1.4,25.4
	C73.5,81,69.1,82.6,64.5,82.5z M64.5,48.5c-5,0-8,2-11,5c-5.5,6.2-5,15.7,1.2,21.2c6.2,5.5,15.7,5,21.2-1.2c5.5-6.2,5-15.7-1.2-21.2
	C71.9,49.8,68.3,48.5,64.5,48.5z"/>
<path fill="#FFFFFF" d="M69.5,69.5c-2.3,3.8-7.2,5-11,2.6c-3.8-2.3-5-7.2-2.6-11c0.7-1.1,1.6-2,2.6-2.6c3.8-2.3,8.7-1.1,11,2.6
	C71.1,63.7,71.1,66.9,69.5,69.5z"/>
<path fill="#D8E5EA" d="M58.5,58.5c3.8-2.3,8.7-1.1,11,2.6c1.6,2.6,1.6,5.8,0,8.4"/>
<path fill="#33363A" d="M64.5,73.5c-3,0-5-1-7-3c-3.9-3.9-3.8-10.3,0.1-14.1s10.3-3.8,14.1,0.1s3.8,10.3-0.1,14.1
	C69.7,72.5,67.2,73.5,64.5,73.5z M64.5,57.5l-5,2c-2.8,2.7-2.8,7.1-0.1,9.9c2.7,2.8,7.1,2.8,9.9,0.1c2.8-2.7,2.8-7.1,0.1-9.9
	C68.1,58.3,66.3,57.5,64.5,57.5z"/>
</svg>
