<svg xmlns="http://www.w3.org/2000/svg" viewBox="0 0 512 512"><path fill="currentColor" d="M180 252c2 3 10 7 13 7a19 19 0 0 0 6-1c3-1 8-6 10-9l1-9c0-5 0-6 3-3h4c2-3 0-6-9-10-7-3-8-3-15-3-5 0-8 0-14 3s-13 9-13 11l-4 4-3 4 3 1a14 14 0 0 1 6 3l2 2v-4c0-4 1-6 3-8 3-4 4-4 4-1s0 10 3 13zM361 258a9 9 0 0 1 4-2c3 0 3-1 0-7l-2-5c-3-5-15-12-25-14-7 0-15 2-20 7-5 4-5 6-1 4a16 16 0 0 1 3-2l1 7c0 8 1 11 7 14 5 3 14 2 18-1 3-3 6-10 6-13s1-4 3-1c3 3 4 6 3 9-1 4 0 6 3 4z"/><path fill="currentColor" d="M426 241c2 3 9-58 2-83S409 3 256 1 84 171 82 182s-2 36 1 66 8 45 5 60-2 22-3 26l9-23s9 18 10 28-2 15 1 25 1 13 2 11 5-22 7-22 5 17 6 19 4-5 13-3 14 6 15 6 3-11 6-10 0 12 5 14a76 76 0 0 0 9 3c2 0-1 15-4 24-5 12-10 18-11 20l-8 8-9 6 10 2 66 15 46 9c11 2 45-2 47-3s1-1 1-2c-4-4-19-26-21-34s1 5 0 5 17 27 15 28-33 5-42 4l-38-8-69-15-5-2 13-18 8-20a118 118 0 0 0 4-25l2-23c1-1 20 24 21 20 0-2-15-18-26-34a158 158 0 0 1-17-29l-6-15c-1-1-9 3-12-1-6-6-8-9-11-14-3-6-8-12-5-21s4-7 6-4 7 8 7 12v10c1 2 5 4 5 7a25 25 0 0 0 0 3l1 2c1 0 2-2 2-6s-4-6-5-8 0-2 1-3 3 2 5-1 6-23 6-26c-1-5 9 19 9 14 0-2 2-40 4-41h3c4-1 0 0 5-3s7 0 10 2c1 0 1-4 4-5 11-4 61 1 61 1a32 32 0 0 0-14-9c-9-2-22-1-22-2v-16c1-9 2-44 6-51 3-3-2 0 11-2 4 0 7-3 10-4 2-1 9 68 11 68l2-30-1-34c9 12 9 41 12 50 2 2 2-6 3-5l2 10v6c4 0 2-3 6-5l5-1c0-1 2-3 4-2 3 1 9 4 13 8s14 17 17 17c4 1 6-29 7-27 1 1 0 11 2 12s2-12 3-11c4 2 11 16 10 18a36 36 0 0 1-9 7c-6 3-12 4-10 6h23c2 0 4 4 6 4 3 0 3-3 4-3 7 2 23 3 25 8l2 11 4 13 1 8h3l-1 13c0 3-6 38-13 49s-19 29-26 35-37 31-44 33c-2 0-15 9-20 10s-28 0-26 0c1 0-15-4-15-2s33 8 37 6c3-1 14-6 16-5l-2 28 2 8v-12l2-26 8-6c3-1 8 2 12 0s10-5 18-5c2 1 8 7 10 4 2-2 3-11 4-12 2-3 5 12 5 14l8-13 5-15c3-6 0 19 1 20l-7 55c-1 6-16 70-14 69s7-20 14-36 13-36 14-37c5-10 21-91 24-106 4-16 9-55 9-57 0-4-1-7 2-7s7 12 7 16 5-27 11-47c3-11 6 7 8 10z"/></svg>