<svg xmlns="http://www.w3.org/2000/svg" viewBox="-85.5 0 1526 1526" xml:space="preserve">
	<g>
		<path fill="#fdefcd" d="M561 573c-30 6-18 55-18 78 0 83 7 166 7 249 0 21-7 86 30 81 22-4 33-44 45-61 32-45 73-85 119-115 16-10 56-20 55-42-1-21-29-36-43-48L620 608c-15-12-38-40-59-35m135 0 1 1-1-1m497 0 1 1-1-1z"/>
		<path fill="#9f7743" d="M926 0c-75 9-105 108-143 162-8 11-24 46-36 50-16 6-42-3-59-2-49 3-100 5-147 18l-55 15c-7 2-16 7-24 4-25-10-51-42-73-59-49-38-100-74-152-107-36-24-88-45-122-4-32 37-19 104-19 149l-2 265c0 34 4 69 2 103-3 48-31 102-47 147C20 820-5 909 1 994c4 61 18 121 44 176a617 617 0 0 0 317 275c49 22 98 46 150 60 84 22 175 25 261 17 109-11 235-40 324-106 54-39 88-99 125-153 32-47 64-91 86-144a676 676 0 0 0-187-760c-33-29-75-48-108-77-12-10-5-51-5-66V115c0-20 2-40-3-59-11-35-42-60-79-56z"/>
		<path fill="#e1b575" d="m876 21 1 1-1-1m109 0 1 1-1-1m-110 1 1 1-1-1m111 0 1 1-1-1m1 1 1 1-1-1m1 1 1 1-1-1m1 1 1 1-1-1m1 1 1 1-1-1m2 3 1 1-1-1m-126 2 1 1-1-1m-1 1 1 1-1-1m129 0 1 1-1-1M479 1456c-11-13 803-800 803-800l-14-35c-39-89-97-169-170-234-37-31-79-53-116-83-15-12-8-46-8-64V105c0-24 1-47-20-63-29-22-57 5-73 29-26 42-52 85-80 126-9 14-19 39-33 48-7 5-18 3-26 2-19-1-39-4-58-3-44 4-88 5-131 16-28 8-64 27-93 28-8 0-14-8-20-13l-41-33c-52-42-106-85-163-121-23-14-61-49-88-26-31 27-18 91-18 128v350c0 113-76 216-89 329-8 73-7 146 19 216 53 141 183 235 315 295 33 15 68 34 104 43M996 35l1 1-1-1m-135 2 1 1-1-1m136 0 1 1-1-1z"/>
		<path fill="#fdefcd" d="m845 61 1 1-1-1m84 1c-18 5-13 33-13 47v130c0 15 0 40 22 34 19-4 14-33 14-47 0-45 0-91 2-136 0-15-6-34-25-28zM956 395c-33 5-68 72-66 104 1 27 26 51 54 46 35-5 72-66 72-101 0-32-29-55-60-49zM642 459c-38 7-51 53-27 81 9 11 23 16 36 21 30 13 79 44 113 36 35-8 49-54 26-81-23-26-76-38-107-49-13-5-27-11-41-8zM1166 556c-16 3-9 27-9 39 0 36-8 73-20 106-4 10-21 36-18 46s35 22 44 27c32 18 63 39 82 72 39 70-13 141-61 189-18 18-37 38-60 48-28 11-56 13-86 12-23-1-46-10-69-13-18-1-37 4-56 2-36-4-73-14-108-22-18-4-69-6-70-31-1-37 57-10 73-4 41 16 87 43 132 41 30-2 63-20 91-31 26-9 71-20 69-54-1-11-1-31-8-39-10-12-39-16-53-26-22-16-39-40-50-65-8-19-7-36 6-52 2-3 7-8 2-10-44-18-120 10-150 42-9 10-18 22-22 35-3 7-2 17-6 23-3 3-8 2-12 2a469 469 0 0 1-301-182c-6-10-15-29-26-34-7-3-16 1-23 3l-53 12c-57 15-114 34-169 53-21 8-51 12-68 26-13 11-21 34-27 50-12 36-23 70-23 108 0 44-4 89 3 133 13 70 56 134 102 186 50 58 111 102 172 147 29 22 61 52 94 65 46 19 97 25 146 28 115 8 228-8 337-46 48-17 98-43 135-79 34-33 58-77 85-116 26-39 53-75 74-117 40-83 63-190 55-282-5-64-10-133-38-192-6-11-17-20-24-31-19-34-49-75-92-69m110 1 1 1-1-1z"/>
		<path fill="#fdefcd" d="M171 128c-30 6-18 55-18 78 0 83 7 166 7 249 0 21-7 86 30 81 22-4 33-44 45-61 32-45 73-85 119-115 16-10 56-20 55-42-1-21-29-36-43-48L230 163c-15-12-38-40-59-35m135 0 1 1-1-1m497 0 1 1-1-1z"/>
		<g fill="#9f7743">
			<path d="M639 605c-29 4-54 17-76 36-10 8-21 18-20 32s14 26 24 34c28 25 66 35 103 31 22-3 66-12 73-37 4-12-10-28-16-37-21-29-48-63-88-59z"/>
			<path d="M1062 759c-26 17-67 22-77 58-11 43 35 92 68 111 11 6 29 7 38 15 11 9 14 52 4 63-17 17-49 26-71 34-26 9-54 25-82 28-42 4-86-22-124-37-17-7-78-38-83-3-2 17 14 22 27 25 31 7 62 11 92 19 20 4 41 11 62 12 18 1 36-3 53-2 23 3 46 11 69 13 64 4 119-20 157-72-22-10-53 6-72-18-7-8 1-30 1-39 0-8-4-21 0-29 5-11 24-18 33-28 26-29 49-90 19-124-14-15-35-23-52-34-41-25-85-47-128-68l-44-22c-4-1-12-5-16-1-13 12 8 28 17 34l109 65zM1024 529c-83 17-38 140 32 126 81-17 41-141-32-126z"/>
		</g>
		<g fill="#fff">
			<path d="M652 630c3 10 10 18 14 28 8 27-11 43-22 64 23 0 65-17 60-48-3-17-36-40-52-44zM605 640c-16 6-4 33 13 26 17-8 4-33-13-26z"/>
			<path d="M1068 561c2 13 6 26 5 40-2 12-8 22-10 33 22-13 32-61 5-73m-49 2c-10 4-3 19 7 15s3-19-7-15z"/>
		</g>
	</g>
	<g>
		<path transform="rotate(-13 89 785)" d="M51 767h76v36H51z"/>
		<path d="m113 719 9 40 222-51 9 34 38-9 8 35 36-8 9 40 40-10 8 35 265-61-8-35 40-9-8-35 35-9-9-39 75-18 8 36 36-9 9 40 265-61-10-40 40-9-8-35 35-9-17-74z"/>
		<g fill="#fff">
			<path transform="rotate(-13 443 700)" d="M422 680h41v41h-41z"/>
			<path transform="rotate(-13 489 729)" d="M470 711h36v36h-36z"/>
			<path transform="rotate(-13 517 683)" d="M497 663h41v40h-41z"/>
			<path transform="rotate(-13 566 711)" d="M546 693h41v36h-41z"/>
			<path transform="rotate(-13 535 758)" d="M514 738h41v40h-41z"/>
			<path transform="rotate(-13 615 740)" d="M595 719h40v41h-40z"/>
			<path transform="rotate(-13 933 587)" d="M913 566h40v41h-40z"/>
			<path transform="rotate(-13 979 616)" d="M961 598h36v36h-36z"/>
			<path transform="rotate(-13 1008 569)" d="M988 549h41v41h-41z"/>
			<path transform="rotate(-13 1055 598)" d="M1037 580h36v37h-36z"/>
		</g>
	</g>
</svg>
