<?xml version="1.0" encoding="utf-8"?>
<svg version="1.1" xmlns="http://www.w3.org/2000/svg" xmlns:xlink="http://www.w3.org/1999/xlink" x="0px" y="0px" viewBox="0 0 512 512">
<g>
	<path fill="#8DC63F" d="M172.2,507.4c-11.3-6.3-19.6-14.3-28.6-27.6c-3.7-5.3-4.4-5.8-5.6-3.7c-9.4,16.2-25.3,20.5-42.8,11.8
		c-10.4-5.2-23.5-16.9-29.7-26.6c-2.4-3.8-6.3-11.8-8.7-17.9c-4.1-10.3-4.4-12.1-4.4-29.3c0-20.4,2.3-29.1,11.8-45.3
		c6.5-11.1,30.5-34.9,44.2-43.9c15.3-10,44.3-24.1,64-30.8c25.3-8.7,24.3-8.7,28.8-0.8c10.5,18,21.5,42.5,29.3,65.3
		c12.1,35.6,14.2,82.8,5.1,111.5c-3.9,12.5-11.4,24.9-19.4,32.4c-8.9,8.3-11.8,9.4-25.2,9.4C181.5,512,179.3,511.4,172.2,507.4z"/>
	<path fill="#8DC63F" d="M376.4,481.6c-15.5-3.4-28.4-10.7-41.4-23.6c-15.9-15.8-26.2-32.2-35.3-56.4c-7.2-19-14.1-51.1-17-78.8
		l-0.8-8.6l13.8-4.4c20.7-6.6,22.5-7.2,38.5-10.3c63.9-12.5,123.2-2,154.6,27.3c10.1,9.6,14.2,18.4,14.2,30.8c0,11-2,16-9.6,25
		c-5.5,6.5-21.1,17.2-31.2,21.5c-3.5,1.5-6.6,3-6.9,3.2c-0.4,0.3,1.5,2.8,4.4,5.8c6.9,7.2,8.2,10.1,8.2,18.8
		c0,10.4-5.1,20.1-15.6,29.8C432.7,480.1,403.8,487.5,376.4,481.6z"/>
	<path fill="#8DC63F" d="M319.3,217c-19.3-45.6-26.4-76.4-26.4-115.1c0-29.4,3.8-47.4,14.5-69.6C317.9,10.1,331.5,0,350.8,0
		c12.2,0,21,4.1,30.8,14.2c7.3,7.9,16.2,20.5,17.9,26.3c1.1,3.2,1.3,3.1,8.6-3.8c7.9-7.5,13.5-9.4,23.2-8.2
		c20.8,2.8,42.9,28.6,49.2,57.4c2.5,11.4,1.3,33.6-2.7,44.7c-6,17.4-19.8,35.6-36.6,47.8c-24.2,17.7-54.2,30.5-93,39.7
		C324.4,223.6,322.1,223.6,319.3,217z"/>
	<path fill="#8DC63F" d="M89.7,213.7c-26-3.4-51.9-14.1-66.4-27.6c-11.8-11-14.1-15.8-14.1-30.4c0-11.4,0.3-12.1,5.5-20.4
		c6.2-9.4,15.5-17.4,29.4-25.2c5.2-2.8,9.7-5.3,10-5.6c0.4-0.3-1.5-2.4-4.4-4.6c-9.6-7.9-12.1-22.9-6-35.6
		c11.5-24.3,51.6-43.7,80.2-39c5.5,0.8,13.1,2.7,16.9,3.8c30.2,9.6,56,38.8,72.9,82.7c7.7,20,15.9,52,17.4,68.5l0.7,8.2l-6,2.5
		C180.9,210.1,129.1,218.9,89.7,213.7z"/>
</g>
</svg>
